<svg id="Capa_1" enable-background="new 0 0 512 512" height="512" viewBox="0 0 512 512" width="512" xmlns="http://www.w3.org/2000/svg"><g><g><path d="m180.993 343.667h-90c-16.569 0-30-13.431-30-30v-90c0-16.569 13.431-30 30-30h90c16.569 0 30 13.431 30 30v90c0 16.568-13.432 30-30 30z" fill="#9edcae"/></g><g><path d="m135.993 313.667v-90c0-16.569 13.431-30 30-30h-75c-16.569 0-30 13.431-30 30v90c0 16.568 13.431 30 30 30h75c-16.569 0-30-13.432-30-30z" fill="#7fd196"/></g><g><circle cx="376.007" cy="268.667" fill="#fda0c1" r="75"/></g><g><path d="m376.007 268.667c0-27.756 15.089-51.972 37.5-64.941-11.034-6.386-23.834-10.059-37.5-10.059-41.421 0-75 33.579-75 75s33.579 75 75 75c13.666 0 26.466-3.673 37.5-10.059-22.411-12.97-37.5-37.186-37.5-64.941z" fill="#fc90b4"/></g><g><path d="m255.993 7.5c-118.246 0-185.929 62.804-188.752 65.478-8.021 7.595-8.366 20.253-.771 28.273 7.579 8.004 20.201 8.365 28.224.818.343-.317 15.23-13.984 42.367-27.424 25.003-12.383 65.933-27.145 118.932-27.145s93.928 14.762 118.931 27.145c27.32 13.531 42.225 27.292 42.372 27.429 8.021 7.595 20.652 7.223 28.247-.796 7.595-8.021 7.222-20.705-.798-28.3-2.824-2.674-70.507-65.478-188.752-65.478z" fill="#f7f0eb"/></g><g><path d="m255.999 7.5c-11.045.001-19.999 8.955-19.999 20 0 11.046 8.954 20 20 20-.002 0-.005 0-.007 0-52.999 0-93.928 14.762-118.931 27.145-27.137 13.44-42.024 27.107-42.367 27.424-8.023 7.547-20.645 7.186-28.224-.818-7.595-8.02-7.25-20.679.771-28.273 2.822-2.674 70.505-65.478 188.751-65.478z" fill="#efe2dd"/></g><g><g><path d="m381 379.5c0-9.116-4.071-17.276-10.488-22.778 3.823-7.539 4.462-16.636.973-25.058-3.488-8.422-10.372-14.403-18.406-17.03.647-8.428-2.244-17.077-8.69-23.523s-15.095-9.337-23.523-8.69c-2.628-8.034-8.608-14.918-17.03-18.406-8.422-3.489-17.519-2.85-25.058.973-5.502-6.417-13.662-10.488-22.778-10.488s-17.276 4.071-22.778 10.488c-7.539-3.823-16.636-4.462-25.058-.973-8.422 3.488-14.403 10.372-17.03 18.406-8.428-.647-17.077 2.244-23.523 8.69s-9.337 15.095-8.69 23.523c-8.034 2.628-14.918 8.608-18.406 17.03s-2.85 17.519.973 25.058c-6.417 5.502-10.488 13.662-10.488 22.778s4.071 17.276 10.488 22.778c-3.823 7.539-4.462 16.636-.973 25.058s10.372 14.403 18.406 17.03c-.647 8.428 2.244 17.077 8.69 23.523s15.095 9.337 23.523 8.69c2.628 8.034 8.609 14.918 17.03 18.407 8.422 3.488 17.519 2.85 25.058-.973 5.502 6.417 13.662 10.488 22.778 10.488s17.276-4.071 22.778-10.488c7.539 3.823 16.636 4.462 25.058.973 8.422-3.488 14.403-10.372 17.03-18.407 8.428.647 17.077-2.244 23.523-8.69s9.337-15.095 8.69-23.523c8.034-2.628 14.918-8.608 18.406-17.03 3.489-8.422 2.85-17.519-.973-25.058 6.417-5.502 10.488-13.662 10.488-22.778z" fill="#ffcd6e"/></g></g><g><circle cx="256" cy="379.5" fill="#fff2b4" r="75"/></g><g><path d="m256 379.5c0-27.756 15.089-51.972 37.5-64.941-11.034-6.385-23.834-10.059-37.5-10.059-41.421 0-75 33.579-75 75s33.579 75 75 75c13.666 0 26.466-3.673 37.5-10.059-22.411-12.969-37.5-37.185-37.5-64.941z" fill="#ffdf8e"/></g><g><circle cx="256" cy="189.5" fill="#fda0c1" r="25"/></g><g><circle cx="256" cy="106" fill="#9edcae" r="25"/></g><g><circle cx="376.007" cy="135.593" fill="#ffdf8e" r="25"/></g><g><circle cx="135.993" cy="135.593" fill="#b0d8fd" r="25"/></g><g><path d="m458.508 268.667c0-42.961-33.013-78.34-75-82.144v-19.313c14.315-3.396 25-16.278 25-31.617s-10.685-28.221-25-31.617v-16.27c18.483 10.543 28.558 19.746 28.632 19.814 5.296 5.015 12.083 7.5 18.863 7.5 7.295 0 14.582-2.88 19.986-8.586 5.051-5.334 7.718-12.324 7.507-19.681-.21-7.346-3.263-14.172-8.596-19.222-2.059-1.949-21.105-19.525-55.606-36.343-3.722-1.814-8.213-.268-10.028 3.456-1.814 3.723-.268 8.213 3.456 10.028 33.048 16.109 51.113 33.039 51.865 33.751 2.43 2.3 3.819 5.411 3.915 8.759.096 3.344-1.113 6.519-3.404 8.938-4.739 5.004-12.654 5.233-17.665.489-.153-.144-15.629-14.544-44.18-28.685-25.72-12.738-67.806-27.922-122.252-27.924h-.001-.002c-.002 0-.004 0-.006 0-54.449 0-96.539 15.185-122.26 27.924-28.061 13.898-43.491 28.046-44.177 28.682-5.003 4.706-12.916 4.477-17.64-.512-2.295-2.424-3.51-5.597-3.419-8.935.091-3.337 1.477-6.44 3.901-8.736 2.736-2.589 68.295-63.423 183.596-63.423 35.647 0 70.131 5.852 102.496 17.392 3.897 1.392 8.191-.644 9.583-4.545 1.391-3.901-.644-8.192-4.546-9.583-33.986-12.119-70.165-18.264-107.533-18.264-121.209 0-190.998 64.775-193.909 67.532-5.334 5.05-8.381 11.876-8.582 19.219s2.471 14.324 7.522 19.657c10.393 10.976 27.802 11.479 38.762 1.167.119-.11 10.22-9.332 28.706-19.876v16.278c-14.315 3.396-25 16.278-25 31.617s10.685 28.221 25 31.617v18.956h-37.5c-20.678 0-37.5 16.822-37.5 37.5v90c0 20.678 16.822 37.5 37.5 37.5h40.62c.281 1.279.621 2.547 1.037 3.798-5.867 6.773-9.15 15.457-9.15 24.536 0 9.078 3.283 17.762 9.15 24.536-2.829 8.503-2.539 17.782.936 26.17 3.474 8.388 9.83 15.154 17.843 19.167.641 8.938 4.46 17.4 10.88 23.819 6.44 6.44 14.816 10.248 23.82 10.881 4.013 8.012 10.779 14.367 19.166 17.841 4.581 1.897 9.4 2.859 14.325 2.859 4.01 0 8.024-.658 11.842-1.926 6.774 5.868 15.459 9.152 24.539 9.152s17.765-3.284 24.538-9.153c3.818 1.268 7.833 1.926 11.843 1.926 4.925 0 9.744-.962 14.325-2.859 8.388-3.475 15.153-9.83 19.165-17.841 9.004-.634 17.38-4.441 23.821-10.881 6.419-6.42 10.238-14.882 10.879-23.819 8.012-4.013 14.368-10.779 17.842-19.166 3.476-8.388 3.766-17.667.937-26.17 5.867-6.773 9.15-15.458 9.15-24.536 0-9.079-3.283-17.763-9.15-24.536.429-1.29.777-2.599 1.063-3.918 43.449-2.298 78.095-38.368 78.095-82.38zm-15 0c0 35.684-27.839 64.971-62.936 67.328-.475-2.445-1.188-4.858-2.159-7.2-3.474-8.388-9.83-15.154-17.842-19.167-.641-8.938-4.46-17.399-10.88-23.82-6.44-6.44-14.816-10.248-23.82-10.881-3.588-7.166-9.384-12.999-16.568-16.639 5.023-32.802 33.104-57.122 66.705-57.122 37.219.001 67.5 30.281 67.5 67.501zm-187.508-180.167c9.649 0 17.5 7.851 17.5 17.5s-7.851 17.5-17.5 17.5-17.5-7.851-17.5-17.5 7.85-17.5 17.5-17.5zm0 83.5c9.649 0 17.5 7.851 17.5 17.5s-7.851 17.5-17.5 17.5-17.5-7.851-17.5-17.5 7.85-17.5 17.5-17.5zm7.5 49.117c14.315-3.396 25-16.278 25-31.617s-10.685-28.221-25-31.617v-20.266c14.315-3.396 25-16.278 25-31.617s-10.685-28.221-25-31.617v-19.271c45.83 1.246 81.762 13.669 105.008 24.757v24.108c-14.315 3.396-25 16.278-25 31.617s10.685 28.221 25 31.617v19.299c-17.817 1.616-34.627 8.96-47.974 21.091-13.611 12.372-22.609 28.786-25.759 46.712-.795-.051-1.593-.086-2.394-.086-4.01 0-8.024.658-11.843 1.926-4.877-4.225-10.746-7.101-17.038-8.386zm130.008-85.524c0 9.649-7.851 17.5-17.5 17.5s-17.5-7.851-17.5-17.5 7.851-17.5 17.5-17.5 17.5 7.851 17.5 17.5zm-275.015 0c0-9.649 7.851-17.5 17.5-17.5s17.5 7.851 17.5 17.5-7.851 17.5-17.5 17.5-17.5-7.85-17.5-17.5zm25 31.617c14.315-3.396 25-16.278 25-31.617s-10.685-28.221-25-31.617v-24.114c23.249-11.088 59.18-23.507 105.007-24.75v19.272c-14.315 3.396-25 16.278-25 31.617s10.685 28.221 25 31.617v20.266c-14.315 3.396-25 16.278-25 31.617s10.685 28.221 25 31.617v26.65c-6.292 1.285-12.162 4.161-17.039 8.386-3.818-1.268-7.833-1.926-11.842-1.926-.377 0-.751.016-1.126.028v-30.588c0-20.678-16.822-37.5-37.5-37.5h-37.5zm-75 146.457v-90c0-12.407 10.093-22.5 22.5-22.5h90c12.407 0 22.5 10.093 22.5 22.5v34.228c-7.553 3.604-13.643 9.604-17.364 17.033-9.004.633-17.38 4.441-23.82 10.881-6.42 6.419-10.239 14.881-10.88 23.819-8.012 4.012-14.369 10.779-17.843 19.167-.993 2.397-1.717 4.868-2.191 7.372h-40.402c-12.407 0-22.5-10.094-22.5-22.5zm297.137 82.917c-2.624 2.25-3.371 6.002-1.808 9.086 2.98 5.875 3.247 12.726.733 18.795-2.514 6.068-7.547 10.724-13.81 12.772-3.285 1.075-5.411 4.256-5.146 7.703.504 6.568-1.87 13-6.515 17.644-4.245 4.245-9.894 6.583-15.905 6.583-.579 0-1.165-.022-1.741-.067-3.463-.257-6.628 1.862-7.703 5.147-2.047 6.262-6.702 11.295-12.771 13.809-2.751 1.14-5.64 1.718-8.585 1.718-3.52 0-7.05-.848-10.211-2.451-3.082-1.563-6.836-.818-9.086 1.807-4.287 5.001-10.514 7.87-17.082 7.87-6.569 0-12.796-2.869-17.084-7.87-1.463-1.706-3.561-2.619-5.697-2.619-1.15 0-2.311.265-3.389.812-3.162 1.603-6.692 2.451-10.211 2.451-2.945 0-5.833-.578-8.584-1.718-6.069-2.514-10.724-7.547-12.772-13.809-1.074-3.286-4.246-5.406-7.703-5.147-.577.044-1.162.067-1.741.067-6.012 0-11.66-2.337-15.904-6.582-4.645-4.645-7.02-11.077-6.516-17.645.265-3.447-1.861-6.628-5.146-7.703-6.262-2.048-11.295-6.704-13.809-12.772-2.514-6.069-2.247-12.919.733-18.795 1.563-3.083.817-6.836-1.807-9.086-5.001-4.289-7.87-10.516-7.87-17.084 0-6.569 2.869-12.796 7.87-17.084 2.625-2.25 3.371-6.003 1.807-9.086-2.98-5.876-3.247-12.727-.733-18.795 2.514-6.069 7.546-10.724 13.809-12.772 3.286-1.075 5.411-4.256 5.146-7.703-.504-6.568 1.871-13 6.516-17.645 4.245-4.245 9.893-6.583 15.904-6.583.579 0 1.164.022 1.741.067 3.445.261 6.628-1.861 7.703-5.147 2.048-6.262 6.703-11.294 12.772-13.808 2.751-1.14 5.64-1.718 8.584-1.718 3.519 0 7.049.848 10.211 2.451 3.083 1.564 6.835.818 9.086-1.807 4.288-5.001 10.515-7.87 17.084-7.87 6.568 0 12.795 2.869 17.084 7.87 2.25 2.625 6.003 3.371 9.086 1.807 3.161-1.603 6.692-2.451 10.211-2.451 2.945 0 5.833.578 8.585 1.718 6.068 2.514 10.724 7.547 12.771 13.808 1.075 3.285 4.256 5.405 7.703 5.147.576-.044 1.162-.067 1.74-.067 6.012 0 11.661 2.338 15.905 6.583 4.646 4.645 7.02 11.077 6.516 17.645-.266 3.447 1.86 6.628 5.146 7.703 6.262 2.048 11.295 6.703 13.809 12.772 2.514 6.068 2.247 12.919-.733 18.795-1.563 3.083-.816 6.835 1.808 9.086 5.002 4.288 7.87 10.515 7.87 17.084-.001 6.568-2.869 12.795-7.871 17.084z"/><path d="m314.432 331.886c-3.453 2.288-4.398 6.941-2.111 10.395 7.313 11.042 11.18 23.912 11.18 37.22 0 37.22-30.28 67.5-67.5 67.5s-67.5-30.28-67.5-67.5 30.279-67.501 67.499-67.501c13.306 0 26.175 3.865 37.217 11.177 3.454 2.287 8.108 1.341 10.394-2.113 2.287-3.454 1.342-8.107-2.112-10.394-13.506-8.943-29.239-13.67-45.499-13.67-45.491 0-82.5 37.009-82.5 82.5s37.009 82.5 82.5 82.5c45.49 0 82.5-37.009 82.5-82.5 0-16.263-4.729-31.998-13.674-45.503-2.287-3.454-6.94-4.398-10.394-2.111z"/></g></g></svg>