<svg id="Capa_1" enable-background="new 0 0 512 512" height="512" viewBox="0 0 512 512" width="512" xmlns="http://www.w3.org/2000/svg"><g><g><path d="m379.5 217.5c-46.869 0-85-38.131-85-85h-40c0 69.036 55.964 125 125 125z" fill="#dceefe"/></g><g><path d="m254.5 132.5c0 34.518 13.991 65.768 36.612 88.388-7.811-7.811-7.81-20.474 0-28.284 7.81-7.811 20.474-7.811 28.284 0l.028-.028c-15.391-15.391-24.924-36.641-24.924-60.076z" fill="#c4e2fe"/></g><g><path d="m217.109 174.683-49.497-7.071-123.5 123.5 28.284 28.284z" fill="#b0d8fd"/></g><g><g><path d="m337.317 294.891-79.914 79.914c-2.47-66.859-57.44-120.305-124.903-120.305-69.036 0-125 55.964-125 125s55.964 125 125 125c34.518 0 65.768-13.991 88.388-36.612l123.5-123.5zm-204.817 169.609c-46.869 0-85-38.131-85-85s38.131-85 85-85 85 38.131 85 85-38.131 85-85 85z" fill="#dceefe"/></g></g><g><path d="m504.495 131.412c-.577-67.867-56.04-123.33-123.908-123.908-34.949-.297-66.618 13.749-89.476 36.607l-123.5 123.5c27.352 27.352 71.699 27.352 99.051 0l73.974-73.974c10.407-10.406 24.209-16.137 38.864-16.137s28.457 5.731 38.863 16.137 16.137 24.208 16.137 38.863-5.73 28.457-16.137 38.863l-73.974 73.974c-27.352 27.352-27.352 71.699 0 99.051l123.5-123.5c22.857-22.857 36.904-54.527 36.606-89.476z" fill="#fda0c1"/></g><g><path d="m418.363 44.225c13.645-13.645 35.768-13.645 49.412 0-22.421-22.421-53.254-36.431-87.187-36.72-34.949-.297-66.618 13.749-89.476 36.607l-123.5 123.5c27.352 27.352 71.699 27.352 99.051 0l73.974-73.974c10.406-10.407 24.208-16.138 38.863-16.138s28.457 5.731 38.863 16.137c-13.645-13.645-13.645-35.767 0-49.412z" fill="#fc90b4"/></g><g><path d="m7.5 379.5c0 34.517 13.991 65.767 36.611 88.387-7.809-7.811-7.809-20.473.001-28.283s20.474-7.81 28.284 0l.028-.028c-15.391-15.391-24.924-36.641-24.924-60.076 0-46.869 38.131-85 85-85 23.435 0 44.685 9.533 60.076 24.924l.028-.028c-7.811-7.81-7.81-20.474 0-28.284 7.811-7.81 20.474-7.81 28.284 0-22.62-22.621-53.87-36.612-88.388-36.612-69.036 0-125 55.964-125 125z" fill="#c4e2fe"/></g><g><path d="m132.5 287c-51.005 0-92.5 41.495-92.5 92.5 0 44.871 32.038 83.166 76.18 91.058 4.084.73 7.975-1.985 8.703-6.063.729-4.077-1.985-7.974-6.063-8.703-36.98-6.612-63.82-38.697-63.82-76.292 0-42.734 34.767-77.5 77.5-77.5s77.5 34.766 77.5 77.5c0 37.595-26.84 69.68-63.82 76.292-4.077.729-6.792 4.625-6.063 8.703.649 3.631 3.81 6.182 7.374 6.182.438 0 .883-.039 1.329-.119 44.142-7.892 76.18-46.187 76.18-91.058 0-51.005-41.495-92.5-92.5-92.5z"/><path d="m380.651.005c-.388-.003-.776-.005-1.165-.005-35.396 0-68.625 13.755-93.679 38.809l-242.75 242.75c-.36.36-.675.748-.946 1.156-25.895 24.199-42.111 58.631-42.111 96.785 0 73.061 59.439 132.5 132.5 132.5 35.392 0 68.665-13.782 93.692-38.809l247-247c25.327-25.328 39.107-59.011 38.803-94.843-.611-71.811-59.531-130.732-131.344-131.343zm-212.785 177.959c6.768 5.59 14.348 9.924 22.45 12.905l-56.151 56.151c-.555-.007-1.109-.02-1.665-.02-13.852 0-27.212 2.141-39.772 6.102zm121.94-22.889c4.097 16.179 12.58 31.153 24.547 43.036 11.811 11.728 26.612 20.031 42.58 24.074l-17.849 17.849c-.679.679-1.328 1.378-1.978 2.077-30.91-11.953-55.256-36.295-67.217-67.218.699-.65 1.398-1.299 2.076-1.978zm-32.287 29.224c13.431 31.647 38.545 56.76 70.179 70.185-7.372 12.04-11.324 25.903-11.324 40.378 0 3.284.226 6.532.625 9.739l-53.694 53.695c-4.514-28.133-17.96-54.008-38.771-74.11-19.671-19.002-44.281-31.231-70.829-35.492l53.693-53.693c3.207.4 6.454.625 9.738.625 14.478 0 28.342-3.953 40.383-11.327zm-41.933 278.286c-22.194 22.193-51.701 34.415-83.086 34.415-64.79 0-117.5-52.71-117.5-117.5s52.71-117.5 117.5-117.5c63.493 0 115.065 49.671 117.408 113.082.11 2.981 1.977 5.614 4.754 6.704 2.777 1.092 5.936.431 8.045-1.678l58.424-58.424c2.981 8.102 7.316 15.682 12.905 22.45zm246.999-247-117.884 117.884c-8.64-10.969-13.327-24.428-13.327-38.606 0-16.705 6.506-32.41 18.318-44.222l73.975-73.975c11.822-11.822 18.333-27.508 18.333-44.166s-6.511-32.344-18.334-44.167c-11.823-11.822-27.509-18.333-44.166-18.333-16.658 0-32.344 6.511-44.167 18.334l-1.813 1.813c-2.929 2.929-2.929 7.678 0 10.606 2.93 2.929 7.678 2.929 10.607 0l1.813-1.813c8.99-8.989 20.909-13.94 33.56-13.94s24.569 4.951 33.56 13.94c8.99 8.989 13.94 20.908 13.94 33.56s-4.951 24.57-13.941 33.56l-43.312 43.312c-34.727-4.392-62.731-32.346-67.122-67.115l20.291-20.291c2.929-2.929 2.929-7.678 0-10.606s-7.677-2.93-10.607 0l-50.949 50.949c-11.812 11.812-27.517 18.317-44.222 18.317-14.178 0-27.637-4.687-38.606-13.327l117.883-117.884c22.461-22.46 52.322-34.649 84.109-34.411 63.681.542 115.93 52.791 116.471 116.472.272 31.778-11.949 61.649-34.41 84.109z"/></g></g></svg>