<svg id="Capa_1" enable-background="new 0 0 512 512" height="512" viewBox="0 0 512 512" width="512" xmlns="http://www.w3.org/2000/svg"><g><g><path d="m95.169 310.702h151.929v60h-151.929z" fill="#f7f0eb" transform="matrix(.707 -.707 .707 .707 -190.789 220.799)"/></g><g><path d="m159.112 352.723c-11.716-11.716-11.716-30.711 0-42.426l-62.907 62.907 42.426 42.426 62.907-62.907c-11.715 11.715-30.71 11.715-42.426 0z" fill="#efe2dd"/></g><g><path d="m346.648 306.608-141.422-141.421-7.071 7.071c-39.052 39.052-39.052 102.369 0 141.421 39.052 39.052 102.369 39.052 141.421 0z" fill="#ffdf8e"/></g><g><path d="m198.155 263.475c13.864-13.864 36.341-13.864 50.205 0l27.595-27.559-70.729-70.729-7.071 7.071c-39.052 39.052-39.052 102.369 0 141.421-13.863-13.863-13.863-36.341 0-50.204z" fill="#ffcd6e"/></g><g><path d="m354.331 157.419c36.609 15.69 67.418 42.4 88.139 76.414l18.113 29.732c58.579-58.579 58.579-153.553 0-212.132s-153.553-58.579-212.132 0c-.089.089-.175.181-.264.271l18.384 29.921c20.722 33.725 51.38 60.203 87.76 75.794z" fill="#9ccefd"/></g><g><path d="m354.518 157.5c39.259-39.259 94.864-52.202 144.906-38.84-6.576-24.627-19.52-47.906-38.84-67.226-58.579-58.579-153.553-58.579-212.132 0-.089.089-.175.181-.264.271l18.384 29.921c20.721 33.724 51.379 60.202 87.759 75.794.062.027.123.055.185.081z" fill="#72bafd"/></g><g><path d="m248.452 263.566c58.579 58.579 153.553 58.579 212.132 0l-18.113-29.732c-20.722-34.015-51.53-60.725-88.139-76.414-36.381-15.592-67.039-42.07-87.759-75.794l-18.384-29.921c-58.312 58.6-58.227 153.372.263 211.861z" fill="#9edcae"/></g><g><path d="m315.678 302.406c-13.363-50.041-.419-105.646 38.839-144.905-.062-.027-.123-.055-.185-.081-36.381-15.592-67.039-42.07-87.759-75.794l-18.384-29.921c-58.311 58.6-58.225 153.372.264 211.861 19.318 19.32 42.598 32.264 67.225 38.84z" fill="#7fd196"/></g><g><g><path d="m135.55 376.467c-29.289-29.289-76.777-29.289-106.066 0s-29.289 76.777 0 106.066 76.777 29.289 106.066 0 29.29-76.777 0-106.066zm-28.283 77.782c-6.611 6.611-15.4 10.251-24.749 10.251s-18.138-3.641-24.749-10.251c-13.646-13.646-13.646-35.851 0-49.498 6.61-6.61 15.4-10.251 24.749-10.251s18.139 3.641 24.749 10.251c13.646 13.647 13.646 35.851 0 49.498z" fill="#f7f0eb"/></g></g><g><path d="m29.485 482.533c-7.811-7.811-7.811-20.474 0-28.284 7.81-7.81 20.471-7.81 28.282-.002-13.644-13.647-13.644-35.849.002-49.495 6.61-6.61 15.4-10.251 24.749-10.251 9.347 0 18.136 3.64 24.746 10.248-7.808-7.811-7.807-20.472.003-28.281 7.811-7.811 20.474-7.81 28.284 0-29.289-29.289-76.777-29.289-106.066 0-29.29 29.288-29.29 76.776 0 106.065z" fill="#efe2dd"/></g><g><path d="m424.756 167.398c-24.996-24.996-48.858-27.648-68.032-29.778-16.888-1.877-29.09-3.232-44.164-18.306-15.073-15.073-16.429-27.275-18.305-44.162-1.553-13.978-3.393-30.45-13.957-48.034-11.395 6.495-22.125 14.594-31.847 24.317-.089.089-.175.181-.264.271 4.179 8.687 5.146 17.371 6.312 27.864 2.13 19.173 4.781 43.035 29.776 68.03s48.857 27.647 68.031 29.778c16.888 1.877 29.09 3.232 44.164 18.307 15.074 15.074 16.43 27.276 18.306 44.164 1.553 13.979 3.395 30.451 13.959 48.036 11.395-6.495 22.125-14.594 31.848-24.317.089-.089.174-.181.263-.27-4.18-8.688-5.147-17.373-6.313-27.867-2.131-19.175-4.782-43.037-29.777-68.033z" fill="#dceefe"/></g><g><path d="m254.5 79.568c2.13 19.173 4.781 43.035 29.776 68.03 19.506 19.506 38.322 25.404 54.758 28.067 4.607-6.355 9.757-12.438 15.484-18.165 6.461-6.461 13.372-12.195 20.621-17.23-6.495-1.32-12.667-2.011-18.415-2.65-16.888-1.877-29.09-3.232-44.164-18.306-15.073-15.073-16.429-27.275-18.305-44.162-1.553-13.978-3.393-30.45-13.957-48.034-11.395 6.495-22.125 14.594-31.847 24.317-.089.089-.175.181-.264.271 4.18 8.686 5.147 17.37 6.313 27.862z" fill="#c4e2fe"/></g><g><g><g><ellipse cx="362.841" cy="56.203" fill="#fff" rx="19.318" ry="24.258" transform="matrix(.707 -.707 .707 .707 66.533 273.03)"/></g><g><ellipse cx="455.814" cy="149.177" fill="#fff" rx="19.318" ry="24.258" transform="matrix(.707 -.707 .707 .707 28.02 366)"/></g></g><g><path d="m385.986 60.55c-1.919 0-3.839-.732-5.304-2.197-2.929-2.929-2.929-7.678 0-10.606l7.012-7.012c2.93-2.929 7.678-2.929 10.607 0s2.929 7.678 0 10.606l-7.012 7.012c-1.464 1.465-3.384 2.197-5.303 2.197z"/></g><g><path d="m458.967 133.531c-1.919 0-3.839-.732-5.303-2.196-2.93-2.929-2.93-7.678-.001-10.607l7.012-7.012c2.93-2.929 7.679-2.929 10.606 0 2.93 2.929 2.93 7.678.001 10.607l-7.012 7.012c-1.464 1.464-3.384 2.196-5.303 2.196z"/></g><g><path d="m431.063 106.495c-6.756 0-13.259-2.672-18.063-7.477-5.221-5.222-7.924-12.446-7.416-19.822.285-4.132 3.867-7.24 7.997-6.967 4.133.285 7.252 3.865 6.968 7.998-.21 3.048.905 6.031 3.059 8.186 2.152 2.153 5.133 3.267 8.186 3.058 4.14-.292 7.713 2.836 7.996 6.969s-2.837 7.712-6.969 7.996c-.589.039-1.175.059-1.758.059z"/></g></g><g><path d="m465.888 46.131c-29.748-29.748-69.301-46.131-111.37-46.131s-81.622 16.383-111.384 46.145l-.263.27c-29.615 29.763-45.899 69.279-45.852 111.271.002 1.674.039 3.343.093 5.009l-4.261 4.261c-20.304 20.304-31.485 47.299-31.485 76.014 0 15.706 3.353 30.895 9.707 44.76l-63.233 63.234c-8.078-2.597-16.593-3.964-25.322-3.964-22.037 0-42.755 8.582-58.337 24.164-32.166 32.167-32.166 84.506 0 116.673 15.582 15.581 36.299 24.163 58.337 24.163 22.036 0 42.754-8.582 58.337-24.164 22.657-22.658 29.332-55.317 20.07-83.892l63.182-63.182c13.864 6.354 29.053 9.707 44.759 9.707 28.714 0 55.71-11.182 76.013-31.485l4.091-4.09c1.845.063 3.693.107 5.548.107 42.069 0 81.622-16.383 111.37-46.131 61.408-61.41 61.408-161.33 0-222.739zm-10.608 10.606c52.493 52.493 55.381 136.084 8.683 192.012-.867-4.288-1.393-8.9-1.976-14.149-2.142-19.266-5.073-45.65-31.928-72.505-26.856-26.856-53.241-29.788-72.508-31.929-16.51-1.834-26.475-2.942-39.688-16.155s-14.32-23.178-16.154-39.687c-1.387-12.494-3.106-27.783-11.24-44.199 19.623-9.892 41.434-15.125 64.049-15.125 38.063 0 73.848 14.823 100.762 41.737zm-325.033 420.493c-12.749 12.749-29.7 19.77-47.729 19.77-18.03 0-34.981-7.021-47.729-19.77-26.318-26.318-26.318-69.142 0-95.46 12.747-12.749 29.698-19.77 47.729-19.77 18.029 0 34.98 7.021 47.729 19.77 26.318 26.318 26.318 69.142 0 95.46zm24.228-88.05c-3.614-6.455-8.139-12.534-13.621-18.016-5.49-5.49-11.629-10.091-18.227-13.774l55.979-55.98c4.077 6.269 8.834 12.161 14.246 17.573 5.413 5.412 11.304 10.17 17.574 14.247zm114.391-53.711c-24.708 0-47.937-9.622-65.407-27.092-17.472-17.471-27.093-40.7-27.093-65.408 0-22.494 7.998-43.747 22.611-60.561 5.151 32.606 20.384 62.675 44.171 86.461 23.71 23.71 53.651 38.918 86.128 44.12-16.791 14.529-37.983 22.48-60.41 22.48zm-15.111-77.206c-52.439-52.439-55.352-136.087-8.685-192.002.868 4.294 1.395 8.908 1.976 14.136 2.14 19.265 5.071 45.649 31.927 72.505 26.855 26.855 53.239 29.787 72.506 31.928 9.676 1.075 17.318 1.924 24.589 5.216 1.004.455 2.055.67 3.089.67 2.854 0 5.583-1.639 6.837-4.408 1.709-3.773.035-8.217-3.738-9.926-9.438-4.273-18.559-5.287-29.121-6.46-18.946-2.105-40.42-4.492-63.555-27.626-23.135-23.135-25.521-44.608-27.625-63.556-1.012-9.107-1.904-17.126-4.868-25.217 6.354-5.963 13.162-11.28 20.345-15.919 6.617 13.747 8.079 26.758 9.37 38.376 1.89 17.011 3.521 31.703 20.456 48.637s31.626 18.567 48.64 20.457c18.946 2.106 40.421 4.492 63.556 27.627 23.135 23.134 25.521 44.609 27.627 63.556 1.014 9.124 1.91 17.12 4.875 25.215-6.355 5.965-13.166 11.284-20.352 15.924-6.618-13.747-8.079-26.756-9.371-38.379-1.633-14.701-3.044-27.397-13.893-41.271-2.551-3.263-7.266-3.84-10.528-1.289s-3.84 7.265-1.288 10.528c8.227 10.521 9.251 19.738 10.801 33.688 1.39 12.503 3.111 27.786 11.244 44.199-19.626 9.895-41.436 15.128-64.051 15.128-38.064 0-73.849-14.823-100.763-41.737z"/><path d="m82.518 387c-11.353 0-22.025 4.421-30.053 12.448-16.57 16.571-16.57 43.533.001 60.104 3.469 3.468 7.448 6.282 11.828 8.363 3.74 1.777 8.215.187 9.993-3.556 1.777-3.742.186-8.215-3.556-9.993-2.828-1.344-5.405-3.168-7.659-5.421-10.723-10.722-10.723-28.169 0-38.891 5.193-5.194 12.1-8.054 19.445-8.054s14.252 2.86 19.445 8.054c10.723 10.722 10.723 28.169 0 38.891-2.254 2.254-4.832 4.079-7.662 5.423-3.742 1.777-5.335 6.25-3.559 9.992 1.284 2.703 3.975 4.285 6.78 4.285 1.078 0 2.174-.234 3.212-.727 4.384-2.082 8.365-4.896 11.836-8.366 16.57-16.571 16.57-43.533 0-60.104-8.026-8.027-18.699-12.448-30.051-12.448z"/></g></g></svg>