<svg id="Capa_1" enable-background="new 0 0 512 512" height="512" viewBox="0 0 512 512" width="512" xmlns="http://www.w3.org/2000/svg"><g><g><path d="m256 54.5c-124.264 0-225 100.736-225 225 0 81.175 42.992 152.301 107.444 191.873l58.62-37.763c-61.96-23.776-106.064-83.884-106.064-154.11 0-90.981 74.019-165 165-165s165 74.019 165 165c0 70.225-44.104 130.334-106.063 154.11l58.62 37.763c64.451-39.573 107.443-110.699 107.443-191.873 0-124.264-100.736-225-225-225z" fill="#dceefe"/></g><g><g><path d="m138.444 471.373 58.62-37.763c-42.235-16.207-76.168-49.299-93.496-90.967h-.008c6.341 15.307-.929 32.856-16.236 39.197s-32.856-.928-39.197-16.236v.141c18.28 44.002 50.125 80.951 90.317 105.628z" fill="#c4e2fe"/></g><g><path d="m463.873 365.604c-6.34 15.307-23.89 22.576-39.197 16.236s-22.576-23.89-16.236-39.197h-.008c-17.328 41.668-51.26 74.76-93.495 90.967l58.62 37.763c40.191-24.677 72.036-61.626 90.316-105.629z" fill="#c4e2fe"/></g></g><g><circle cx="256" cy="82.5" fill="#fda0c1" r="75"/></g><g><circle cx="429.5" cy="195.167" fill="#b0d8fd" r="75"/></g><g><path d="m429.5 195.167c0-27.756 15.089-51.972 37.5-64.941-11.034-6.385-23.834-10.059-37.5-10.059-41.421 0-75 33.579-75 75s33.579 75 75 75c13.666 0 26.466-3.673 37.5-10.059-22.411-12.969-37.5-37.186-37.5-64.941z" fill="#9ccefd"/></g><g><circle cx="82.5" cy="195.167" fill="#9edcae" r="75"/></g><g><path d="m82.5 195.167c0-27.756 15.089-51.972 37.5-64.941-11.034-6.385-23.834-10.059-37.5-10.059-41.421 0-75 33.579-75 75s33.579 75 75 75c13.666 0 26.466-3.673 37.5-10.059-22.411-12.969-37.5-37.186-37.5-64.941z" fill="#7fd196"/></g><g><path d="m256 82.5c0-27.756 15.089-51.972 37.5-64.941-11.034-6.386-23.834-10.059-37.5-10.059-41.421 0-75 33.579-75 75s33.579 75 75 75c13.666 0 26.466-3.673 37.5-10.059-22.411-12.969-37.5-37.185-37.5-64.941z" fill="#fc90b4"/></g><g><path d="m373.563 471.369-21.911-32.498c-12.104-17.953-34.414-26.166-55.204-20.114-12.842 3.738-26.415 5.743-40.448 5.743s-27.606-2.005-40.448-5.743c-20.79-6.051-43.1 2.161-55.204 20.114l-21.911 32.498c34.214 21.008 74.471 33.131 117.563 33.131s83.349-12.123 117.563-33.131z" fill="#ffdf8e"/></g><g><path d="m216 464.5c0-22.091 17.909-40 40-40-14.033 0-27.606-2.005-40.448-5.743-20.79-6.051-43.1 2.161-55.204 20.115l-21.911 32.498c34.214 21.007 74.471 33.13 117.563 33.13-22.091 0-40-17.909-40-40z" fill="#ffcd6e"/></g><path d="m512 195.167c0-45.491-37.009-82.5-82.5-82.5-3.676 0-7.29.266-10.84.735-23.567-23.073-52.181-41.125-83.012-52.376-9.477-35.109-41.585-61.026-79.648-61.026s-70.171 25.917-79.647 61.025c-30.833 11.251-59.446 29.303-83.012 52.376-3.551-.469-7.164-.735-10.84-.735-45.491 0-82.5 37.009-82.5 82.5 0 23.089 9.546 43.98 24.883 58.969-.908 8.375-1.383 16.898-1.383 25.364 0 40.473 10.562 80.33 30.542 115.261 19.375 33.871 47.203 62.573 80.477 83.003.001.001.002.001.003.002 16.999 10.437 35.272 18.639 54.311 24.377 3.966 1.194 8.149-1.051 9.345-5.017 1.195-3.966-1.051-8.15-5.017-9.345-15.313-4.615-30.098-10.936-44.052-18.826l17.457-25.892c10.367-15.377 29.209-22.254 46.889-17.106 13.774 4.011 28.088 6.044 42.544 6.044s28.77-2.033 42.544-6.042c17.677-5.147 36.521 1.729 46.889 17.106l17.457 25.891c-32.505 18.371-69.291 28.045-106.89 28.045-11.342 0-22.729-.881-33.843-2.618-4.093-.633-7.928 2.16-8.568 6.252s2.16 7.929 6.252 8.568c11.878 1.857 24.043 2.798 36.159 2.798 42.994 0 84.999-11.838 121.477-34.233.002-.001.003-.001.005-.002 33.274-20.43 61.102-49.132 80.477-83.003 19.98-34.932 30.542-74.788 30.542-115.261 0-8.465-.475-16.988-1.384-25.364 15.337-14.99 24.883-35.882 24.883-58.97zm-110.729-77.523c-14.897 5.441-27.788 15.07-37.27 27.443-11.082-8.925-23.152-16.412-36.022-22.341 6.688-11.914 10.521-25.638 10.521-40.246 0-1.454-.04-2.899-.115-4.335 22.926 9.414 44.353 22.861 62.886 39.479zm-145.271-102.644c37.22 0 67.5 30.28 67.5 67.5s-30.28 67.5-67.5 67.5-67.5-30.28-67.5-67.5 30.28-67.5 67.5-67.5zm-82.385 63.165c-.075 1.436-.115 2.881-.115 4.335 0 14.608 3.833 28.331 10.521 40.245-12.874 5.93-24.943 13.414-36.023 22.339-9.483-12.372-22.372-21.999-37.269-27.441 18.532-16.616 39.959-30.064 62.886-39.478zm-158.615 117.002c0-37.22 30.28-67.5 67.5-67.5s67.5 30.28 67.5 67.5-30.28 67.5-67.5 67.5-67.5-30.281-67.5-67.5zm139.129 239.511-17.828 26.443c-61.379-40.448-97.801-107.812-97.801-181.621 0-4.759.173-9.534.481-14.29 12.643 7.884 27.554 12.456 43.519 12.456.343 0 .68-.022 1.022-.026-.007.62-.022 1.241-.022 1.859 0 58.603 30.178 113.386 79.294 145.055-3.211 2.983-6.128 6.362-8.665 10.124zm140.223-23.123c-12.412 3.613-25.315 5.445-38.352 5.445s-25.94-1.832-38.352-5.445c-14.154-4.12-28.848-2.563-41.399 3.685-47.996-28.31-77.749-80.147-77.749-135.74 0-1.134.016-2.274.04-3.411 37.838-7.487 66.46-40.92 66.46-80.922 0-13.416-3.24-26.082-8.946-37.291 11.16-9.193 23.442-16.765 36.617-22.572 15.146 18.134 37.91 29.696 63.329 29.696s48.183-11.562 63.329-29.696c13.171 5.805 25.456 13.377 36.618 22.57-5.707 11.209-8.947 23.876-8.947 37.293 0 16.261 4.727 31.994 13.67 45.498 2.287 3.454 6.94 4.4 10.394 2.112 3.454-2.287 4.399-6.94 2.112-10.394-7.311-11.042-11.176-23.911-11.176-37.216 0-37.22 30.28-67.5 67.5-67.5s67.5 30.28 67.5 67.5-30.28 67.5-67.5 67.5c-13.385 0-26.319-3.908-37.402-11.3-3.446-2.3-8.103-1.369-10.401 2.078-2.299 3.446-1.369 8.103 2.078 10.401 9.057 6.041 19.123 10.168 29.683 12.25.024 1.137.043 2.274.043 3.406 0 55.621-29.746 107.427-77.752 135.74-12.552-6.248-27.246-7.805-41.397-3.687zm179.148-132.055c0 73.809-36.422 141.173-97.801 181.621l-17.828-26.443c-2.536-3.762-5.453-7.142-8.664-10.123 49.123-31.669 79.293-86.423 79.293-145.055 0-.615-.017-1.235-.023-1.852.341.004.681.019 1.023.019 15.965 0 30.876-4.572 43.519-12.456.308 4.755.481 9.531.481 14.289z"/></g></svg>