<svg id="Capa_1" enable-background="new 0 0 512 512" height="512" viewBox="0 0 512 512" width="512" xmlns="http://www.w3.org/2000/svg"><g><g><path d="m463.083 7.5c-22.874 0-41.417 18.543-41.417 41.417 0-22.874-18.543-41.417-41.417-41.417-22.874 0-41.417 18.543-41.417 41.417 0-22.874-18.543-41.417-41.417-41.417-22.872 0-41.415 18.543-41.415 41.417 0-22.874-18.543-41.417-41.417-41.417-22.874 0-41.417 18.543-41.417 41.417 0-22.874-18.543-41.417-41.417-41.417-22.874 0-41.417 18.543-41.417 41.417.001-22.874-18.542-41.417-41.415-41.417-22.874 0-41.417 18.543-41.417 41.417v27.083l248.5 80 248.5-80v-27.083c0-22.874-18.543-41.417-41.417-41.417z" fill="#c4e2fe"/></g><g><g><path d="m131.75 48.917c0-15.327 8.333-28.7 20.708-35.862-6.093-3.527-13.161-5.555-20.708-5.555-22.874 0-41.417 18.543-41.417 41.417 0-22.874-18.542-41.417-41.416-41.417-22.874 0-41.417 18.543-41.417 41.417v27.083l124.25 40z" fill="#b0d8fd"/></g></g><g><path d="m329.5 493.446 175-237.446v-180h-497v180l175 237.446c23.229 7.182 47.912 11.054 73.5 11.054 25.588 0 50.271-3.872 73.5-11.054z" fill="#dceefe"/></g><g><g><g><ellipse cx="176.355" cy="164.269" fill="#fda0c1" rx="29.387" ry="23.403"/></g><g><ellipse cx="335.645" cy="164.269" fill="#fda0c1" rx="29.387" ry="23.403"/></g><g><path d="m279.694 146.288c0-14.643-10.608-16.019-23.693-16.019-13.086 0-23.694 1.376-23.694 16.019s10.608 26.513 23.694 26.513c13.085 0 23.693-11.871 23.693-26.513z" fill="#6e6e6e"/></g></g><g><path d="m181.268 143.829c-4.143 0-7.5-3.358-7.5-7.5v-12c0-4.142 3.357-7.5 7.5-7.5s7.5 3.358 7.5 7.5v12c0 4.142-3.358 7.5-7.5 7.5z"/></g><g><path d="m256 180.3c-17.2 0-31.193-15.258-31.193-34.013 0-23.519 21.859-23.519 31.193-23.519s31.193 0 31.193 23.519c0 18.755-13.993 34.013-31.193 34.013zm0-42.531c-15.538 0-16.193 2.611-16.193 8.519 0 10.484 7.265 19.013 16.193 19.013s16.193-8.529 16.193-19.013c0-5.908-.655-8.519-16.193-8.519z"/></g><g><path d="m330.732 143.829c-4.143 0-7.5-3.358-7.5-7.5v-12c0-4.142 3.357-7.5 7.5-7.5s7.5 3.358 7.5 7.5v12c0 4.142-3.357 7.5-7.5 7.5z"/></g></g><g><path d="m367.731 441.573c-12.463 1.924-25.229 2.927-38.231 2.927-137.243 0-248.5-111.257-248.5-248.5v-120h-73.5v180l175 237.446c23.229 7.182 47.912 11.054 73.5 11.054 25.588 0 50.271-3.872 73.5-11.054z" fill="#c4e2fe"/></g><g><path d="m504.5 256c-96.65 0-175 78.35-175 175v62.446c101.36-31.34 175-125.791 175-237.446z" fill="#c4e2fe"/></g><g><path d="m182.5 493.446v-62.446c0-96.65-78.35-175-175-175 0 111.655 73.64 206.106 175 237.446z" fill="#b0d8fd"/></g><g><path d="m82.5 116h-75v80h75c22.091 0 40-17.909 40-40 0-22.091-17.909-40-40-40z" fill="#b0d8fd"/></g><g><path d="m7.5 116h73.5v80h-73.5z" fill="#9ccefd"/></g><g><path d="m429.5 196h75v-80h-75c-22.091 0-40 17.909-40 40 0 22.092 17.909 40 40 40z" fill="#b0d8fd"/></g><g><path d="m447 156c0-22.091 17.909-40 40-40h-57.5c-22.091 0-40 17.909-40 40 0 22.091 17.909 40 40 40h57.5c-22.091 0-40-17.908-40-40z" fill="#9ccefd"/></g><path d="m512 48.917c0-26.973-21.944-48.917-48.917-48.917-17.424 0-32.749 9.157-41.416 22.912-8.667-13.755-23.992-22.912-41.417-22.912s-32.75 9.157-41.417 22.912c-8.667-13.755-23.992-22.912-41.416-22.912-17.425 0-32.75 9.157-41.417 22.912-8.667-13.755-23.992-22.912-41.417-22.912-17.424 0-32.749 9.157-41.416 22.912-8.667-13.755-23.992-22.912-41.417-22.912s-32.75 9.157-41.417 22.912c-8.667-13.755-23.992-22.912-41.416-22.912-26.973 0-48.917 21.944-48.917 48.917v25.083c0 .34.031.672.074 1-.043.328-.074.66-.074 1v180c0 55.789 17.631 108.812 50.987 153.337 32.251 43.05 78.17 75.465 129.297 91.273 24.442 7.558 49.916 11.39 75.716 11.39s51.274-3.832 75.716-11.389c51.127-15.808 97.046-48.223 129.297-91.273 33.356-44.526 50.987-97.549 50.987-153.338v-180c0-.34-.031-.672-.074-1 .044-.328.074-.66.074-1zm-15 139.583h-67.5c-17.921 0-32.5-14.58-32.5-32.5s14.579-32.5 32.5-32.5h67.5zm-482-65h67.5c17.921 0 32.5 14.58 32.5 32.5s-14.579 32.5-32.5 32.5h-67.5zm175 364.34v-56.84c0-35.554-10.231-70.014-29.588-99.657-2.266-3.469-6.91-4.444-10.38-2.179-3.468 2.265-4.444 6.912-2.179 10.38 17.759 27.198 27.147 58.823 27.147 91.456v52.051c-93.726-33.293-156.78-119.677-159.869-219.374 44.013 1.954 84.649 20.689 114.879 53.096 1.478 1.583 3.479 2.384 5.486 2.384 1.832 0 3.669-.667 5.114-2.016 3.028-2.825 3.193-7.571.368-10.6-33.121-35.507-77.709-55.955-125.978-57.888v-45.153h67.5c26.191 0 47.5-21.309 47.5-47.5s-21.309-47.5-47.5-47.5h-67.5v-25h300.732c4.143 0 7.5-3.358 7.5-7.5s-3.357-7.5-7.5-7.5h-300.732v-19.583c0-18.702 15.215-33.917 33.917-33.917 18.701 0 33.916 15.215 33.916 33.917 0 4.142 3.357 7.5 7.5 7.5s7.5-3.358 7.5-7.5c0-18.702 15.215-33.917 33.917-33.917s33.917 15.215 33.917 33.917c0 4.142 3.357 7.5 7.5 7.5s7.5-3.358 7.5-7.5c0-18.702 15.215-33.917 33.916-33.917 18.702 0 33.917 15.215 33.917 33.917 0 4.142 3.357 7.5 7.5 7.5s7.5-3.358 7.5-7.5c0-18.702 15.215-33.917 33.917-33.917 18.701 0 33.916 15.215 33.916 33.917 0 4.142 3.357 7.5 7.5 7.5s7.5-3.358 7.5-7.5c0-18.702 15.215-33.917 33.917-33.917s33.917 15.215 33.917 33.917c0 4.142 3.357 7.5 7.5 7.5s7.5-3.358 7.5-7.5c0-18.702 15.215-33.917 33.916-33.917 18.702 0 33.917 15.215 33.917 33.917v19.583h-151.268c-4.143 0-7.5 3.358-7.5 7.5s3.357 7.5 7.5 7.5h151.268v25h-67.5c-26.191 0-47.5 21.309-47.5 47.5s21.309 47.5 47.5 47.5h67.5v45.153c-46.402 1.87-89.743 21.026-122.484 54.244-33.866 34.36-52.516 79.854-52.516 128.103v56.84c-21.384 6.076-43.558 9.16-66 9.16s-44.616-3.084-66-9.16zm147-4.789v-52.051c0-89.276 71.265-163.302 159.869-167.32-3.09 99.696-66.145 186.079-159.869 219.371z"/></g></svg>