<svg id="Capa_1" enable-background="new 0 0 511.989 511.989" height="512" viewBox="0 0 511.989 511.989" width="512" xmlns="http://www.w3.org/2000/svg"><g><g><path d="m295.867 29.176c0 7.532 3.96 14.453 10.347 18.445 29.697 18.562 49.653 56.829 49.653 93.698 0 55.229-44.771 100-100 100s-100-44.771-100-100c0-36.869 19.956-75.136 49.653-93.698 6.387-3.992 10.347-10.913 10.347-18.445 0-15.695-16.237-26.255-30.506-19.719-102.901 47.138-177.994 194.505-177.994 307.256 0 137.243 111.257 187.776 248.5 187.776s248.5-50.533 248.5-187.776c0-112.751-75.093-260.119-177.994-307.256-14.269-6.536-30.506 4.023-30.506 19.719z" fill="#fda0c1"/></g><g><path d="m265.233 303.726 16.112 32.646c1.521 3.082 4.462 5.219 7.864 5.713l36.027 5.235c8.566 1.245 11.987 11.772 5.788 17.814l-26.069 25.411c-2.461 2.399-3.585 5.856-3.004 9.244l6.154 35.882c1.463 8.532-7.492 15.038-15.154 11.01l-32.224-16.941c-3.043-1.6-6.677-1.6-9.72 0l-32.224 16.941c-7.662 4.028-16.617-2.478-15.154-11.01l6.154-35.882c.581-3.388-.542-6.845-3.004-9.244l-26.069-25.411c-6.199-6.042-2.778-16.569 5.788-17.814l36.027-5.235c3.402-.494 6.342-2.631 7.864-5.713l16.112-32.646c3.832-7.763 14.901-7.763 18.732 0z" fill="#fff2b4"/></g><g><path d="m301.95 399.79c-.169-.986-.177-1.976-.067-2.946-35.498-.242-65.367-24.097-74.72-56.645-1.351.981-2.936 1.639-4.637 1.886l-36.027 5.235c-8.566 1.245-11.987 11.772-5.788 17.814l26.069 25.412c2.462 2.399 3.585 5.856 3.004 9.244l-6.154 35.882c-1.463 8.532 7.492 15.038 15.153 11.01l32.224-16.941c3.043-1.6 6.677-1.6 9.72 0l32.224 16.941c7.662 4.028 16.617-2.478 15.154-11.01z" fill="#ffdf8e"/></g><g><path d="m124.282 372.904c0-72.673 58.913-131.585 131.585-131.585-55.229 0-100-44.771-100-100 0-36.869 19.956-75.136 49.653-93.698 6.387-3.992 10.347-10.913 10.347-18.445 0-15.695-16.237-26.255-30.506-19.719-102.901 47.138-177.994 194.505-177.994 307.256 0 137.243 111.257 187.776 248.5 187.776-72.672 0-131.585-58.912-131.585-131.585z" fill="#fc90b4"/></g><g><path d="m432.795 91.637c-2.459-3.333-7.154-4.042-10.488-1.583-3.333 2.459-4.042 7.154-1.584 10.488 46.968 63.673 76.145 146.506 76.145 216.172 0 61.785-23.358 108.586-69.426 139.102-40.664 26.937-99.994 41.175-171.574 41.175-70.42 0-126.927-13.066-167.949-38.836-45.64-28.67-70.135-72.602-72.804-130.575-.191-4.137-3.685-7.334-7.837-7.147-4.138.19-7.338 3.699-7.147 7.837 2.909 63.174 29.761 111.147 79.81 142.586 43.45 27.295 102.641 41.134 175.928 41.134 75.601 0 136.113-14.692 179.857-43.669 50.524-33.468 76.143-84.476 76.143-151.607-.002-72.71-30.3-158.955-79.074-225.077z"/><path d="m7.515 305.384c.177.012.354.019.528.019 3.904 0 7.199-3.025 7.474-6.98 7.014-100.799 75.138-237.333 172.969-282.147 4.392-2.011 9.259-1.66 13.351.966 4.15 2.664 6.531 7.014 6.531 11.934 0 4.897-2.55 9.415-6.822 12.085-31.807 19.881-53.178 60.091-53.178 100.058 0 59.276 48.225 107.5 107.5 107.5s107.5-48.224 107.5-107.5c0-39.967-21.371-80.177-53.179-100.058-4.271-2.67-6.821-7.188-6.821-12.085 0-4.92 2.381-9.271 6.531-11.934 4.09-2.626 8.954-2.98 13.352-.965 27.808 12.738 54.372 33.351 78.954 61.265 2.737 3.109 7.476 3.41 10.586.672 3.108-2.737 3.409-7.477.672-10.585-25.981-29.504-54.231-51.369-83.965-64.989-8.996-4.121-19.351-3.381-27.701 1.979-8.408 5.397-13.429 14.577-13.429 24.558 0 10.103 5.186 19.376 13.871 24.805 15.799 9.875 28.816 26.163 36.95 44.838h-21.87c-3.274-11.528-13.889-20-26.452-20-15.163 0-27.5 12.336-27.5 27.5v1.186c-.783-.277-1.622-.436-2.5-.436-1.924 0-3.672.73-5 1.921-1.328-1.191-3.076-1.921-5-1.921-.878 0-1.717.159-2.5.436v-1.186c0-15.164-12.337-27.5-27.5-27.5-12.563 0-23.178 8.472-26.452 20h-21.87c8.134-18.675 21.151-34.963 36.95-44.838 8.687-5.429 13.872-14.702 13.872-24.805 0-9.98-5.021-19.161-13.429-24.558-8.353-5.36-18.708-6.099-27.7-1.979-46.908 21.486-91.515 65.086-125.607 122.765-31.773 53.76-52.214 116.443-56.077 171.977-.288 4.132 2.829 7.715 6.961 8.002zm270.852-199.065c0-6.893 5.607-12.5 12.5-12.5s12.5 5.607 12.5 12.5-5.607 12.5-12.5 12.5h-12.5zm-57.5-12.5c6.893 0 12.5 5.607 12.5 12.5v12.5h-12.5c-6.893 0-12.5-5.607-12.5-12.5s5.608-12.5 12.5-12.5zm-26.452 20c2.167 7.632 7.548 13.925 14.587 17.305-9.597 8.697-15.635 21.254-15.635 35.195 0 4.142 3.357 7.5 7.5 7.5s7.5-3.358 7.5-7.5c0-17.92 14.579-32.5 32.5-32.5h2.5v3c0 4.142 3.357 7.5 7.5 7.5 1.924 0 3.672-.73 5-1.921 1.328 1.191 3.076 1.921 5 1.921 4.143 0 7.5-3.358 7.5-7.5v-3h2.5c17.921 0 32.5 14.58 32.5 32.5 0 4.142 3.357 7.5 7.5 7.5s7.5-3.358 7.5-7.5c0-13.941-6.038-26.497-15.635-35.195 7.039-3.381 12.42-9.674 14.587-17.305h27.189c2.497 9.014 3.859 18.308 3.859 27.5 0 51.005-41.495 92.5-92.5 92.5s-92.5-41.495-92.5-92.5c0-9.192 1.363-18.486 3.859-27.5z"/><path d="m336.259 370.505c4.927-4.803 6.666-11.851 4.54-18.394s-7.676-11.223-14.485-12.212l-36.027-5.235c-.959-.14-1.787-.741-2.216-1.611l-16.112-32.646c-3.045-6.169-9.211-10.002-16.091-10.002s-13.046 3.833-16.091 10.002l-16.113 32.647c-.428.868-1.256 1.47-2.215 1.609l-36.028 5.235c-6.809.989-12.358 5.669-14.484 12.212s-.387 13.591 4.54 18.394l26.07 25.412c.693.676 1.01 1.65.847 2.605l-6.155 35.882c-.896 5.231.535 10.539 3.928 14.563 3.449 4.091 8.463 6.437 13.757 6.437 2.911 0 5.721-.702 8.352-2.084l32.224-16.941c.842-.442 1.898-.442 2.74 0l32.224 16.94c2.631 1.383 5.44 2.085 8.351 2.085h.002c5.294-.001 10.308-2.348 13.757-6.439 3.392-4.023 4.823-9.331 3.926-14.562l-6.154-35.882c-.163-.955.153-1.929.848-2.605zm-41.7 30.553 6.153 35.881c.155.901-.051 1.694-.61 2.358-.899 1.067-2.339 1.441-3.66.745l-32.224-16.941c-2.565-1.348-5.453-2.061-8.351-2.061s-5.785.713-8.351 2.061l-32.224 16.941c-1.318.692-2.761.322-3.66-.745-.56-.664-.766-1.458-.611-2.358l6.154-35.882c.999-5.823-.931-11.76-5.16-15.883l-26.069-25.412c-1.141-1.111-.956-2.368-.745-3.018s.801-1.775 2.376-2.004l36.027-5.235c5.847-.849 10.898-4.52 13.511-9.816l16.112-32.646c.704-1.428 1.956-1.641 2.64-1.641s1.936.213 2.64 1.641l16.111 32.645c2.613 5.298 7.665 8.968 13.512 9.817l36.026 5.235c1.576.229 2.166 1.354 2.377 2.004s.396 1.906-.745 3.018l-26.068 25.411c-4.231 4.125-6.16 10.062-5.161 15.885z"/></g></g></svg>