<svg id="Capa_1" enable-background="new 0 0 512 512" height="512" viewBox="0 0 512 512" width="512" xmlns="http://www.w3.org/2000/svg"><g><g><path d="m378.958 194.741c-10.096-55.304-56.582-97.901-113.738-102.068.001-.114.009-.225.009-.339 0-27.614-22.386-50-50-50-26.745 0-48.586 20.999-49.934 47.41-9.326-3.271-19.352-5.056-29.795-5.056-49.706 0-90 40.294-90 90s40.294 90 90 90c1.59 0 3.17-.043 4.74-.124 18.632 45.62 63.438 77.771 115.76 77.771 15.92 0 31.142-2.982 45.146-8.409 16.072 24.556 43.816 40.781 75.354 40.781 49.706 0 90-40.294 90-90 0-48.884-38.973-88.663-87.542-89.966z" fill="#dceefe"/></g><g><path d="m45.5 174.687c0 49.706 40.294 90 90 90 1.59 0 3.17-.043 4.74-.124 18.632 45.62 63.438 77.771 115.76 77.771 15.92 0 31.142-2.982 45.146-8.409 16.072 24.556 43.816 40.781 75.354 40.781 49.706 0 90-40.294 90-90 0-48.883-38.973-88.663-87.542-89.965-.002-.012-.005-.023-.007-.035-.301 0-39.571 0-113.993 0-74.708 0-99.663-69.04-99.663-104.963-9.326-3.271-19.352-5.056-29.795-5.056-49.706 0-90 40.294-90 90z" fill="#c4e2fe"/></g><g><path d="m351.905 504.5h-191.81c-49.043 0-90.849-35.566-98.708-83.976l-36.367-224.022 442.889 117.483-17.296 106.54c-7.859 48.409-49.664 83.975-98.708 83.975z" fill="#fc90b4"/></g><g><path d="m131.387 420.524-33.217-204.618-73.15-19.404 36.367 224.022c7.859 48.41 49.664 83.976 98.708 83.976h70c-49.043 0-90.849-35.566-98.708-83.976z" fill="#fc80aa"/></g><g><circle cx="416.5" cy="57.5" fill="#dceefe" r="50"/></g><g><path d="m416.5 57.5c0-18.504 10.059-34.648 25-43.294-7.356-4.257-15.89-6.706-25-6.706-27.614 0-50 22.386-50 50s22.386 50 50 50c9.11 0 17.644-2.449 25-6.706-14.941-8.646-25-24.79-25-43.294z" fill="#c4e2fe"/></g><g><g><path d="m485.067 334.931c-119.28 0-179.646-31.359-238.025-61.686-56.734-29.472-110.321-57.31-220.109-57.31-10.733 0-19.433-8.7-19.433-19.433s8.7-19.433 19.433-19.433c119.28 0 179.646 31.36 238.025 61.686 56.734 29.472 110.321 57.31 220.109 57.31 10.733 0 19.433 8.7 19.433 19.433s-8.7 19.433-19.433 19.433z" fill="#fdb3cd"/></g></g><g><path d="m236.586 256c0-10.722 8.692-19.414 19.414-19.414 3.229 0 6.267.8 8.945 2.194l.013-.025c-58.379-30.327-118.746-61.686-238.025-61.686-10.733 0-19.433 8.7-19.433 19.433s8.7 19.433 19.433 19.433c109.787 0 163.375 27.838 220.109 57.31l.013-.025c-6.217-3.237-10.469-9.727-10.469-17.22z" fill="#fda0c1"/></g><g><g><g><ellipse cx="176.355" cy="404.646" fill="#fff" rx="29.387" ry="23.403"/></g><g><ellipse cx="335.645" cy="404.646" fill="#fff" rx="29.387" ry="23.403"/></g><g><path d="m279.694 386.665c0-14.643-10.608-16.019-23.693-16.019-13.086 0-23.694 1.376-23.694 16.019s10.608 26.513 23.694 26.513c13.085 0 23.693-11.87 23.693-26.513z" fill="#6e6e6e"/></g></g><g><path d="m181.268 384.206c-4.142 0-7.5-3.358-7.5-7.5v-12c0-4.142 3.358-7.5 7.5-7.5s7.5 3.358 7.5 7.5v12c0 4.142-3.358 7.5-7.5 7.5z"/></g><g><path d="m256 420.678c-17.2 0-31.193-15.258-31.193-34.013 0-23.519 21.859-23.519 31.193-23.519s31.193 0 31.193 23.519c0 18.755-13.993 34.013-31.193 34.013zm0-42.532c-15.539 0-16.193 2.611-16.193 8.519 0 10.484 7.264 19.013 16.193 19.013s16.193-8.529 16.193-19.013c0-5.907-.654-8.519-16.193-8.519z"/></g><g><path d="m330.732 384.206c-4.142 0-7.5-3.358-7.5-7.5v-12c0-4.142 3.358-7.5 7.5-7.5s7.5 3.358 7.5 7.5v12c0 4.142-3.358 7.5-7.5 7.5z"/></g></g><g><path d="m375.632 87.274c3.671-1.918 5.092-6.45 3.173-10.121-3.188-6.101-4.805-12.714-4.805-19.653 0-23.435 19.065-42.5 42.5-42.5s42.5 19.065 42.5 42.5-19.065 42.5-42.5 42.5c-6.995 0-13.654-1.642-19.793-4.879-3.663-1.932-8.2-.528-10.132 3.136s-.528 8.2 3.136 10.132c8.201 4.325 17.465 6.61 26.79 6.61 31.706 0 57.5-25.794 57.5-57.5s-25.795-57.499-57.501-57.499-57.5 25.794-57.5 57.5c0 9.251 2.252 18.45 6.512 26.601 1.919 3.671 6.449 5.092 10.12 3.173z"/><path d="m485.067 288.565c-3.785 0-7.495-.037-11.146-.104.048-1.252.079-2.505.079-3.755 0-25.58-9.833-49.751-27.688-68.062-16.419-16.838-37.954-27.026-61.17-29.06-12.418-54.253-57.571-94.951-112.778-101.746-3.238-28.658-27.626-51.005-57.136-51.005-27.453 0-50.558 19.227-56.189 45.22-7.67-1.905-15.554-2.867-23.539-2.867-52.076 0-94.748 41.039-97.372 92.475-3.674-.061-7.405-.092-11.195-.092-14.851 0-26.933 12.082-26.933 26.933 0 13.064 9.351 23.981 21.71 26.42l32.274 198.803c4.086 25.169 17.032 48.13 36.453 64.652 19.421 16.523 44.159 25.623 69.658 25.623h191.811c25.499 0 50.237-9.1 69.658-25.622s32.367-39.483 36.452-64.652l12.898-79.449c4.629.098 9.339.154 14.153.154 14.851 0 26.933-12.082 26.933-26.933s-12.082-26.933-26.933-26.933zm-349.567-196.378c9.357 0 18.547 1.559 27.313 4.633 2.231.783 4.7.467 6.663-.85 1.963-1.318 3.189-3.484 3.31-5.845 1.153-22.593 19.796-40.292 42.443-40.292 23.41 0 42.46 19.026 42.5 42.427-.004.126-.008.252-.008.38-.017 3.943 3.022 7.226 6.955 7.512 53.342 3.89 97.304 43.339 106.906 95.935.637 3.489 3.631 6.055 7.177 6.15 44.994 1.208 80.241 37.432 80.241 82.469 0 1.094-.04 2.19-.083 3.285-90.719-4.066-139.314-29.301-190.501-55.892-54.75-28.441-111.23-57.775-215.281-62.006 2.392-43.362 38.416-77.906 82.365-77.906zm349.567 235.244c-117.448 0-176.988-30.93-234.568-60.842-18.718-9.724-36.398-18.908-56.222-27.287-3.816-1.613-8.216.173-9.828 3.988-1.613 3.815.173 8.215 3.988 9.828 19.275 8.147 36.7 17.199 55.147 26.782 54.209 28.16 110.118 57.194 212.215 61.872l-12.59 77.549c-7.306 45.011-45.705 77.679-91.304 77.679h-191.81c-45.599 0-83.998-32.668-91.305-77.678l-31.787-195.804c46.551.74 85.559 6.693 122.031 18.576 3.938 1.284 8.171-.87 9.454-4.808s-.869-8.171-4.808-9.454c-40.618-13.233-84.07-19.397-136.748-19.397-6.58 0-11.933-5.353-11.933-11.933s5.353-11.933 11.933-11.933c117.448 0 176.988 30.93 234.569 60.842 57.569 29.907 111.946 58.154 223.565 58.154 6.58 0 11.933 5.353 11.933 11.933s-5.352 11.933-11.932 11.933z"/></g></g></svg>