<svg id="Capa_1" enable-background="new 0 0 512.013 512.013" height="512" viewBox="0 0 512.013 512.013" width="512" xmlns="http://www.w3.org/2000/svg"><g><g><path d="m134.427 17.575-28.592 11.116c-11.033 4.289-20.186 12.354-25.831 22.758l-70.074 129.156c-5.077 9.357-1.934 21.051 7.149 26.603l57.588 35.199-5.134 75.508c-1.342 19.735 9.077 38.405 26.576 47.626l38.074 20.062c32.078 16.903 56.38 45.554 67.822 79.96 7.735 23.257 29.491 38.95 54.001 38.95 24.51 0 46.266-15.693 54.001-38.95 11.443-34.407 35.744-63.057 67.822-79.96l38.074-20.062c17.499-9.221 27.918-27.892 26.576-47.626l-5.134-75.508 57.588-35.199c9.083-5.552 12.226-17.246 7.149-26.603l-70.073-129.156c-5.645-10.404-14.798-18.469-25.831-22.758l-28.5-11.08-121.672 74.938z" fill="#9edcae"/></g><g><path d="m187.718 102.077c0-20.923 2.599-41.238 7.469-60.651-4.736-6.107-8.576-12.944-11.317-20.318-4.07-10.947-16.366-16.392-27.252-12.16l-50.783 19.743c-11.033 4.289-20.186 12.354-25.831 22.758l-70.074 129.156c-5.077 9.357-1.934 21.051 7.149 26.603l57.588 35.199-5.134 75.508c-1.342 19.735 9.077 38.405 26.576 47.626l38.074 20.062c32.078 16.903 56.38 45.554 67.822 79.96 7.735 23.257 29.491 38.95 54.001 38.95 24.51 0 46.266-15.693 54.001-38.95 11.443-34.407 35.744-63.057 67.822-79.96l38.074-20.062c6.975-3.675 12.82-8.855 17.249-15.002-135.828-1.645-245.434-112.244-245.434-248.462z" fill="#7fd196"/></g><g><path d="m267.964 167.748 20.571 41.682c1.942 3.936 5.697 6.663 10.04 7.295l45.999 6.684c10.937 1.589 15.305 15.03 7.39 22.745l-33.285 32.445c-3.143 3.063-4.577 7.477-3.835 11.803l7.858 45.813c1.868 10.893-9.565 19.2-19.348 14.057l-41.143-21.63c-3.885-2.042-8.526-2.042-12.41 0l-41.143 21.63c-9.783 5.143-21.216-3.164-19.348-14.057l7.858-45.813c.742-4.326-.692-8.739-3.835-11.803l-33.285-32.445c-7.914-7.715-3.547-21.156 7.39-22.745l45.999-6.684c4.343-.631 8.098-3.359 10.04-7.295l20.571-41.682c4.892-9.91 19.025-9.91 23.916 0z" fill="#f7f0eb"/></g><g><path d="m215.461 216.248c-.659.204-1.33.377-2.024.478l-45.999 6.684c-10.937 1.589-15.305 15.03-7.39 22.745l33.285 32.445c3.143 3.063 4.577 7.477 3.835 11.803l-7.858 45.813c-1.868 10.893 9.565 19.2 19.348 14.057l41.143-21.63c3.885-2.042 8.526-2.042 12.41 0l41.143 21.63c9.783 5.143 21.216-3.164 19.348-14.057l-2.459-14.335c-44.787-23.676-81.459-60.634-104.782-105.633z" fill="#efe2dd"/></g><g><path d="m256.006 113.846c59.136 0 108.675-41.067 121.669-96.236l-22.28-8.662c-10.886-4.232-23.182 1.213-27.251 12.161-10.884 29.28-39.066 50.142-72.137 50.142s-61.253-20.862-72.137-50.142c-4.07-10.948-16.366-16.393-27.252-12.161l-22.28 8.662c12.993 55.169 62.532 96.236 121.668 96.236z" fill="#dceefe"/></g><g><path d="m81.304 144.798-6.637 97.608-34.996-21.39 32.015-78.446c2.146-5.258 10.003-3.437 9.618 2.228z" fill="#6bc17f"/></g><g><path d="m430.709 144.798 6.637 97.608 34.996-21.39-32.015-78.446c-2.146-5.258-10.004-3.437-9.618 2.228z" fill="#7fd196"/></g><g><path d="m234.709 92.549c0-11.762 9.535-21.298 21.298-21.298-33.071 0-61.253-20.862-72.137-50.142-4.07-10.948-16.366-16.393-27.252-12.161l-22.28 8.662c12.993 55.169 62.533 96.236 121.669 96.236-11.763 0-21.298-9.535-21.298-21.297z" fill="#c4e2fe"/></g><g><path d="m508.675 177.028-70.074-129.156c-6.484-11.951-17.034-21.245-29.706-26.171l-28.496-11.078c-.002-.001-.004-.002-.006-.003l-22.281-8.662c-7.182-2.792-15.006-2.592-22.034.564-6.988 3.138-12.303 8.811-14.965 15.973-10.062 27.069-36.226 45.256-65.106 45.256s-55.046-18.187-65.107-45.256c-2.663-7.163-7.978-12.835-14.965-15.973-7.028-3.157-14.854-3.356-22.034-.564l-22.281 8.662s-.001 0-.001.001l-28.501 11.08c-12.672 4.926-23.222 14.221-29.706 26.171l-70.074 129.156c-6.985 12.874-2.667 28.941 9.83 36.579l53.708 32.827-4.826 70.971c-1.542 22.676 10.455 44.175 30.563 54.771l38.074 20.063c1.378.726 2.763 1.487 4.116 2.263 1.176.674 2.458.994 3.722.994 2.6 0 5.128-1.354 6.514-3.772 2.06-3.594.815-8.177-2.778-10.236-1.506-.863-3.048-1.711-4.583-2.519l-38.073-20.063c-14.863-7.832-23.729-23.722-22.59-40.482l5.134-75.508 6.637-97.608c.281-4.133-2.841-7.71-6.974-7.992-4.136-.28-7.71 2.841-7.992 6.974l-5.798 85.266-47.032-28.748c-5.68-3.472-7.643-10.775-4.468-16.626l70.074-129.156c4.792-8.833 12.59-15.703 21.957-19.344l20.757-8.07c7.748 25.268 23.091 47.995 43.867 64.656 23.382 18.751 52.798 29.079 82.83 29.079 20.091 0 39.393-4.385 57.37-13.033 3.732-1.796 5.303-6.277 3.507-10.01-1.796-3.732-6.277-5.302-10.01-3.507-15.932 7.664-33.045 11.55-50.867 11.55-52.614 0-98.069-34.293-112.708-84.173l16.038-6.235c3.406-1.324 7.12-1.23 10.454.268 3.294 1.479 5.798 4.148 7.049 7.516 12.235 32.915 44.049 55.029 79.167 55.029s66.932-22.115 79.167-55.029c1.251-3.368 3.755-6.037 7.049-7.516 3.334-1.498 7.047-1.591 10.454-.268l16.029 6.232c-6.609 22.303-19.95 42.5-38.034 57.403-3.197 2.634-3.653 7.361-1.019 10.558 2.635 3.197 7.362 3.653 10.558 1.019 20.06-16.531 34.919-38.858 42.492-63.538l20.756 8.069c9.367 3.641 17.164 10.511 21.957 19.344l70.074 129.156c3.175 5.852 1.212 13.155-4.468 16.626l-47.034 28.747-5.798-85.266c-.281-4.132-3.858-7.246-7.992-6.974-4.133.281-7.255 3.859-6.974 7.992l6.637 97.608 5.134 75.508c1.14 16.761-7.727 32.651-22.59 40.482l-38.073 20.063c-33.958 17.894-59.331 47.807-71.443 84.229-6.727 20.227-25.568 33.816-46.884 33.816s-40.157-13.59-46.884-33.817c-8.011-24.088-22.183-45.839-40.984-62.899-3.068-2.783-7.811-2.553-10.594.514-2.784 3.067-2.553 7.811.514 10.594 16.896 15.332 29.632 34.878 36.831 56.525 8.769 26.368 33.331 44.083 61.118 44.083s52.349-17.716 61.118-44.083c10.885-32.73 33.686-59.611 64.202-75.691l38.073-20.063c20.108-10.596 32.104-32.094 30.563-54.771l-4.826-70.971 53.708-32.827c12.498-7.639 16.816-23.705 9.831-36.579z"/><path d="m189.776 289.134-7.857 45.814c-1.042 6.074.618 12.236 4.555 16.905 4.008 4.754 9.832 7.481 15.978 7.481 3.377 0 6.64-.815 9.698-2.423l41.143-21.63c1.668-.877 3.762-.877 5.43 0l41.143 21.63c3.059 1.607 6.32 2.423 9.696 2.423h.003c6.146-.001 11.969-2.729 15.977-7.483 3.936-4.668 5.595-10.83 4.554-16.903l-7.857-45.814c-.325-1.893.302-3.823 1.678-5.164l33.285-32.445c5.721-5.576 7.741-13.759 5.272-21.357-2.468-7.598-8.913-13.032-16.819-14.18l-45.999-6.684c-1.901-.276-3.544-1.469-4.394-3.192l-20.572-41.683c-3.536-7.164-10.694-11.614-18.683-11.614s-15.147 4.45-18.683 11.614l-20.572 41.683c-.849 1.722-2.492 2.915-4.393 3.191l-45.999 6.684c-7.906 1.148-14.351 6.582-16.819 14.18-2.469 7.598-.448 15.781 5.272 21.357l33.285 32.445c1.376 1.342 2.003 3.272 1.678 5.165zm-25.97-54.332c.337-1.037 1.471-3.5 4.71-3.971l46-6.684c6.788-.987 12.652-5.248 15.687-11.397l20.572-41.683c1.449-2.936 4.142-3.252 5.232-3.252s3.783.317 5.232 3.252l20.572 41.682c3.034 6.15 8.898 10.411 15.687 11.397l45.999 6.684c3.24.471 4.374 2.934 4.71 3.971s.868 3.696-1.477 5.981l-33.285 32.445c-4.912 4.788-7.152 11.682-5.992 18.441l7.857 45.813c.38 2.219-.463 3.78-1.238 4.7-1.135 1.347-2.821 2.15-4.511 2.151-.919 0-1.833-.235-2.716-.7l-41.143-21.63c-2.978-1.565-6.331-2.393-9.695-2.393-3.365 0-6.717.828-9.695 2.393l-41.143 21.63c-.883.464-1.797.7-2.717.7-1.689 0-3.375-.804-4.509-2.149-.775-.919-1.62-2.481-1.239-4.701l7.857-45.813c1.16-6.76-1.08-13.654-5.992-18.441l-33.286-32.445c-2.344-2.285-1.814-4.943-1.477-5.981z"/></g></g></svg>