<svg id="Capa_1" enable-background="new 0 0 507.478 507.478" height="512" viewBox="0 0 507.478 507.478" width="512" xmlns="http://www.w3.org/2000/svg"><g><g><path d="m353.889 96.522h-200.301c-24.583 0-44.511-19.928-44.511-44.511 0-24.583 19.928-44.511 44.511-44.511h200.301c24.583 0 44.511 19.928 44.511 44.511.001 24.583-19.928 44.511-44.511 44.511z" fill="#dceefe"/></g><g><path d="m189.077 52.011c0-24.583 19.928-44.511 44.511-44.511h-80c-24.583 0-44.511 19.928-44.511 44.511 0 24.583 19.928 44.511 44.511 44.511h80c-24.583 0-44.511-19.928-44.511-44.511z" fill="#c4e2fe"/></g><g><path d="m411.274 204.504c4.455-34.301 10.175-52.993 10.175-71.73 0-9.206-3.018-17.051-7.242-23.523-9.396-14.395-25.738-22.728-42.927-22.728h-235.082c-17.19 0-33.531 8.333-42.927 22.728-4.225 6.472-7.242 14.317-7.242 23.523 0 18.737 5.72 37.429 10.175 71.73l157.535 75.002z" fill="#b0d8fd"/></g><g><path d="m99.086 354.488c-4.276 52.866-13.058 76.021-13.058 99.239 0 9.206 3.018 17.051 7.242 23.523 9.396 14.395 25.737 22.728 42.927 22.728h235.083c17.19 0 33.531-8.333 42.927-22.728 4.225-6.472 7.242-14.317 7.242-23.523 0-23.218-8.782-46.372-13.058-99.239l-154.653-74.982z" fill="#b0d8fd"/></g><g><g><path d="m176.203 204.504c-4.455-34.301-10.175-52.993-10.175-71.73 0-9.206 3.018-17.051 7.242-23.523 9.396-14.395 25.737-22.728 42.927-22.728h-80c-17.19 0-33.531 8.333-42.927 22.728-4.225 6.472-7.242 14.317-7.242 23.523 0 18.737 5.72 37.429 10.175 71.73l80 38.071z" fill="#9ccefd"/></g><g><path d="m173.271 477.25c-4.225-6.472-7.242-14.317-7.242-23.523 0-23.218 8.782-46.372 13.058-99.239v-38.781l-80 38.781c-4.276 52.866-13.058 76.021-13.058 99.239 0 9.206 3.018 17.051 7.242 23.523 9.396 14.395 25.737 22.728 42.927 22.728h80c-17.19 0-33.531-8.333-42.927-22.728z" fill="#9ccefd"/></g></g><g><path d="m101.372 293.25c0 24.162-.911 44.243-2.288 61.256h309.309c-1.376-17.012-2.288-37.094-2.288-61.256 0-38.641 2.327-66.867 5.168-88.744h-315.069c2.841 21.877 5.168 50.103 5.168 88.744z" fill="#efe2dd"/></g><g><path d="m253.739 419.506c-48.325 0-87.5-39.175-87.5-87.5v-105c0-48.325 39.175-87.5 87.5-87.5 48.325 0 87.5 39.175 87.5 87.5v105c0 48.325-39.175 87.5-87.5 87.5z" fill="#f7f0eb"/></g><g><g><path d="m203.739 221.614c-4.142 0-7.5-3.358-7.5-7.5v-9.608c0-4.142 3.358-7.5 7.5-7.5s7.5 3.358 7.5 7.5v9.608c0 4.142-3.358 7.5-7.5 7.5z"/></g><g><path d="m303.739 221.614c-4.143 0-7.5-3.358-7.5-7.5v-9.608c0-4.142 3.357-7.5 7.5-7.5s7.5 3.358 7.5 7.5v9.608c0 4.142-3.358 7.5-7.5 7.5z"/></g><g><path d="m253.739 227.333c-7.221 0-14.086-3.126-18.836-8.578-2.721-3.123-2.396-7.86.727-10.582s7.861-2.396 10.582.727c1.901 2.182 4.645 3.433 7.528 3.433s5.627-1.251 7.529-3.434c2.721-3.123 7.458-3.448 10.581-.726s3.447 7.459.726 10.582c-4.752 5.452-11.618 8.578-18.837 8.578z"/></g></g><path d="m415.869 353.895c-1.522-18.81-2.263-38.647-2.263-60.645 0-32.618 1.67-61.331 5.105-87.778.002-.018.005-.036.007-.053 1.822-14.023 3.849-25.343 5.636-35.332 2.567-14.348 4.596-25.681 4.596-37.313 0-9.728-2.847-19.021-8.462-27.623-6.248-9.572-15.139-16.882-25.472-21.305 7.001-9.033 10.885-20.18 10.885-31.835 0-28.679-23.332-52.011-52.012-52.011h-200.301c-28.679 0-52.011 23.332-52.011 52.011 0 11.687 3.876 22.815 10.878 31.838-10.33 4.423-19.219 11.732-25.465 21.302-5.615 8.602-8.462 17.895-8.462 27.623 0 11.633 2.028 22.968 4.596 37.318 1.787 9.984 3.811 21.299 5.633 35.314.002.021.005.043.008.065 3.436 26.455 5.106 55.168 5.106 87.779 0 21.984-.74 41.821-2.263 60.645-2.227 27.527-5.697 46.925-8.486 62.512-2.567 14.352-4.595 25.687-4.595 37.32 0 9.727 2.847 19.021 8.462 27.623 10.679 16.36 29.075 26.128 49.208 26.128h235.083c20.133 0 38.528-9.768 49.208-26.128 5.615-8.602 8.462-17.896 8.462-27.623 0-11.632-2.028-22.967-4.596-37.318-2.788-15.587-6.259-34.986-8.485-62.514zm-249.63-66.889c-4.142 0-7.5 3.358-7.5 7.5v37.5c0 5.103.41 10.112 1.188 15h-52.767c1.148-16.812 1.712-34.481 1.712-53.755 0-29.833-1.381-56.507-4.204-81.245h55.259c-.779 4.888-1.188 9.897-1.188 15v37.5c0 4.142 3.358 7.5 7.5 7.5s7.5-3.358 7.5-7.5v-37.5c0-44.112 35.888-80 80-80s80 35.888 80 80v105c0 44.112-35.888 80-80 80s-80-35.888-80-80v-37.5c0-4.142-3.358-7.5-7.5-7.5zm181.312-75h55.259c-2.823 24.732-4.204 51.405-4.204 81.245 0 19.284.564 36.953 1.712 53.755h-52.767c.779-4.888 1.188-9.897 1.188-15v-105c0-5.104-.41-10.113-1.188-15zm-248-98.656c7.899-12.103 21.6-19.328 36.647-19.328h152.541c4.143 0 7.5-3.358 7.5-7.5s-3.357-7.5-7.5-7.5h-152.541c-2.504 0-4.981.152-7.42.448-7.775-7.022-12.201-16.923-12.201-27.459 0-20.408 16.603-37.011 37.011-37.011h200.301c20.408 0 37.012 16.603 37.012 37.011 0 10.509-4.441 20.435-12.213 27.458-2.435-.295-4.908-.446-7.408-.446h-52.541c-4.143 0-7.5 3.358-7.5 7.5s3.357 7.5 7.5 7.5h52.541c15.048 0 28.747 7.225 36.647 19.328 3.996 6.122 6.022 12.657 6.022 19.424 0 10.301-1.925 21.056-4.361 34.671-1.535 8.579-3.243 18.133-4.863 29.561h-60.844c-12.588-37.727-48.239-65-90.142-65-41.904 0-77.554 27.273-90.142 65h-60.844c-1.62-11.426-3.327-20.977-4.863-29.556-2.437-13.618-4.361-24.374-4.361-34.676-.001-6.768 2.026-13.303 6.022-19.425zm308.376 359.801c-7.9 12.102-21.6 19.327-36.647 19.327h-235.082c-15.047 0-28.747-7.225-36.647-19.327-3.996-6.123-6.022-12.657-6.022-19.424 0-10.302 1.924-21.06 4.361-34.679 2.607-14.572 5.795-32.429 8.069-57.042h57.638c12.588 37.727 48.238 65 90.142 65s77.554-27.273 90.142-65h57.639c2.274 24.615 5.462 42.473 8.07 57.045 2.436 13.619 4.36 24.375 4.36 34.676 0 6.767-2.027 13.301-6.023 19.424z"/></g></svg>