<svg id="Capa_1" enable-background="new 0 0 512.013 512.013" height="512" viewBox="0 0 512.013 512.013" width="512" xmlns="http://www.w3.org/2000/svg"><g><g><path d="m377.678 17.611 28.5 11.08c11.033 4.289 20.186 12.353 25.831 22.758l70.074 129.156c5.077 9.357 1.934 21.051-7.149 26.603l-57.588 35.199 5.134 75.508c1.342 19.735-9.077 38.405-26.576 47.626l-38.074 20.062c-32.078 16.903-56.38 45.554-67.822 79.96-7.735 23.257-29.491 38.95-54.001 38.95-24.51 0-46.266-15.693-54.001-38.95-11.443-34.407-35.744-63.057-67.822-79.96l-38.075-20.063c-17.499-9.221-27.918-27.892-26.576-47.626l5.134-75.508-57.588-35.199c-9.083-5.552-12.226-17.246-7.149-26.603l70.074-129.155c5.645-10.404 14.798-18.469 25.831-22.758l28.592-11.116 121.58 74.973z" fill="#fdb3cd"/></g><g><path d="m187.718 102.077c0-20.923 2.599-41.238 7.469-60.651-4.736-6.107-8.576-12.944-11.317-20.318-4.07-10.947-16.366-16.392-27.252-12.16l-50.783 19.743c-11.033 4.289-20.186 12.354-25.831 22.758l-70.074 129.156c-5.077 9.357-1.934 21.051 7.149 26.603l57.588 35.199-5.134 75.508c-1.342 19.735 9.077 38.405 26.576 47.626l38.074 20.062c32.078 16.903 56.38 45.554 67.822 79.96 7.735 23.257 29.491 38.95 54.001 38.95 24.51 0 46.266-15.693 54.001-38.95 11.443-34.407 35.744-63.057 67.822-79.96l38.074-20.062c6.975-3.675 12.82-8.855 17.249-15.002-135.828-1.645-245.434-112.244-245.434-248.462z" fill="#fda0c1"/></g><g><path d="m256.006 113.846c59.136 0 108.675-41.067 121.669-96.236l-22.28-8.662c-10.886-4.232-23.182 1.213-27.251 12.161-10.884 29.28-39.066 50.142-72.137 50.142s-61.253-20.862-72.137-50.142c-4.07-10.948-16.366-16.393-27.252-12.161l-22.28 8.662c12.993 55.169 62.532 96.236 121.668 96.236z" fill="#f7f0eb"/></g><g><path d="m81.304 144.798-6.637 97.608-34.996-21.39 32.015-78.446c2.146-5.258 10.004-3.437 9.618 2.228z" fill="#fc90b4"/></g><g><path d="m430.709 144.798 6.637 97.608 34.996-21.39-32.015-78.446c-2.146-5.258-10.004-3.437-9.618 2.228z" fill="#fda0c1"/></g><g><path d="m234.709 92.549c0-11.762 9.535-21.298 21.298-21.298-33.071 0-61.253-20.862-72.137-50.142-4.07-10.948-16.366-16.393-27.252-12.161l-22.28 8.662c12.993 55.169 62.533 96.236 121.669 96.236-11.763 0-21.298-9.535-21.298-21.297z" fill="#efe2dd"/></g><g><path d="m256.006 276.436c-93.434 0-181.339-34.03-181.339-34.03l-33.633 83.803c-3.867 9.634.265 20.642 9.542 25.301 28.707 14.42 96.278 40.896 205.43 40.896s176.724-26.476 205.43-40.896c9.277-4.66 13.409-15.667 9.542-25.301l-33.633-83.803s-87.904 34.03-181.339 34.03z" fill="#f7f0eb"/></g><g><path d="m198.022 334.421c0-32.024 25.961-57.985 57.985-57.985-93.434 0-181.339-34.03-181.339-34.03l-33.633 83.802c-3.867 9.634.266 20.642 9.542 25.301 28.707 14.42 96.278 40.896 205.43 40.896-32.025.001-57.985-25.96-57.985-57.984z" fill="#efe2dd"/></g><g><g><g><ellipse cx="176.362" cy="221.727" fill="#fff" rx="29.387" ry="23.403"/></g><g><ellipse cx="335.651" cy="221.727" fill="#fff" rx="29.387" ry="23.403"/></g><g><path d="m279.7 203.746c0-14.643-10.608-16.019-23.693-16.019-13.086 0-23.694 1.376-23.694 16.019s10.608 26.513 23.694 26.513c13.085 0 23.693-11.87 23.693-26.513z" fill="#6e6e6e"/></g></g><g><path d="m181.274 201.287c-4.143 0-7.5-3.358-7.5-7.5v-12c0-4.142 3.357-7.5 7.5-7.5s7.5 3.358 7.5 7.5v12c0 4.142-3.357 7.5-7.5 7.5z"/></g><g><path d="m256.006 237.759c-17.2 0-31.193-15.258-31.193-34.013 0-23.519 21.859-23.519 31.193-23.519s31.193 0 31.193 23.519c.001 18.755-13.992 34.013-31.193 34.013zm0-42.532c-15.538 0-16.193 2.612-16.193 8.519 0 10.484 7.265 19.013 16.193 19.013s16.193-8.529 16.193-19.013c.001-5.907-.654-8.519-16.193-8.519z"/></g><g><path d="m330.739 201.287c-4.143 0-7.5-3.358-7.5-7.5v-12c0-4.142 3.357-7.5 7.5-7.5s7.5 3.358 7.5 7.5v12c0 4.142-3.358 7.5-7.5 7.5z"/></g></g><path d="m508.674 177.028-70.073-129.156c-6.483-11.95-17.033-21.245-29.705-26.171l-28.497-11.078c-.002-.001-.004-.002-.006-.003l-22.28-8.662c-7.181-2.792-15.006-2.592-22.035.564-6.987 3.138-12.302 8.811-14.965 15.973-2.682 7.216-6.532 13.904-11.442 19.878-2.63 3.2-2.168 7.926 1.031 10.556 3.201 2.63 7.927 2.169 10.557-1.032 5.97-7.263 10.651-15.397 13.915-24.176 1.251-3.368 3.755-6.037 7.049-7.516 3.334-1.497 7.049-1.592 10.455-.268l16.037 6.235c-14.639 49.88-60.093 84.173-112.708 84.173s-98.069-34.293-112.708-84.173l16.037-6.235c3.407-1.323 7.119-1.229 10.455.268 3.294 1.479 5.798 4.148 7.049 7.516 12.235 32.915 44.05 55.029 79.167 55.029 13.709 0 27.322-3.363 39.37-9.724 3.663-1.934 5.064-6.472 3.13-10.134-1.933-3.663-6.472-5.063-10.134-3.13-9.897 5.227-21.09 7.989-32.366 7.989-28.88 0-55.045-18.187-65.106-45.256-2.663-7.163-7.978-12.835-14.965-15.973-7.028-3.156-14.853-3.356-22.035-.564l-22.28 8.662c-.002.001-.003.001-.005.002l-28.498 11.079c-12.672 4.926-23.222 14.221-29.704 26.171l-70.075 129.156c-6.985 12.874-2.668 28.94 9.829 36.579l52.178 31.891-31.272 77.917c-5.281 13.16.488 28.444 13.136 34.797 13.899 6.982 35.312 16.084 64.566 24.002.234.159.476.31.732.444l18.18 9.58c30.516 16.08 53.316 42.961 64.201 75.692 8.77 26.367 33.33 44.083 61.118 44.083s52.35-17.716 61.118-44.083c10.885-32.73 33.686-59.611 64.201-75.691l18.97-9.996c.047-.025.09-.055.136-.081 29.154-7.906 50.503-16.983 64.371-23.949 12.647-6.353 18.417-21.637 13.136-34.797l-31.272-77.917 52.178-31.891c12.497-7.64 16.815-23.707 9.829-36.58zm-205.784 286.169c-6.727 20.227-25.567 33.816-46.884 33.816s-40.158-13.59-46.884-33.817c-9.477-28.495-27.07-53.005-50.541-70.893 27.835 4.589 60.257 7.603 97.425 7.603s69.59-3.014 97.425-7.603c-23.47 17.888-41.064 42.398-50.541 70.894zm188.133-262.389-47.034 28.748-5.798-85.266c-.28-4.132-3.868-7.246-7.991-6.974-4.133.281-7.255 3.859-6.974 7.992l6.254 91.984c-19.999 7.069-95.181 31.645-173.474 31.645-18.551 0-38.313-1.385-58.737-4.116-4.115-.545-7.879 2.334-8.428 6.44s2.334 7.879 6.439 8.428c21.081 2.819 41.513 4.248 60.726 4.248 79.726 0 154.309-23.952 177.087-31.989l30.926 77.055c2.4 5.982-.213 12.924-5.948 15.806-29.813 14.976-95.708 40.098-202.064 40.098s-172.251-25.124-202.065-40.099c-5.735-2.881-8.349-9.824-5.948-15.806l30.929-77.062c13.48 4.739 45.3 15.096 85.884 22.804 4.061.771 7.995-1.898 8.768-5.969.773-4.069-1.899-7.995-5.969-8.768-40.704-7.731-72.982-18.434-85.073-22.715l6.254-91.986c.281-4.133-2.841-7.71-6.974-7.992-4.137-.282-7.711 2.842-7.991 6.974l-5.798 85.266-47.034-28.746c-5.68-3.472-7.643-10.775-4.468-16.626l70.075-129.156c4.792-8.833 12.589-15.703 21.955-19.344l20.758-8.07c7.748 25.268 23.091 47.995 43.866 64.656 23.382 18.751 52.799 29.079 82.83 29.079s59.448-10.327 82.83-29.079c20.775-16.661 36.119-39.388 43.866-64.656l20.758 8.07c9.366 3.642 17.163 10.511 21.956 19.344l70.074 129.156c3.176 5.851 1.213 13.154-4.467 16.626z"/></g></svg>