<svg id="Capa_1" enable-background="new 0 0 512 512" height="512" viewBox="0 0 512 512" width="512" xmlns="http://www.w3.org/2000/svg"><g><g><g><path d="m7.5 366.363c0 54.2 43.937 98.137 98.137 98.137h300.726c54.2 0 98.137-43.938 98.137-98.137 0-54.2-43.938-98.137-98.137-98.137h-300.726c-54.2 0-98.137 43.937-98.137 98.137zm398.863 58.137h-300.726c-32.108 0-58.137-26.029-58.137-58.137 0-32.108 26.029-58.137 58.137-58.137h300.726c32.108 0 58.137 26.029 58.137 58.137 0 32.108-26.029 58.137-58.137 58.137z" fill="#fff2b4"/></g></g><g><path d="m105.637 464.5h300.726c54.2 0 98.137-43.938 98.137-98.137 0 11.046-8.954 20-20 20s-20-8.954-20-20c0 32.108-26.029 58.137-58.137 58.137h-300.726c-32.108 0-58.137-26.029-58.137-58.137 0 11.046-8.954 20-20 20s-20-8.954-20-20c0 54.2 43.937 98.137 98.137 98.137z" fill="#ffdf8e"/></g><g><path d="m281.594 49.382v-16.288c0-14.135-11.459-25.594-25.594-25.594-14.135 0-25.594 11.459-25.594 25.594v16.288c0 24.572-16.385 46.128-40.06 52.705-23.675 6.576-40.06 28.133-40.06 52.705v11.053h211.429v-11.053c0-24.572-16.385-46.128-40.06-52.705-23.676-6.577-40.061-28.133-40.061-52.705z" fill="#fff2b4"/></g><g><path d="m235.849 133.769c0-17.715 14.361-32.076 32.076-32.076h52.42c-22.965-6.997-38.751-28.197-38.751-52.312v-16.287c0-14.135-11.459-25.594-25.594-25.594s-25.594 11.459-25.594 25.594v16.288c0 24.572-16.385 46.128-40.06 52.705-23.675 6.576-40.06 28.133-40.06 52.705v11.053h117.639c-17.715-.001-32.076-14.361-32.076-32.076z" fill="#ffdf8e"/></g><g><path d="m356.151 238.225h-200.302c-24.583 0-44.511-19.928-44.511-44.511 0-24.583 19.928-44.511 44.511-44.511h200.301c24.583 0 44.511 19.928 44.511 44.511.001 24.583-19.928 44.511-44.51 44.511z" fill="#b0d8fd"/></g><g><path d="m191.338 193.714c0-24.583 19.928-44.511 44.511-44.511h-80c-24.583 0-44.511 19.928-44.511 44.511 0 24.583 19.928 44.511 44.511 44.511h80c-24.582.001-44.511-19.928-44.511-44.511z" fill="#9ccefd"/></g><g><path d="m371 504.5h-230c-27.614 0-50-22.386-50-50v-176.274c0-27.614 22.386-50 50-50h230c27.614 0 50 22.386 50 50v176.274c0 27.614-22.386 50-50 50z" fill="#f7f0eb"/></g><g><path d="m161 454.5v-176.274c0-27.614 22.386-50 50-50h-70c-27.614 0-50 22.386-50 50v176.274c0 27.614 22.386 50 50 50h70c-27.614 0-50-22.386-50-50z" fill="#efe2dd"/></g><g><g><g><ellipse cx="176.355" cy="374.631" fill="#fda0c1" rx="29.387" ry="23.403"/></g><g><ellipse cx="335.645" cy="374.631" fill="#fda0c1" rx="29.387" ry="23.403"/></g><g><path d="m279.694 356.65c0-14.643-10.608-16.019-23.693-16.019-13.086 0-23.694 1.376-23.694 16.019s10.608 26.513 23.694 26.513c13.085 0 23.693-11.87 23.693-26.513z" fill="#6e6e6e"/></g></g><g><path d="m181.268 354.191c-4.142 0-7.5-3.358-7.5-7.5v-12c0-4.142 3.358-7.5 7.5-7.5s7.5 3.358 7.5 7.5v12c0 4.142-3.358 7.5-7.5 7.5z"/></g><g><path d="m256 390.663c-17.2 0-31.193-15.258-31.193-34.013 0-23.519 21.859-23.519 31.193-23.519s31.193 0 31.193 23.519c0 18.755-13.993 34.013-31.193 34.013zm0-42.531c-15.539 0-16.193 2.611-16.193 8.519 0 10.484 7.264 19.013 16.193 19.013s16.193-8.529 16.193-19.013c0-5.908-.654-8.519-16.193-8.519z"/></g><g><path d="m330.732 354.191c-4.142 0-7.5-3.358-7.5-7.5v-12c0-4.142 3.358-7.5 7.5-7.5s7.5 3.358 7.5 7.5v12c0 4.142-3.358 7.5-7.5 7.5z"/></g></g><path d="m486.531 297.568c-15.585-18.146-36.871-30.458-60.196-34.932-4.454-15.788-15.486-28.838-29.947-35.986 7.559-9.215 11.774-20.781 11.774-32.937 0-24.566-17.125-45.194-40.06-50.61-4.412-23.134-21.56-41.888-44.44-48.244-20.353-5.653-34.567-24.354-34.567-45.478v-16.287c-.001-18.248-14.847-33.094-33.095-33.094s-33.094 14.846-33.094 33.094v16.288c0 21.124-14.214 39.825-34.567 45.478-22.938 6.372-40.033 25.094-44.439 48.244-22.935 5.416-40.061 26.044-40.061 50.61 0 12.169 4.213 23.726 11.772 32.938-14.455 7.145-25.484 20.189-29.941 35.968-23.127 4.434-44.233 16.568-59.803 34.487-16.68 19.199-25.867 43.794-25.867 69.256 0 25.287 9.075 49.753 25.553 68.892 15.582 18.098 36.83 30.371 60.113 34.836 6.815 24.151 29.032 41.909 55.334 41.909h230c26.302 0 48.519-17.758 55.334-41.909 23.283-4.465 44.531-16.738 60.113-34.836 16.478-19.139 25.553-43.606 25.553-68.892 0-25.24-9.045-49.672-25.469-68.795zm-58.031 23.249c17.131 8.359 28.5 26.008 28.5 45.545 0 19.538-11.368 37.186-28.5 45.545zm-309.662-127.103c0-20.408 16.603-37.012 37.011-37.012h129.817c4.142 0 7.5-3.358 7.5-7.5s-3.358-7.5-7.5-7.5h-126.038c4.479-15.598 16.733-27.947 32.725-32.39 26.821-7.45 45.553-32.094 45.553-59.931v-16.287c0-9.977 8.117-18.094 18.094-18.094s18.094 8.117 18.094 18.094v16.288c0 27.837 18.732 52.481 45.553 59.931 15.951 4.431 28.232 16.8 32.72 32.39h-36.699c-4.142 0-7.5 3.358-7.5 7.5s3.358 7.5 7.5 7.5h40.483c20.408 0 37.011 16.604 37.011 37.012 0 10.708-4.591 20.776-12.618 27.818-3.106-.521-6.291-.807-9.543-.807h-230.001c-3.252 0-6.438.286-9.544.807-8.03-7.043-12.618-17.1-12.618-27.819zm-103.838 172.649c0-41.568 28.895-77.905 68.5-87.9v26.108c-25.801 9.257-43.5 34.1-43.5 61.792 0 27.828 17.651 52.549 43.5 61.802v26.117c-40.132-9.97-68.5-45.765-68.5-87.919zm398.5 88.137c0 23.435-19.065 42.5-42.5 42.5h-230c-23.435 0-42.5-19.065-42.5-42.5v-73.137c0-4.142-3.358-7.5-7.5-7.5s-7.5 3.358-7.5 7.5v30.547c-17.148-8.346-28.5-25.944-28.5-45.547 0-19.506 11.377-37.182 28.5-45.546v30.546c0 4.142 3.358 7.5 7.5 7.5s7.5-3.358 7.5-7.5v-73.137c0-23.435 19.065-42.5 42.5-42.5h230c23.435 0 42.5 19.065 42.5 42.5zm15-.219v-26.125c25.818-9.257 43.5-34.056 43.5-61.794 0-27.737-17.683-52.537-43.5-61.794v-26.12c40.119 9.976 68.5 45.798 68.5 87.914 0 42.155-28.368 77.95-68.5 87.919z"/></g></svg>