<svg id="Capa_1" enable-background="new 0 0 512 512" height="512" viewBox="0 0 512 512" width="512" xmlns="http://www.w3.org/2000/svg"><g><g><path d="m256 256h227.619c.572-6.592.881-13.26.881-20 0-63.099-25.576-120.224-66.926-161.574l-161.574 161.574z" fill="#72bafd"/></g><g><path d="m80.284 411.716c-7.811-7.811-7.811-20.474 0-28.284l323.148-323.148c7.81-7.81 20.474-7.81 28.284 0 7.81 7.81 7.81 20.474 0 28.284l-323.148 323.148c-7.81 7.811-20.474 7.811-28.284 0z" fill="#9ccefd"/></g><g><path d="m372.346 147.938c-7.81 7.81-20.474 7.81-28.284 0s-7.811-20.474 0-28.284l-263.778 263.778c-7.811 7.81-7.811 20.474 0 28.284 7.811 7.81 20.474 7.81 28.284 0z" fill="#72bafd"/></g><g><path d="m355.097 504.5h-198.194c-47.624 0-88.641-33.586-98.035-80.275l-33.848-168.225h461.96l-33.848 168.225c-9.394 46.689-50.41 80.275-98.035 80.275z" fill="#9ccefd"/></g><g><path d="m158.868 424.225-33.848-168.225h-100l33.848 168.225c9.394 46.689 50.411 80.275 98.035 80.275h100c-47.624 0-88.641-33.586-98.035-80.275z" fill="#72bafd"/></g><g><path d="m484.5 276h-457c-11.046 0-20-8.954-20-20 0-11.046 8.954-20 20-20h457c11.046 0 20 8.954 20 20 0 11.046-8.954 20-20 20z" fill="#f7f0eb"/></g><g><path d="m107.5 256c0-11.046 8.954-20 20-20h-100c-11.046 0-20 8.954-20 20s8.954 20 20 20h100c-11.046 0-20-8.954-20-20z" fill="#efe2dd"/></g><g><path d="m216 317.5v-270c0-22.091 17.909-40 40-40 22.091 0 40 17.909 40 40v270c0 22.091-17.909 40-40 40-22.091 0-40-17.909-40-40z" fill="#dceefe"/></g><g><path d="m256 317.5v-270c0-14.803 8.047-27.718 20-34.635-5.885-3.406-12.712-5.365-20-5.365-22.091 0-40 17.909-40 40v270c0 22.091 17.909 40 40 40 7.288 0 14.115-1.959 20-5.365-11.953-6.917-20-19.832-20-34.635z" fill="#c4e2fe"/></g><g><g><g><ellipse cx="172.932" cy="428.322" fill="#fff" rx="30.65" ry="24.408"/></g><g><ellipse cx="339.068" cy="428.166" fill="#fff" rx="30.65" ry="24.408"/></g><g><ellipse cx="255.989" cy="416.908" fill="#6e6e6e" rx="13.712" ry="15.725"/></g></g><g><path d="m190.759 409.971c-6.251 0-12.195-2.703-16.313-7.418-2.725-3.12-2.403-7.858.716-10.582 3.12-2.725 7.857-2.404 10.583.716 1.268 1.452 3.095 2.285 5.014 2.285h.006c1.921-.002 3.749-.838 5.015-2.294 2.721-3.126 7.458-3.454 10.581-.737 3.125 2.718 3.455 7.456.737 10.581-4.112 4.728-10.061 7.444-16.318 7.45-.009-.001-.015-.001-.021-.001z"/></g><g><path d="m321.169 409.848c-6.253 0-12.197-2.704-16.314-7.419-2.724-3.12-2.402-7.858.718-10.582 3.121-2.724 7.858-2.402 10.583.718 1.267 1.452 3.094 2.284 5.013 2.284h.006c1.92-.002 3.748-.838 5.015-2.294 2.719-3.125 7.457-3.454 10.58-.736 3.126 2.719 3.455 7.456.736 10.581-4.112 4.728-10.06 7.443-16.316 7.449-.008-.001-.015-.001-.021-.001z"/></g><g><path d="m256.011 440.133c-.002 0-.016 0-.018 0-11.688 0-21.204-10.41-21.216-23.206-.012-12.807 9.494-23.234 21.19-23.245 11.705 0 21.222 10.41 21.233 23.206.013 12.806-9.493 23.234-21.189 23.245zm-.025-31.45c-3.372.003-6.213 3.772-6.209 8.231.004 4.455 2.851 8.219 6.216 8.219v7.5l.004-7.5c3.367-.003 6.208-3.773 6.204-8.231-.004-4.456-2.849-8.219-6.215-8.219z"/></g></g><path d="m512 256c0-12.596-8.516-23.233-20.089-26.477-1.403-50.974-19.433-100.462-51.133-140.335 2.793-4.371 4.296-9.45 4.296-14.762 0-7.346-2.86-14.251-8.054-19.445-10.723-10.723-28.169-10.721-38.892 0l-94.628 94.628v-102.109c0-26.191-21.309-47.5-47.5-47.5s-47.5 21.309-47.5 47.5v181h-181c-15.163 0-27.5 12.336-27.5 27.5 0 13.568 9.88 24.865 22.821 27.094l28.694 142.611c10.061 50.003 54.382 86.295 105.388 86.295h198.193c51.006 0 95.327-36.292 105.388-86.295l28.695-142.612c12.942-2.229 22.821-13.525 22.821-27.093zm-208.193-85.484 104.928-104.929c4.874-4.875 12.804-4.873 17.678 0 2.36 2.36 3.66 5.5 3.66 8.838s-1.3 6.478-3.661 8.839l-29.156 29.156c-2.929 2.929-2.929 7.678 0 10.606 2.93 2.929 7.678 2.929 10.607 0l22.637-22.637c28.479 36.63 44.78 81.672 46.362 128.109h-173.362v-1.109l83.149-83.149c2.929-2.929 2.929-7.678 0-10.606-2.93-2.929-7.678-2.929-10.607 0l-72.542 72.543v-35.384c.103-.092.208-.178.307-.277zm-80.307-123.016c0-17.92 14.579-32.5 32.5-32.5s32.5 14.58 32.5 32.5v270c0 17.92-14.579 32.5-32.5 32.5s-32.5-14.58-32.5-32.5zm222.279 375.246c-8.656 43.026-46.794 74.254-90.682 74.254h-198.194c-43.889 0-82.026-31.228-90.683-74.254l-28.017-139.246h47.853c4.143 0 7.5-3.358 7.5-7.5s-3.357-7.5-7.5-7.5h-58.556c-6.893 0-12.5-5.607-12.5-12.5s5.607-12.5 12.5-12.5h181v25h-92.442c-4.143 0-7.5 3.358-7.5 7.5s3.357 7.5 7.5 7.5h92.442v34c0 26.191 21.309 47.5 47.5 47.5s47.5-21.309 47.5-47.5v-34h170.297zm38.721-154.246h-181v-25h181c6.893 0 12.5 5.607 12.5 12.5s-5.607 12.5-12.5 12.5z"/></g></svg>