<svg id="Capa_1" enable-background="new 0 0 512.013 512.013" height="512" viewBox="0 0 512.013 512.013" width="512" xmlns="http://www.w3.org/2000/svg"><g><g><path d="m377.679 17.612 28.5 11.08c11.033 4.289 20.186 12.353 25.83 22.758l70.074 129.156c5.077 9.357 1.934 21.051-7.149 26.603l-57.588 35.199s-3.043 140.109-10.397 234.431c-1.218 15.616-14.248 27.676-29.912 27.676h-54.276c-14.741 0-27.373-10.696-29.622-25.264-3.863-25.024-16.542-59.632-57.131-59.632s-53.268 34.609-57.131 59.632c-2.249 14.569-14.881 25.264-29.622 25.264h-54.276c-15.664 0-28.694-12.06-29.912-27.676-7.354-94.322-10.397-234.431-10.397-234.431l-57.588-35.199c-9.083-5.552-12.226-17.246-7.149-26.603l70.071-129.157c5.645-10.404 14.798-18.468 25.83-22.758l28.503-11.081 121.669 74.939z" fill="#fff2b4"/></g><g><path d="m187.622 113.846c0-20.37 2.39-40.18 6.886-59.176l-60.17-37.06-28.503 11.081c-11.033 4.289-20.186 12.353-25.83 22.758l-70.075 129.156c-5.077 9.357-1.934 21.051 7.149 26.603l57.588 35.199s3.043 140.109 10.397 234.431c1.218 15.616 14.248 27.676 29.912 27.676h54.276c14.741 0 27.373-10.696 29.622-25.264 3.863-25.024 16.542-59.632 57.131-59.632s53.268 34.609 57.131 59.632c2.249 14.569 14.881 25.264 29.622 25.264h54.276c15.664 0 28.694-12.06 29.912-27.676 2.558-32.812 4.594-71.161 6.163-107.229-136.506-5.518-245.487-117.901-245.487-255.763z" fill="#ffdf8e"/></g><g><path d="m256.007 113.846c59.136 0 108.675-41.067 121.669-96.236l-22.28-8.662c-10.886-4.232-23.182 1.213-27.251 12.161-10.884 29.28-39.066 50.142-72.137 50.142s-61.253-20.862-72.137-50.142c-4.071-10.948-16.367-16.393-27.253-12.161l-22.28 8.662c12.993 55.17 62.533 96.236 121.669 96.236z" fill="#ffdf8e"/></g><g><path d="m234.709 92.549c0-11.762 9.535-21.298 21.298-21.298-33.071 0-61.253-20.862-72.137-50.142-4.07-10.948-16.366-16.393-27.252-12.161l-22.28 8.662c12.993 55.169 62.533 96.236 121.669 96.236-11.763 0-21.298-9.535-21.298-21.297z" fill="#ffcd6e"/></g><g><path d="m81.304 144.798-6.637 97.608-34.996-21.39 32.015-78.446c2.146-5.257 10.004-3.437 9.618 2.228z" fill="#ffcd6e"/></g><g><path d="m430.709 144.798 6.637 97.608 34.996-21.39-32.015-78.446c-2.146-5.257-10.003-3.437-9.618 2.228z" fill="#ffdf8e"/></g><g><g><path d="m371.007 266.731c0-8.386-3.745-15.894-9.649-20.956 3.517-6.936 4.105-15.305.895-23.053-3.209-7.748-9.543-13.25-16.934-15.668.595-7.754-2.065-15.711-7.995-21.641s-13.887-8.59-21.641-7.995c-2.417-7.391-7.92-13.725-15.668-16.934s-16.117-2.622-23.053.895c-5.062-5.904-12.569-9.649-20.956-9.649-8.386 0-15.894 3.746-20.956 9.649-6.936-3.517-15.305-4.105-23.053-.895-7.748 3.209-13.25 9.543-15.668 16.934-7.754-.595-15.711 2.065-21.641 7.995s-8.59 13.887-7.995 21.641c-7.391 2.417-13.725 7.92-16.934 15.668s-2.622 16.117.895 23.053c-5.904 5.062-9.649 12.569-9.649 20.956s3.745 15.894 9.649 20.956c-3.517 6.936-4.105 15.305-.895 23.053 3.209 7.748 9.543 13.25 16.934 15.668-.595 7.754 2.065 15.711 7.995 21.641s13.887 8.59 21.641 7.995c2.417 7.391 7.92 13.725 15.668 16.934s16.117 2.622 23.053-.895c5.062 5.904 12.569 9.649 20.956 9.649 8.386 0 15.894-3.745 20.956-9.649 6.936 3.517 15.305 4.105 23.053.895 7.748-3.209 13.251-9.543 15.668-16.934 7.754.595 15.711-2.065 21.641-7.995s8.59-13.887 7.995-21.641c7.391-2.417 13.725-7.92 16.934-15.668s2.622-16.117-.895-23.053c5.903-5.062 9.649-12.569 9.649-20.956z" fill="#ffdf8e"/></g></g><g><path d="m338.166 347.158c-70.015-31.69-123.222-93.96-142.587-169.777-7.514-.373-15.151 2.294-20.89 8.033-5.93 5.93-8.59 13.887-7.995 21.641-7.391 2.417-13.725 7.92-16.934 15.668s-2.622 16.117.895 23.053c-5.904 5.062-9.649 12.569-9.649 20.956 0 8.386 3.745 15.894 9.649 20.956-3.517 6.936-4.105 15.305-.895 23.053 3.209 7.748 9.542 13.25 16.934 15.668-.595 7.754 2.065 15.711 7.995 21.641s13.887 8.59 21.641 7.995c2.417 7.391 7.92 13.725 15.668 16.934s16.117 2.622 23.053-.895c5.062 5.904 12.569 9.649 20.956 9.649 8.386 0 15.894-3.745 20.956-9.649 6.936 3.517 15.305 4.105 23.053.895s13.251-9.543 15.668-16.934c7.754.595 15.711-2.065 21.641-7.995.29-.292.566-.592.841-.892z" fill="#ffcd6e"/></g><g><circle cx="256.007" cy="266.731" fill="#eb9b81" r="75"/></g><g><path d="m256.007 341.731c16.974 0 32.626-5.646 45.195-15.152-42.094-28.231-75.341-68.622-94.72-116.146-15.612 13.744-25.475 33.864-25.475 56.299 0 41.421 33.578 74.999 75 74.999z" fill="#d98263"/></g><g><path d="m508.675 177.028-70.074-129.156c-6.483-11.95-17.033-21.244-29.705-26.171l-28.497-11.079c-.002-.001-.004-.002-.006-.003l-22.28-8.662c-7.183-2.792-15.009-2.591-22.034.564-6.988 3.138-12.303 8.811-14.966 15.973-10.062 27.069-36.227 45.256-65.106 45.256-28.881 0-55.045-18.187-65.107-45.256-2.662-7.163-7.977-12.835-14.965-15.973-7.027-3.157-14.852-3.357-22.034-.564l-22.281 8.663c-.001 0-.002.001-.004.002l-28.499 11.08c-12.672 4.926-23.221 14.221-29.705 26.171l-70.074 129.155c-6.985 12.874-2.667 28.941 9.83 36.579l54.096 33.064c.303 12.717 1.341 53.484 3.228 101.155.16 4.038 3.483 7.204 7.489 7.204.1 0 .201-.002.302-.006 4.139-.164 7.361-3.652 7.198-7.791-2.219-56.065-3.26-102.54-3.312-104.892.008-36.297 6.526-96.124 6.592-96.725.452-4.117-2.52-7.821-6.637-8.273-4.113-.46-7.821 2.52-8.273 6.637-.242 2.207-5.317 48.791-6.456 85.19l-46.405-28.362c-5.68-3.472-7.643-10.775-4.468-16.626l70.074-129.156c4.792-8.833 12.59-15.702 21.956-19.344l20.757-8.07c7.748 25.268 23.091 47.995 43.867 64.656 23.382 18.751 52.798 29.079 82.83 29.079 27.283 0 53.486-8.229 75.776-23.796 3.396-2.372 4.227-7.047 1.854-10.443-2.371-3.396-7.047-4.227-10.442-1.854-19.76 13.8-42.992 21.094-67.188 21.094-52.614 0-98.069-34.293-112.708-84.173l16.038-6.235c3.408-1.324 7.121-1.229 10.454.268 3.294 1.479 5.798 4.148 7.05 7.516 12.235 32.915 44.049 55.029 79.167 55.029 35.117 0 66.932-22.115 79.167-55.029 1.252-3.368 3.755-6.037 7.05-7.516 3.335-1.497 7.047-1.592 10.454-.268l16.03 6.232c-4.811 16.256-13.188 31.444-24.45 44.248-2.735 3.11-2.432 7.849.679 10.585 3.109 2.735 7.849 2.433 10.585-.678 12.42-14.121 21.723-30.82 27.203-48.706l20.737 8.062c9.366 3.642 17.164 10.511 21.956 19.344l70.074 129.156c3.175 5.852 1.212 13.155-4.468 16.626l-46.404 28.361c-1.138-36.4-6.213-82.984-6.456-85.19-.451-4.116-4.137-7.094-8.273-6.637-4.117.452-7.089 4.156-6.637 8.273.065.601 6.584 60.428 6.592 96.724-.085 3.866-3.186 141.725-10.375 233.913-.907 11.641-10.762 20.759-22.435 20.759h-54.276c-10.998 0-20.547-8.129-22.211-18.908-6.567-42.554-29.489-65.989-64.543-65.989-35.052 0-57.974 23.435-64.543 65.988-1.664 10.78-11.212 18.909-22.21 18.909h-54.276c-11.672 0-21.527-9.119-22.435-20.759-2.086-26.756-4.025-59.828-5.763-98.295-.187-4.138-3.69-7.333-7.831-7.154-4.138.187-7.341 3.693-7.154 7.831 1.745 38.631 3.694 71.867 5.793 98.785 1.512 19.398 17.936 34.593 37.389 34.593h54.276c18.631 0 34.207-13.298 37.035-31.62 3.752-24.305 15.424-53.277 49.719-53.277 34.297 0 45.968 28.972 49.719 53.277 2.828 18.322 18.404 31.62 37.035 31.62h54.275c19.453 0 35.877-15.195 37.39-34.593 6.584-84.444 9.751-206.895 10.323-230.749l54.097-33.064c12.497-7.639 16.815-23.706 9.83-36.579z"/><path d="m141.849 289.438c-2.534 7.87-2.226 16.426.982 24.172 3.208 7.745 9.041 14.013 16.397 17.786.67 8.241 4.229 16.028 10.157 21.956 5.947 5.947 13.658 9.496 21.957 10.159 3.773 7.355 10.041 13.188 17.785 16.396 4.288 1.776 8.799 2.676 13.409 2.676 3.639 0 7.284-.58 10.76-1.697 6.302 5.354 14.326 8.345 22.71 8.345 8.385 0 16.408-2.991 22.71-8.345 3.477 1.117 7.121 1.697 10.761 1.697 4.609 0 9.121-.9 13.408-2.676 7.744-3.208 14.012-9.039 17.785-16.396 8.299-.663 16.01-4.212 21.957-10.159 5.927-5.928 9.486-13.715 10.157-21.956 7.356-3.773 13.189-10.042 16.397-17.786 3.207-7.745 3.516-16.302.981-24.171 5.353-6.301 8.343-14.325 8.343-22.708s-2.99-16.406-8.343-22.707c2.534-7.87 2.226-16.426-.981-24.171-3.208-7.745-9.041-14.013-16.397-17.787-.671-8.241-4.23-16.028-10.157-21.956-5.947-5.947-13.657-9.496-21.957-10.159-3.773-7.356-10.041-13.188-17.785-16.396-4.287-1.776-8.798-2.676-13.408-2.676-3.64 0-7.284.58-10.761 1.697-6.302-5.354-14.326-8.345-22.71-8.345s-16.408 2.991-22.71 8.345c-3.477-1.117-7.121-1.697-10.76-1.697-4.61 0-9.121.9-13.409 2.676-7.744 3.208-14.012 9.04-17.785 16.396-8.299.664-16.01 4.212-21.957 10.159-5.928 5.928-9.487 13.714-10.157 21.956-7.356 3.773-13.189 10.041-16.397 17.786s-3.517 16.301-.982 24.172c-5.353 6.301-8.342 14.324-8.342 22.707s2.989 16.406 8.342 22.707zm13.688-37.969c2.625-2.25 3.371-6.002 1.807-9.085-2.662-5.25-2.901-11.37-.655-16.791s6.742-9.58 12.336-11.409c3.286-1.074 5.412-4.255 5.147-7.703-.451-5.869 1.671-11.614 5.82-15.764 3.792-3.792 8.837-5.879 14.208-5.879.517 0 1.041.02 1.556.06 3.446.262 6.629-1.861 7.703-5.147 1.829-5.594 5.988-10.09 11.409-12.336 5.396-2.235 11.602-1.976 16.791.655 3.083 1.564 6.835.818 9.086-1.807 3.831-4.468 9.394-7.031 15.262-7.031s11.431 2.563 15.263 7.032c2.251 2.624 6.003 3.37 9.086 1.807 5.187-2.631 11.394-2.891 16.79-.655 5.421 2.246 9.58 6.742 11.41 12.337 1.074 3.285 4.257 5.406 7.702 5.146.516-.04 1.039-.06 1.556-.06 5.371 0 10.416 2.088 14.207 5.879 4.149 4.149 6.271 9.896 5.82 15.764-.264 3.447 1.861 6.628 5.147 7.702 5.594 1.83 10.09 5.988 12.336 11.409 2.245 5.422 2.007 11.542-.655 16.791-1.564 3.083-.817 6.836 1.807 9.086 4.469 3.831 7.031 9.394 7.031 15.262s-2.563 11.431-7.031 15.262c-2.624 2.25-3.371 6.003-1.807 9.086 2.661 5.249 2.9 11.369.655 16.791-2.245 5.42-6.742 9.579-12.337 11.409-3.285 1.075-5.41 4.255-5.146 7.702.45 5.869-1.671 11.615-5.82 15.764-3.791 3.792-8.837 5.88-14.207 5.879-.518 0-1.041-.02-1.556-.06-3.465-.267-6.629 1.861-7.702 5.146-1.83 5.595-5.989 10.091-11.41 12.337-5.396 2.235-11.604 1.976-16.792-.655-3.081-1.563-6.835-.816-9.085 1.808-3.831 4.468-9.394 7.031-15.262 7.031s-11.431-2.563-15.262-7.031c-1.463-1.706-3.561-2.619-5.696-2.619-1.149 0-2.311.264-3.389.812-5.188 2.631-11.394 2.89-16.791.655-5.421-2.246-9.58-6.742-11.41-12.336-1.074-3.286-4.249-5.403-7.703-5.146-.515.04-1.039.06-1.556.06-5.37 0-10.416-2.088-14.208-5.879-4.149-4.149-6.271-9.895-5.82-15.764.265-3.447-1.861-6.628-5.146-7.703-5.595-1.83-10.091-5.988-12.336-11.409-2.246-5.422-2.007-11.542.655-16.791 1.563-3.083.817-6.835-1.807-9.085-4.468-3.832-7.031-9.395-7.031-15.262s2.562-11.433 7.03-15.265z"/><path d="m256.007 349.231c45.49 0 82.5-37.009 82.5-82.5s-37.01-82.5-82.5-82.5c-45.491 0-82.5 37.009-82.5 82.5s37.009 82.5 82.5 82.5zm0-150c37.22 0 67.5 30.28 67.5 67.5s-30.28 67.5-67.5 67.5-67.5-30.28-67.5-67.5 30.28-67.5 67.5-67.5z"/></g></g></svg>