<svg id="Capa_1" enable-background="new 0 0 512 512" height="512" viewBox="0 0 512 512" width="512" xmlns="http://www.w3.org/2000/svg"><g><g><g><path d="m7.5 337.772c0 54.2 43.937 98.137 98.137 98.137h300.726c54.2 0 98.137-43.938 98.137-98.137 0-54.2-43.938-98.137-98.137-98.137h-300.726c-54.2 0-98.137 43.937-98.137 98.137zm398.863 58.137h-300.726c-32.108 0-58.137-26.029-58.137-58.137 0-32.108 26.029-58.137 58.137-58.137h300.726c32.108 0 58.137 26.029 58.137 58.137 0 32.108-26.029 58.137-58.137 58.137z" fill="#fdb3cd"/></g></g><g><path d="m105.637 435.909h300.726c54.2 0 98.137-43.938 98.137-98.137 0 11.046-8.954 20-20 20s-20-8.954-20-20c0 32.108-26.029 58.137-58.137 58.137h-300.726c-32.108 0-58.137-26.029-58.137-58.137 0 11.046-8.954 20-20 20s-20-8.954-20-20c0 54.2 43.938 98.137 98.137 98.137z" fill="#fda0c1"/></g><g><path d="m155.849 27.5v110.161h100l-33.853-110.161z" fill="#fda0c1"/></g><g><path d="m155.849 27.5h40v110.161h-40z" fill="#fc90b4"/></g><g><path d="m356.151 182.172h-200.302c-24.583 0-44.511-19.928-44.511-44.511 0-24.583 19.928-44.511 44.511-44.511h200.301c24.583 0 44.511 19.928 44.511 44.511.001 24.583-19.928 44.511-44.51 44.511z" fill="#fdb3cd"/></g><g><path d="m191.338 137.661c0-24.583 19.928-44.511 44.511-44.511h-80c-24.583 0-44.511 19.928-44.511 44.511 0 24.583 19.928 44.511 44.511 44.511h80c-24.582 0-44.511-19.928-44.511-44.511z" fill="#fda0c1"/></g><g><path d="m423.71 217.296c0-9.206-3.018-17.051-7.242-23.523-9.396-14.395-25.738-22.728-42.927-22.728h-235.082c-17.19 0-33.531 8.333-42.927 22.728-4.225 6.472-7.242 14.317-7.242 23.523 0 30.688 15.344 64.216 15.344 120.477 0 56.26-15.344 89.789-15.344 120.477 0 9.206 3.018 17.051 7.242 23.523 9.396 14.395 25.738 22.728 42.927 22.728h235.082c17.19 0 33.531-8.333 42.927-22.728 4.225-6.472 7.242-14.317 7.242-23.523 0-30.687-15.344-64.216-15.344-120.477.001-56.261 15.344-89.79 15.344-120.477z" fill="#f7f0eb"/></g><g><path d="m175.532 481.772c-4.225-6.472-7.242-14.317-7.242-23.523 0-30.687 15.344-64.216 15.344-120.477 0-56.26-15.344-89.789-15.344-120.477 0-9.206 3.018-17.051 7.242-23.523 9.396-14.395 25.737-22.728 42.927-22.728h-80c-17.19 0-33.531 8.333-42.927 22.728-4.225 6.472-7.242 14.317-7.242 23.523 0 30.688 15.344 64.216 15.344 120.477 0 56.26-15.344 89.789-15.344 120.477 0 9.206 3.018 17.052 7.242 23.523 9.396 14.395 25.737 22.728 42.927 22.728h80c-17.19 0-33.531-8.333-42.927-22.728z" fill="#efe2dd"/></g><g><g><g><ellipse cx="172.435" cy="344.585" fill="#fda0c1" rx="30.834" ry="24.555"/></g><g><ellipse cx="339.565" cy="344.585" fill="#fda0c1" rx="30.834" ry="24.555"/></g></g><g><path d="m190.404 328.146c-4.143 0-7.5-3.358-7.5-7.5v-12c0-4.142 3.357-7.5 7.5-7.5s7.5 3.358 7.5 7.5v12c0 4.142-3.357 7.5-7.5 7.5z"/></g><g><path d="m256 335.951c-8.796 0-17.16-3.809-22.948-10.451-2.722-3.123-2.396-7.86.727-10.582 3.121-2.721 7.859-2.396 10.582.727 2.938 3.372 7.181 5.306 11.64 5.306s8.701-1.934 11.64-5.306c2.72-3.123 7.458-3.448 10.582-.727 3.122 2.722 3.448 7.459.727 10.582-5.79 6.642-14.154 10.451-22.95 10.451z"/></g><g><path d="m337.818 327.811c-4.143 0-7.5-3.358-7.5-7.5 0-3.532-2.874-6.406-6.406-6.406s-6.406 2.874-6.406 6.406c0 4.142-3.357 7.5-7.5 7.5s-7.5-3.358-7.5-7.5c0-11.803 9.603-21.406 21.406-21.406s21.406 9.603 21.406 21.406c0 4.142-3.357 7.5-7.5 7.5z"/></g></g><g><path d="m226 47.5h-70c-11.046 0-20-8.954-20-20 0-11.046 8.954-20 20-20h70c11.046 0 20 8.954 20 20 0 11.046-8.954 20-20 20z" fill="#fdb3cd"/></g><g><path d="m176 27.5c0-11.046 8.954-20 20-20h-40c-11.046 0-20 8.954-20 20 0 11.046 8.954 20 20 20h40c-11.046 0-20-8.954-20-20z" fill="#fda0c1"/></g><path d="m486.513 268.957c-14.788-17.209-34.702-29.162-56.618-34.162.816-5.946 1.316-11.728 1.316-17.5 0-9.726-2.848-19.02-8.463-27.623-6.118-9.373-14.772-16.577-24.832-21.025 6.593-8.891 10.246-19.739 10.246-30.986 0-28.679-23.332-52.012-52.012-52.012h-108.438l-10.198-33.185c9.427-4.365 15.986-13.91 15.986-24.964 0-15.164-12.337-27.5-27.5-27.5h-70c-15.163 0-27.5 12.336-27.5 27.5 0 12.509 8.398 23.086 19.85 26.409v32.288c-25.138 3.647-44.512 25.332-44.512 51.464 0 11.247 3.653 22.094 10.246 30.986-10.06 4.448-18.714 11.652-24.832 21.025-5.615 8.603-8.463 17.897-8.463 27.623 0 5.771.5 11.553 1.316 17.498-21.958 5.01-41.91 17.005-56.703 34.262-16.381 19.111-25.402 43.515-25.402 68.717 0 25.169 9 49.548 25.343 68.646 14.796 17.292 34.773 29.316 56.762 34.333-.816 5.945-1.316 11.727-1.316 17.497 0 9.727 2.848 19.02 8.463 27.623 10.679 16.361 29.074 26.129 49.207 26.129h235.082c20.133 0 38.528-9.768 49.207-26.128 5.615-8.603 8.463-17.896 8.463-27.623 0-5.771-.5-11.554-1.316-17.5 21.914-4.999 41.828-16.951 56.616-34.159 16.436-19.127 25.489-43.567 25.489-68.818 0-25.25-9.052-49.689-25.487-68.815zm-70.646 68.815c0-18.575 1.7-34.515 3.977-48.814 21.58 5.964 37.156 25.899 37.156 48.815 0 22.904-15.58 42.848-37.156 48.813-2.277-14.299-3.977-30.239-3.977-48.814zm-193.266-282.772 9.419 30.649h-68.67v-30.649zm-79.101-27.5c0-6.893 5.607-12.5 12.5-12.5h70c6.893 0 12.5 5.607 12.5 12.5s-5.607 12.5-12.5 12.5h-70c-6.893 0-12.5-5.607-12.5-12.5zm-128.5 310.272c0-42.474 28.919-78.581 69.614-88.17.711 3.68 1.483 7.458 2.282 11.368.87 4.257 1.762 8.636 2.635 13.161-23.035 5.782-41.266 23.6-47.388 46.958-1.05 4.007 1.347 8.106 5.354 9.156.638.167 1.276.247 1.906.247 3.327 0 6.367-2.231 7.25-5.601 4.629-17.661 18.233-31.212 35.503-35.94 2.278 14.301 3.978 30.243 3.978 48.821 0 18.575-1.7 34.516-3.977 48.815-17.563-4.884-31.609-19.237-35.822-37.208-.944-4.034-4.979-6.534-9.014-5.591-4.032.945-6.535 4.981-5.59 9.014 5.569 23.761 24.401 42.635 47.803 48.597-.873 4.53-1.767 8.915-2.638 13.178-.799 3.909-1.57 7.687-2.281 11.367-40.687-9.594-69.615-45.724-69.615-88.172zm395.188 139.901c-7.9 12.102-21.599 19.327-36.647 19.327h-235.082c-15.048 0-28.747-7.225-36.646-19.327-3.997-6.124-6.023-12.659-6.023-19.424 0-12.278 2.688-25.435 5.803-40.67 4.251-20.801 9.541-46.688 9.541-79.807s-5.29-59.006-9.541-79.806c-3.114-15.235-5.803-28.393-5.803-40.67 0-6.765 2.026-13.301 6.023-19.424 7.899-12.102 21.599-19.327 36.646-19.327h170.453c4.143 0 7.5-3.358 7.5-7.5s-3.357-7.5-7.5-7.5h-170.453c-2.865 0-5.693.205-8.47.591-7.108-6.949-11.151-16.492-11.151-26.474 0-20.408 16.604-37.012 37.012-37.012h200.3c20.408 0 37.012 16.604 37.012 37.012 0 9.983-4.043 19.526-11.152 26.474-2.777-.386-5.605-.591-8.469-.591h-35.723c-4.143 0-7.5 3.358-7.5 7.5s3.357 7.5 7.5 7.5h35.723c15.048 0 28.747 7.225 36.646 19.327 3.997 6.123 6.023 12.659 6.023 19.424 0 12.278-2.688 25.435-5.803 40.67-4.251 20.8-9.541 46.687-9.541 79.806s5.29 59.006 9.541 79.807c3.114 15.235 5.803 28.392 5.803 40.67.001 6.765-2.025 13.3-6.022 19.424zm17.198-51.728c-.711-3.681-1.483-7.459-2.282-11.369-.871-4.262-1.764-8.647-2.637-13.177 28.676-7.264 49.533-33.463 49.533-63.627 0-30.178-20.852-56.363-49.533-63.626.873-4.53 1.766-8.914 2.638-13.177.799-3.91 1.571-7.688 2.282-11.369 40.706 9.585 69.613 45.661 69.613 88.172 0 42.513-28.906 78.588-69.614 88.173z"/></g></svg>