<svg id="Capa_1" enable-background="new 0 0 512.003 512.003" height="512" viewBox="0 0 512.003 512.003" width="512" xmlns="http://www.w3.org/2000/svg"><g><g><path d="m482.398 158.065c-6.878-50.695-30.366-96.112-64.824-130.57l-130.57 130.57z" fill="#72bafd"/></g><g><path d="m315.289 158.065 116.427-116.427c7.81-7.81 7.81-20.474 0-28.284-7.81-7.81-20.474-7.81-28.284 0l-144.712 144.711z" fill="#9ccefd"/></g><g><path d="m258.72 158.065h56.569l57.058-57.058c-7.81 7.81-20.474 7.81-28.284 0s-7.811-20.474 0-28.284z" fill="#72bafd"/></g><g><path d="m94.069 423.491 167.431-167.432c7.81-7.81 7.81-20.474 0-28.284-7.81-7.81-20.474-7.81-28.284 0l-195.716 195.716z" fill="#efe2dd"/></g><g><path d="m417.931 423.491-167.431-167.432c-7.81-7.81-7.81-20.474 0-28.284 7.81-7.81 20.474-7.81 28.284 0l195.716 195.716z" fill="#efe2dd"/></g><g><path d="m256 366.565c-104.888 0-196.551-70.811-223.038-172.299l-4.228-16.201h454.532l-4.228 16.201c-26.487 101.488-118.15 172.299-223.038 172.299z" fill="#9ccefd"/></g><g><path d="m256 248.658v-70.593h-227.266l4.228 16.201c26.487 101.488 118.15 172.299 223.038 172.299-32.559 0-58.954-26.394-58.954-58.954 0-32.559 26.395-58.953 58.954-58.953z" fill="#72bafd"/></g><g><path d="m28.734 158.45v90c0 20.919 16.958 37.878 37.878 37.878 20.919 0 37.878-16.958 37.878-37.878 0 20.919 16.958 37.878 37.878 37.878 20.919 0 37.878-16.958 37.878-37.878 0 20.919 16.958 37.878 37.878 37.878 20.919 0 37.878-16.958 37.878-37.878 0 20.919 16.958 37.878 37.878 37.878 20.919 0 37.878-16.958 37.878-37.878 0 20.919 16.958 37.878 37.878 37.878 20.919 0 37.878-16.958 37.878-37.878 0 20.919 16.958 37.878 37.878 37.878 20.919 0 37.878-16.958 37.878-37.878v-90z" fill="#dceefe"/></g><g><g><path d="m142.984 248.45v-90h-114.25v90c0 20.919 16.958 37.878 37.878 37.878 20.919 0 37.878-16.958 37.878-37.878 0 20.919 16.958 37.878 37.878 37.878 7.029 0 13.606-1.921 19.247-5.257-11.15-6.594-18.631-18.731-18.631-32.621z" fill="#c4e2fe"/></g></g><g><g><path d="m206 222.894c-4.143 0-7.5-3.358-7.5-7.5v-9.608c0-4.142 3.357-7.5 7.5-7.5s7.5 3.358 7.5 7.5v9.608c0 4.142-3.357 7.5-7.5 7.5z"/></g><g><path d="m306 222.894c-4.143 0-7.5-3.358-7.5-7.5v-9.608c0-4.142 3.357-7.5 7.5-7.5s7.5 3.358 7.5 7.5v9.608c0 4.142-3.357 7.5-7.5 7.5z"/></g><g><path d="m256 228.614c-7.219 0-14.084-3.126-18.836-8.577-2.722-3.122-2.397-7.86.725-10.582 3.124-2.722 7.86-2.397 10.582.725 1.902 2.182 4.646 3.434 7.529 3.434s5.627-1.251 7.529-3.434c2.721-3.123 7.458-3.448 10.582-.725 3.122 2.722 3.446 7.459.725 10.582-4.752 5.451-11.617 8.577-18.836 8.577z"/></g></g><g><path d="m484.5 178.065h-457c-11.046 0-20-8.954-20-20 0-11.046 8.954-20 20-20h457c11.046 0 20 8.954 20 20 0 11.046-8.954 20-20 20z" fill="#9ccefd"/></g><g><path d="m107.5 158.065c0-11.046 8.954-20 20-20h-100c-11.046 0-20 8.954-20 20s8.954 20 20 20h100c-11.046 0-20-8.954-20-20z" fill="#72bafd"/></g><g><g><path d="m256.001 504.495c-79.167 0-140.746-25.607-178.464-47.088-41.168-23.446-63.692-47.127-64.631-48.124-7.506-7.97-7.131-20.516.839-28.022 7.96-7.496 20.485-7.13 27.994.809.455.475 20.508 21.227 56.74 41.634 48.473 27.302 101.47 41.144 157.522 41.144 56.051 0 109.051-13.848 157.528-41.159 36.475-20.549 56.556-41.448 56.755-41.656 7.506-7.972 20.034-8.328 28.005-.823 7.971 7.506 8.33 20.07.824 28.041-.939.997-23.467 24.686-64.638 48.14-37.723 21.489-99.307 47.104-178.474 47.104z" fill="#f7f0eb"/></g></g><g><path d="m236.013 484.495c0-9.849 7.125-18.016 16.497-19.674-54.761-.564-106.566-14.383-154.031-41.117-36.233-20.407-56.285-41.159-56.74-41.634-7.509-7.939-20.034-8.305-27.994-.809-7.97 7.506-8.345 20.053-.839 28.022.939.997 23.463 24.678 64.631 48.124 37.718 21.481 99.297 47.088 178.464 47.088h.01c-11.045-.001-19.998-8.955-19.998-20z" fill="#efe2dd"/></g><path d="m503.431 375.749c-10.972-10.327-28.287-9.818-38.563 1.096-.096.1-4.917 5.07-13.963 12.444l-58.313-58.312c15.547-10.904 29.874-23.732 42.627-38.321 3.272.753 6.671 1.172 10.169 1.172 25.021 0 45.377-20.356 45.377-45.378v-63.613c12.154-2.845 21.235-13.764 21.235-26.772 0-15.113-12.255-27.415-27.35-27.496-8.171-31.994-23.255-62.347-43.884-88.304 6.773-10.634 5.529-24.939-3.746-34.215-10.723-10.722-28.169-10.723-38.892 0l-122.516 122.515h-248.112c-15.164 0-27.5 12.336-27.5 27.5 0 13.008 9.081 23.927 21.234 26.771v63.613c0 25.021 20.356 45.378 45.377 45.378 3.498 0 6.896-.419 10.169-1.172 12.753 14.587 27.081 27.416 42.629 38.32l-58.324 58.325c-9.022-7.355-13.819-12.301-13.897-12.384-10.331-10.922-27.64-11.424-38.586-1.114-5.313 5.004-8.358 11.777-8.577 19.073-.218 7.295 2.418 14.239 7.422 19.551.97 1.03 24.235 25.498 66.379 49.5 38.505 21.93 101.366 48.071 182.176 48.071 80.809 0 143.677-26.15 182.187-48.088 42.162-24.019 65.417-48.486 66.385-49.515 10.337-10.981 9.824-28.316-1.143-38.645zm-64.519 22.762c-6.092 4.428-13.201 9.225-21.265 14.09l-60.887-60.887c7.885-3.684 15.566-7.806 23.012-12.342zm-8.411-345.052c17.779 22.875 31.003 49.28 38.639 77.106h-115.744zm-21.766-34.802c4.874-4.875 12.805-4.874 17.677 0 4.874 4.874 4.874 12.804 0 17.678l-94.23 94.231h-35.355zm-372.501 229.792v-62.884h155.766c4.143 0 7.5-3.358 7.5-7.5s-3.357-7.5-7.5-7.5h-164.5c-6.893 0-12.5-5.607-12.5-12.5s5.607-12.5 12.5-12.5h457c6.893 0 12.5 5.607 12.5 12.5s-5.607 12.5-12.5 12.5h-263.5c-4.143 0-7.5 3.358-7.5 7.5s3.357 7.5 7.5 7.5h254.766v62.884c0 16.75-13.627 30.378-30.377 30.378s-30.378-13.627-30.378-30.378c0-4.142-3.357-7.5-7.5-7.5s-7.5 3.358-7.5 7.5c0 16.75-13.628 30.378-30.378 30.378s-30.377-13.627-30.377-30.378c0-4.142-3.357-7.5-7.5-7.5s-7.5 3.358-7.5 7.5c0 16.75-13.628 30.378-30.378 30.378s-30.378-13.627-30.378-30.378c0-4.142-3.357-7.5-7.5-7.5s-7.5 3.358-7.5 7.5c0 16.75-13.628 30.378-30.378 30.378s-30.377-13.627-30.377-30.378c0-4.142-3.357-7.5-7.5-7.5s-7.5 3.358-7.5 7.5c0 16.75-13.628 30.378-30.378 30.378s-30.378-13.627-30.378-30.378c0-4.142-3.357-7.5-7.5-7.5s-7.5 3.358-7.5 7.5c0 16.75-13.628 30.378-30.378 30.378s-30.377-13.627-30.377-30.378zm55.117 38.008c5.217-3.407 9.702-7.847 13.138-13.043 8.127 12.291 22.071 20.414 37.878 20.414s29.75-8.123 37.878-20.414c8.127 12.291 22.071 20.414 37.877 20.414 15.807 0 29.751-8.123 37.878-20.414 8.127 12.291 22.071 20.414 37.878 20.414s29.75-8.123 37.878-20.414c8.127 12.291 22.071 20.414 37.877 20.414 15.807 0 29.751-8.123 37.878-20.414 3.436 5.196 7.921 9.636 13.138 13.043-42.244 46.236-101.785 72.608-164.649 72.608-62.856 0-122.407-26.373-164.649-72.608zm40.878 52.912c7.447 4.536 15.127 8.658 23.012 12.342l-60.897 60.896c-8.068-4.866-15.177-9.662-21.267-14.087zm361.422 64.741c-.907.963-22.659 23.846-62.89 46.764-36.935 21.041-97.235 46.122-174.761 46.122s-137.822-25.072-174.752-46.105c-40.212-22.901-61.976-45.786-62.884-46.75-2.257-2.396-3.445-5.528-3.347-8.818s1.472-6.345 3.867-8.602c4.939-4.649 12.746-4.423 17.437.537.853.891 21.322 22.055 58.477 42.981 49.607 27.942 103.844 42.109 161.202 42.109 12.143 0 24.319-.647 36.19-1.924 4.119-.443 7.099-4.141 6.655-8.259-.443-4.118-4.128-7.096-8.259-6.655-11.341 1.22-22.978 1.838-34.587 1.838-52.557 0-102.356-12.466-148.134-37.049l62.255-62.254c27.066 10.466 56.123 16.02 85.878 16.02 29.759 0 58.815-5.553 85.88-16.019l62.249 62.249c-26.832 14.405-55.27 24.735-84.627 30.725-4.059.828-6.678 4.79-5.85 8.848s4.789 6.677 8.848 5.849c32.985-6.73 64.85-18.673 94.711-35.496 37.26-20.991 57.646-42.12 58.533-43.049 4.649-4.937 12.456-5.162 17.403-.504 4.949 4.66 5.175 12.483.506 17.442z"/></g></svg>