<svg id="Capa_1" enable-background="new 0 0 512 512" height="512" viewBox="0 0 512 512" width="512" xmlns="http://www.w3.org/2000/svg"><g><g><path d="m383.099 182.754v-48.156c0-70.194-56.904-127.098-127.099-127.098-70.195 0-127.098 56.904-127.098 127.098v48.156c0 16.679-13.521 30.201-30.201 30.201-16.679 0-30.201 13.521-30.201 30.201v98.844h375v-98.844c0-16.679-13.521-30.201-30.201-30.201-16.679 0-30.2-13.521-30.2-30.201z" fill="#7fd196"/></g><g><path d="m256 47.5c-11.046 0-20-8.954-20-20s8.954-20 20-20c-70.195 0-127.098 56.904-127.098 127.098v48.156c0 16.679-13.521 30.201-30.201 30.201-16.679 0-30.201 13.521-30.201 30.201v98.844h187.5z" fill="#6bc17f"/></g><g><path d="m168.901 342v-207.401c0-48.103 38.995-87.099 87.099-87.099 48.103 0 87.099 38.995 87.099 87.099v207.401z" fill="#6bc17f"/></g><g><path d="m422.534 309.95-3.1-.544c-40.856-7.175-77.876-27.998-106.062-58.432-14.435-15.586-33.8-29.224-57.371-29.224s-42.936 13.638-57.371 29.224c-28.186 30.434-65.206 51.257-106.062 58.432l-3.1.544c-20.685 3.633-36.896 19.805-40.577 40.482l-23.871 134.068h461.96l-23.87-134.068c-3.68-20.676-19.891-36.849-40.576-40.482z" fill="#9edcae"/></g><g><path d="m290.276 464.5c-67.034 0-121.375-54.341-121.375-121.375v-65.944c-22.636 16.187-48.599 27.354-76.335 32.225l-3.1.544c-20.685 3.633-36.896 19.805-40.577 40.482l-23.869 134.068h265.257v-20z" fill="#7fd196"/></g><g><path d="m484.5 464.5h-457c-11.046 0-20 8.954-20 20 0 11.046 8.954 20 20 20h457c11.046 0 20-8.954 20-20 0-11.046-8.954-20-20-20z" fill="#9edcae"/></g><g><path d="m107.5 484.5c0 11.046 8.954 20 20 20h-100c-11.046 0-20-8.954-20-20s8.954-20 20-20h100c-11.046 0-20 8.954-20 20z" fill="#7fd196"/></g><g><g><g><ellipse cx="172.153" cy="378.765" fill="#fff" rx="30.938" ry="24.637"/></g><g><ellipse cx="339.847" cy="378.765" fill="#fff" rx="30.938" ry="24.637"/></g><g><ellipse cx="256" cy="359.835" fill="#6e6e6e" rx="16.423" ry="18.377"/></g></g><g><path d="m177.325 356.534c-4.142 0-7.5-3.358-7.5-7.5v-12c0-4.142 3.358-7.5 7.5-7.5s7.5 3.358 7.5 7.5v12c0 4.142-3.358 7.5-7.5 7.5z"/></g><g><path d="m256 385.712c-13.191 0-23.922-11.608-23.922-25.877s10.731-25.876 23.922-25.876 23.922 11.608 23.922 25.876c0 14.269-10.731 25.877-23.922 25.877zm0-36.754c-4.92 0-8.922 4.879-8.922 10.876 0 5.998 4.002 10.877 8.922 10.877s8.922-4.879 8.922-10.877c0-5.997-4.002-10.876-8.922-10.876z"/></g><g><path d="m334.675 356.534c-4.142 0-7.5-3.358-7.5-7.5v-12c0-4.142 3.358-7.5 7.5-7.5s7.5 3.358 7.5 7.5v12c0 4.142-3.358 7.5-7.5 7.5z"/></g></g><path d="m489.794 457.516-19.299-108.398c-2.395-13.451-9.481-25.292-19.495-33.78v-72.182c0-20.788-16.913-37.701-37.701-37.701-12.517 0-22.701-10.184-22.701-22.701v-48.156c.001-74.217-60.38-134.598-134.598-134.598s-134.599 60.381-134.599 134.599v48.156c0 12.517-10.184 22.701-22.701 22.701-20.787-.001-37.7 16.912-37.7 37.7v71.344c0 .271.016.538.044.801-10.037 8.49-17.141 20.346-19.539 33.816l-19.299 108.399c-12.638 2.476-22.206 13.631-22.206 26.984 0 15.164 12.336 27.5 27.5 27.5h457c15.164 0 27.5-12.336 27.5-27.5 0-13.353-9.567-24.508-22.206-26.984zm-413.794-214.36c0-12.517 10.184-22.701 22.701-22.701 20.788 0 37.701-16.913 37.701-37.701v-48.156c-.001-65.946 53.651-119.598 119.598-119.598s119.599 53.652 119.599 119.599v48.156c0 20.788 16.913 37.701 37.701 37.701 12.517 0 22.701 10.184 22.701 22.701v62.985c-3.863-1.618-7.935-2.833-12.169-3.577l-3.101-.545c-24.924-4.377-48.906-14.318-70.132-28.807v-138.614c0-19.601-5.942-38.406-17.185-54.382-2.384-3.388-7.063-4.202-10.45-1.818s-4.201 7.063-1.817 10.45c9.455 13.437 14.453 29.256 14.453 45.75v127.224c-5.873-4.945-11.466-10.266-16.725-15.945-19.436-20.986-40.59-31.627-62.874-31.627s-43.438 10.641-62.874 31.627c-5.259 5.679-10.852 11-16.725 15.945v-127.224c-.001-43.891 35.707-79.599 79.598-79.599 16.296 0 31.959 4.888 45.297 14.136 3.404 2.359 8.077 1.513 10.437-1.89 2.36-3.404 1.514-8.077-1.89-10.437-15.86-10.996-34.479-16.809-53.844-16.809-52.162 0-94.599 42.437-94.599 94.599v138.613c-21.226 14.49-45.208 24.431-70.131 28.807l-3.101.545c-4.234.743-8.306 1.959-12.169 3.577zm408.5 253.844h-457c-6.893 0-12.5-5.607-12.5-12.5s5.607-12.5 12.5-12.5h134.75c4.142 0 7.5-3.358 7.5-7.5s-3.358-7.5-7.5-7.5h-124.716l18.739-105.253c3.117-17.506 16.978-31.334 34.491-34.41l3.101-.545c41.609-7.307 80.77-28.872 110.267-60.723 16.482-17.796 33.933-26.82 51.869-26.82s35.387 9.023 51.869 26.82c29.497 31.851 68.658 53.416 110.268 60.723l3.1.544c17.513 3.076 31.374 16.904 34.491 34.41l18.737 105.254h-282.141c-4.142 0-7.5 3.358-7.5 7.5s3.358 7.5 7.5 7.5h292.175c6.893 0 12.5 5.607 12.5 12.5s-5.607 12.5-12.5 12.5z"/></g></svg>