<svg id="Capa_1" enable-background="new 0 0 512 512" height="512" viewBox="0 0 512 512" width="512" xmlns="http://www.w3.org/2000/svg"><g><g><path d="m236 27.5v457h40v-457c0-11.046-8.954-20-20-20-11.046 0-20 8.954-20 20z" fill="#c4e2fe"/></g><g><path d="m484.5 464.5h-457c-11.046 0-20 8.954-20 20 0 11.046 8.954 20 20 20h457c11.046 0 20-8.954 20-20 0-11.046-8.954-20-20-20z" fill="#dceefe"/></g><g><path d="m107.5 484.5c0 11.046 8.954 20 20 20h-100c-11.046 0-20-8.954-20-20s8.954-20 20-20h100c-11.046 0-20 8.954-20 20z" fill="#c4e2fe"/></g><g><path d="m421 464.5h-330c-33.137 0-60-26.863-60-60 0-33.137 26.863-60 60-60h330c33.137 0 60 26.863 60 60 0 33.137-26.863 60-60 60z" fill="#9edcae"/></g><g><path d="m176 404.5c0-33.137 26.863-60 60-60h-145c-33.137 0-60 26.863-60 60 0 33.137 26.863 60 60 60h145c-33.137 0-60-26.863-60-60z" fill="#7fd196"/></g><g><path d="m371 344.5h-230c-33.137 0-60-26.863-60-60 0-33.137 26.863-60 60-60h230c33.137 0 60 26.863 60 60 0 33.137-26.863 60-60 60z" fill="#fff2b4"/></g><g><path d="m176 284.5c0-33.137 26.863-60 60-60h-95c-33.137 0-60 26.863-60 60 0 33.137 26.863 60 60 60h95c-33.137 0-60-26.863-60-60z" fill="#ffdf8e"/></g><g><path d="m321 184.5h-130c-33.137 0-60-26.863-60-60 0-33.137 26.863-60 60-60h130c33.137 0 60 26.863 60 60 0 33.137-26.863 60-60 60z" fill="#fda0c1"/></g><g><path d="m216 124.5c0-33.137 26.863-60 60-60h-85c-33.137 0-60 26.863-60 60 0 33.137 26.863 60 60 60h85c-33.137 0-60-26.863-60-60z" fill="#fc90b4"/></g><g><g><g><ellipse cx="172.153" cy="293.047" fill="#fda0c1" rx="30.938" ry="24.637"/></g><g><ellipse cx="339.847" cy="293.047" fill="#fda0c1" rx="30.938" ry="24.637"/></g><g><ellipse cx="256" cy="274.117" fill="#6e6e6e" rx="16.423" ry="18.377"/></g></g><g><path d="m177.325 270.816c-4.142 0-7.5-3.358-7.5-7.5v-12c0-4.142 3.358-7.5 7.5-7.5s7.5 3.358 7.5 7.5v12c0 4.142-3.358 7.5-7.5 7.5z"/></g><g><path d="m256 299.994c-13.191 0-23.922-11.608-23.922-25.877s10.731-25.877 23.922-25.877 23.922 11.608 23.922 25.877-10.731 25.877-23.922 25.877zm0-36.754c-4.92 0-8.922 4.879-8.922 10.877s4.002 10.877 8.922 10.877 8.922-4.879 8.922-10.877-4.002-10.877-8.922-10.877z"/></g><g><path d="m334.675 270.816c-4.142 0-7.5-3.358-7.5-7.5v-12c0-4.142 3.358-7.5 7.5-7.5s7.5 3.358 7.5 7.5v12c0 4.142-3.358 7.5-7.5 7.5z"/></g></g><g><g><g><ellipse cx="176.355" cy="412.769" fill="#fff" rx="29.387" ry="23.403"/></g><g><ellipse cx="335.645" cy="412.769" fill="#fff" rx="29.387" ry="23.403"/></g><g><path d="m279.694 394.788c0-14.643-10.608-16.019-23.693-16.019-13.086 0-23.694 1.376-23.694 16.019s10.608 26.513 23.694 26.513c13.085-.001 23.693-11.871 23.693-26.513z" fill="#6e6e6e"/></g></g><g><path d="m181.268 392.329c-4.142 0-7.5-3.358-7.5-7.5v-12c0-4.142 3.358-7.5 7.5-7.5s7.5 3.358 7.5 7.5v12c0 4.142-3.358 7.5-7.5 7.5z"/></g><g><path d="m256 428.8c-17.2 0-31.193-15.258-31.193-34.013 0-23.519 21.859-23.519 31.193-23.519s31.193 0 31.193 23.519c0 18.755-13.993 34.013-31.193 34.013zm0-42.531c-15.539 0-16.193 2.611-16.193 8.519 0 10.484 7.264 19.013 16.193 19.013s16.193-8.529 16.193-19.013c0-5.908-.654-8.519-16.193-8.519z"/></g><g><path d="m330.732 392.329c-4.142 0-7.5-3.358-7.5-7.5v-12c0-4.142 3.358-7.5 7.5-7.5s7.5 3.358 7.5 7.5v12c0 4.142-3.358 7.5-7.5 7.5z"/></g></g><g><g><path d="m206 133.944c-4.142 0-7.5-3.358-7.5-7.5v-9.608c0-4.142 3.358-7.5 7.5-7.5s7.5 3.358 7.5 7.5v9.608c0 4.142-3.358 7.5-7.5 7.5z"/></g><g><path d="m306 133.944c-4.142 0-7.5-3.358-7.5-7.5v-9.608c0-4.142 3.358-7.5 7.5-7.5s7.5 3.358 7.5 7.5v9.608c0 4.142-3.358 7.5-7.5 7.5z"/></g><g><path d="m256 139.664c-7.22 0-14.085-3.126-18.836-8.578-2.721-3.123-2.396-7.86.727-10.582 3.124-2.721 7.86-2.396 10.582.727 1.901 2.182 4.645 3.433 7.528 3.433s5.626-1.251 7.528-3.433c2.722-3.124 7.459-3.447 10.582-.727 3.123 2.722 3.448 7.459.727 10.582-4.753 5.451-11.618 8.578-18.838 8.578z"/></g></g><path d="m484.5 457h-21.139c15.319-12.384 25.139-31.313 25.139-52.5 0-37.22-30.28-67.5-67.5-67.5h-7.639c15.319-12.384 25.139-31.313 25.139-52.5 0-37.22-30.28-67.5-67.5-67.5h-87.5v-25h37.5c37.22 0 67.5-30.28 67.5-67.5s-30.28-67.5-67.5-67.5h-37.5v-29.5c0-15.164-12.336-27.5-27.5-27.5s-27.5 12.336-27.5 27.5v29.5h-37.5c-30.736 0-57.601 20.751-65.33 50.464-1.043 4.009 1.361 8.104 5.37 9.146 4.009 1.046 8.104-1.361 9.146-5.37 6.011-23.104 26.906-39.24 50.814-39.24h130c28.949 0 52.5 23.551 52.5 52.5s-23.551 52.5-52.5 52.5h-130c-23.908 0-44.803-16.136-50.813-39.24-1.042-4.008-5.137-6.412-9.146-5.37s-6.413 5.138-5.37 9.146c7.728 29.713 34.593 50.464 65.329 50.464h37.5v25h-87.5c-37.22 0-67.5 30.28-67.5 67.5 0 21.187 9.82 40.116 25.139 52.5h-7.639c-37.22 0-67.5 30.28-67.5 67.5 0 21.187 9.82 40.116 25.139 52.5h-21.139c-15.164 0-27.5 12.336-27.5 27.5s12.336 27.5 27.5 27.5h457c15.164 0 27.5-12.336 27.5-27.5s-12.336-27.5-27.5-27.5zm-241-429.5c0-6.893 5.607-12.5 12.5-12.5s12.5 5.607 12.5 12.5v29.5h-25zm0 164.5h25v25h-25zm-205 212.5c0-28.949 23.551-52.5 52.5-52.5h224.732c4.142 0 7.5-3.358 7.5-7.5s-3.358-7.5-7.5-7.5h-174.732c-28.949 0-52.5-23.551-52.5-52.5s23.551-52.5 52.5-52.5h230c28.949 0 52.5 23.551 52.5 52.5s-23.551 52.5-52.5 52.5h-25.268c-4.142 0-7.5 3.358-7.5 7.5s3.358 7.5 7.5 7.5h75.268c28.949 0 52.5 23.551 52.5 52.5s-23.551 52.5-52.5 52.5h-330c-28.949 0-52.5-23.551-52.5-52.5zm446 92.5h-457c-6.893 0-12.5-5.607-12.5-12.5s5.607-12.5 12.5-12.5h457c6.893 0 12.5 5.607 12.5 12.5s-5.607 12.5-12.5 12.5z"/></g></svg>