<svg id="Capa_1" enable-background="new 0 0 512 512" height="512" viewBox="0 0 512 512" width="512" xmlns="http://www.w3.org/2000/svg"><g><g><path d="m382.879 94.287c0 11.046 8.954 20 20 20h11.621c11.046 0 20 8.954 20 20v74.787h40v-74.787c0-33.137-26.863-60-60-60h-11.621c-11.046 0-20 8.954-20 20z" fill="#fda0c1"/></g><g><path d="m454.5 160.901c-11.046 0-20-8.954-20-20v68.173h40v-68.173c0 11.045-8.954 20-20 20z" fill="#fc90b4"/></g><g><path d="m129.121 94.287c0 11.046-8.954 20-20 20h-11.621c-11.046 0-20 8.954-20 20v74.787h-40v-74.787c0-33.137 26.863-60 60-60h11.621c11.046 0 20 8.954 20 20z" fill="#fda0c1"/></g><g><path d="m57.5 160.901c11.046 0 20-8.954 20-20v68.173h-40v-68.173c0 11.045 8.954 20 20 20z" fill="#fc90b4"/></g><g><path d="m342.879 115.356v-20.977c0-47.982-38.897-86.879-86.879-86.879-47.982 0-86.879 38.897-86.879 86.879v20.977c0 11.401-9.243 20.644-20.644 20.644-11.401 0-20.644 9.243-20.644 20.644v52.43h256.333v-52.43c0-11.401-9.243-20.644-20.644-20.644-11.401 0-20.643-9.243-20.643-20.644z" fill="#fda0c1"/></g><g><path d="m256 47.5c-11.046 0-20-8.954-20-20s8.954-20 20-20c-47.982 0-86.879 38.897-86.879 86.879v20.977c0 11.401-9.243 20.644-20.644 20.644-11.401 0-20.644 9.243-20.644 20.644v52.43h128.167z" fill="#fc90b4"/></g><g><path d="m302.879 209.074h-93.758v-114.695c0-25.89 20.988-46.879 46.879-46.879 25.89 0 46.879 20.988 46.879 46.879z" fill="#fc80aa"/></g><g><path d="m37.5 209.074h40v245.426h-40z" fill="#ffcd6e"/></g><g><path d="m434.5 209.074h40v245.426h-40z" fill="#ffcd6e"/></g><g><path d="m288.686 359.084 77.823-105.593v-44.417h-221.018v44.417l77.823 105.593c10.33 3.194 21.307 4.916 32.686 4.916 11.379 0 22.356-1.722 32.686-4.916z" fill="#fda0c1"/></g><g><path d="m305.687 336.016c-5.542.856-11.22 1.302-17.001 1.302-61.032 0-110.509-49.477-110.509-110.509v-17.735h-32.686v44.417l77.823 105.593c10.33 3.194 21.307 4.916 32.686 4.916 11.379 0 22.356-1.722 32.686-4.916z" fill="#fc90b4"/></g><g><path d="m366.509 253.491c-42.981 0-77.823 34.843-77.823 77.823v27.77c45.075-13.937 77.823-55.94 77.823-105.593z" fill="#fc80aa"/></g><g><path d="m223.314 359.084v-27.77c0-42.981-34.843-77.823-77.823-77.823 0 49.653 32.748 91.656 77.823 105.593z" fill="#fc80aa"/></g><g><path d="m484.5 229.074h-457c-11.046 0-20-8.954-20-20 0-11.046 8.954-20 20-20h457c11.046 0 20 8.954 20 20 0 11.046-8.954 20-20 20z" fill="#fff2b4"/></g><g><path d="m107.5 209.074c0-11.046 8.954-20 20-20h-100c-11.046 0-20 8.954-20 20s8.954 20 20 20h100c-11.046 0-20-8.954-20-20z" fill="#ffdf8e"/></g><g><circle cx="57.5" cy="454.5" fill="#f7f0eb" r="50"/></g><g><path d="m57.5 404.5c-27.614 0-50 22.386-50 50s22.386 50 50 50c-8.284 0-15-6.716-15-15s6.716-15 15-15v-40c-8.284 0-15-6.716-15-15s6.716-15 15-15z" fill="#efe2dd"/></g><g><circle cx="256" cy="454.5" fill="#f7f0eb" r="50"/></g><g><path d="m256 404.5c-27.614 0-50 22.386-50 50s22.386 50 50 50c-8.284 0-15-6.716-15-15s6.716-15 15-15v-40c-8.284 0-15-6.716-15-15s6.716-15 15-15z" fill="#efe2dd"/></g><g><circle cx="454.5" cy="454.5" fill="#f7f0eb" r="50"/></g><g><path d="m454.5 404.5c-27.614 0-50 22.386-50 50s22.386 50 50 50c-8.284 0-15-6.716-15-15s6.716-15 15-15v-40c-8.284 0-15-6.716-15-15s6.716-15 15-15z" fill="#efe2dd"/></g><g><path d="m454.5 474.5h-397c-11.046 0-20-8.954-20-20 0-11.046 8.954-20 20-20h397c11.046 0 20 8.954 20 20 0 11.046-8.954 20-20 20z" fill="#fff2b4"/></g><g><path d="m149.833 454.5c0-11.046 8.954-20 20-20h-112.333c-11.046 0-20 8.954-20 20s8.954 20 20 20h112.333c-11.045 0-20-8.954-20-20z" fill="#ffdf8e"/></g><path d="m482 404.016v-167.442h2.5c15.164 0 27.5-12.336 27.5-27.5s-12.336-27.5-27.5-27.5h-2.5v-47.287c0-37.22-30.28-67.5-67.5-67.5h-11.621c-15.163 0-27.5 12.336-27.5 27.5s12.337 27.5 27.5 27.5h11.621c6.893 0 12.5 5.607 12.5 12.5v47.287h-35.333v-24.93c0-15.519-12.626-28.144-28.145-28.144-7.247 0-13.144-5.896-13.144-13.144v-20.977c.001-52.041-42.337-94.379-94.378-94.379s-94.379 42.338-94.379 94.379v20.977c0 7.248-5.896 13.144-13.144 13.144-15.519 0-28.144 12.625-28.144 28.144v24.93h-35.333v-47.287c0-6.893 5.607-12.5 12.5-12.5h11.621c15.164 0 27.5-12.336 27.5-27.5s-12.336-27.5-27.5-27.5h-11.621c-37.22 0-67.5 30.28-67.5 67.5v47.287h-2.5c-15.164 0-27.5 12.336-27.5 27.5s12.336 27.5 27.5 27.5h2.5v167.442c-17.859 9.768-30 28.734-30 50.484 0 31.706 25.794 57.5 57.5 57.5 21.117 0 40.496-11.644 50.507-30h97.486c10.01 18.354 29.398 30 50.508 30 21.146 0 40.493-11.637 50.503-30h97.489c10.011 18.353 29.402 30 50.508 30 31.706 0 57.5-25.794 57.5-57.5-.001-21.75-12.142-40.716-30.001-50.484zm-15-5.631c-4.027-.897-8.207-1.385-12.5-1.385-4.259 0-8.446.474-12.5 1.38v-161.806h25zm-63.006 28.615h-97.486c-10.01-18.354-29.398-30-50.508-30-21.109 0-40.497 11.646-50.508 30h-44.159c-4.142 0-7.5 3.358-7.5 7.5s3.358 7.5 7.5 7.5h293.167c6.893 0 12.5 5.607 12.5 12.5s-5.607 12.5-12.5 12.5h-397c-6.893 0-12.5-5.607-12.5-12.5s5.607-12.5 12.5-12.5h73.833c4.142 0 7.5-3.358 7.5-7.5s-3.358-7.5-7.5-7.5h-23.326c-5.366-9.836-13.43-17.746-23.007-22.969v-167.457h52.991v16.917c0 25.717 8.128 50.16 23.506 70.687 14.865 19.843 36.032 34.784 59.602 42.071 11.267 3.484 23.009 5.251 34.901 5.251s23.634-1.767 34.901-5.25c23.569-7.288 44.736-22.229 59.602-42.072 15.378-20.527 23.506-44.97 23.506-70.687v-16.917h52.991v167.45c-9.578 5.222-17.638 13.132-23.006 22.976zm-115.599 0h-64.79c7.963-9.352 19.76-15 32.395-15 12.636 0 24.433 5.648 32.395 15zm70.614-180.66c-20.095 1.742-38.753 10.434-53.104 24.916-15.94 16.084-24.719 37.414-24.719 60.059v22.066c-8.199 2.06-16.644 3.12-25.186 3.12s-16.987-1.059-25.186-3.12v-22.066c0-22.63-8.768-43.949-24.689-60.029-14.354-14.498-33.025-23.201-53.134-24.945v-9.766h206.018zm-.307 15.084c-2.913 38.645-26.967 71.974-62.516 86.938v-17.047c0-36.004 27.45-65.978 62.516-69.891zm-142.888 86.937c-35.549-14.963-59.603-48.292-62.516-86.936 35.06 3.915 62.516 33.9 62.516 69.889zm198.686-241.574h-11.621c-6.893 0-12.5-5.607-12.5-12.5s5.607-12.5 12.5-12.5h11.621c28.948 0 52.5 23.551 52.5 52.5v47.287h-25v-47.287c0-15.163-12.337-27.5-27.5-27.5zm-279.167 49.857c0-7.248 5.896-13.144 13.144-13.144 15.519 0 28.144-12.625 28.144-28.144v-20.977c0-43.77 35.609-79.379 79.379-79.379s79.379 35.609 79.379 79.379v20.977c0 15.519 12.625 28.144 28.144 28.144 7.248 0 13.145 5.896 13.145 13.144v24.93h-66.288v-87.195c0-8.472-1.896-16.592-5.638-24.135-1.84-3.711-6.341-5.228-10.051-3.387-3.711 1.84-5.228 6.34-3.387 10.051 2.704 5.454 4.075 11.332 4.075 17.471v87.195h-78.758v-87.195c0-21.713 17.666-39.379 39.379-39.379 6.14 0 12.018 1.372 17.472 4.076 3.709 1.839 8.211.323 10.051-3.387 1.841-3.711.324-8.211-3.387-10.052-7.543-3.74-15.663-5.637-24.136-5.637-29.985 0-54.379 24.394-54.379 54.379v87.195h-66.288zm-90.333-22.357c0-28.949 23.551-52.5 52.5-52.5h11.621c6.893 0 12.5 5.607 12.5 12.5s-5.607 12.5-12.5 12.5h-11.621c-15.164 0-27.5 12.336-27.5 27.5v47.287h-25zm-30 74.787c0-6.893 5.607-12.5 12.5-12.5h457c6.893 0 12.5 5.607 12.5 12.5s-5.607 12.5-12.5 12.5h-457c-6.893 0-12.5-5.608-12.5-12.5zm30 27.5h25v161.811c-4.056-.908-8.243-1.385-12.5-1.385-4.293 0-8.473.488-12.5 1.385zm12.5 260.426c-23.435 0-42.5-19.065-42.5-42.5s19.065-42.5 42.5-42.5c12.626 0 24.427 5.65 32.392 15h-32.392c-15.164 0-27.5 12.336-27.5 27.5s12.336 27.5 27.5 27.5h32.397c-7.962 9.353-19.756 15-32.397 15zm198.5 0c-12.635 0-24.432-5.648-32.395-15h64.799c-7.956 9.357-19.744 15-32.404 15zm198.5 0c-12.633 0-24.432-5.649-32.395-15h32.395c15.163 0 27.5-12.336 27.5-27.5s-12.337-27.5-27.5-27.5h-32.398c7.96-9.354 19.754-15 32.398-15 23.435 0 42.5 19.065 42.5 42.5s-19.065 42.5-42.5 42.5z"/></g></svg>