<svg id="Capa_1" enable-background="new 0 0 512 512" height="512" viewBox="0 0 512 512" width="512" xmlns="http://www.w3.org/2000/svg"><g><g><path d="m47.5 356h417v108.5h-417z" fill="#d98263"/></g><g><path d="m306 356h-258.5v108.5h258.5c-29.961 0-54.25-24.289-54.25-54.25s24.289-54.25 54.25-54.25z" fill="#c4715a"/></g><g><g><g><ellipse cx="176.443" cy="417.813" fill="#fda0c1" rx="29.355" ry="23.377"/></g><g><ellipse cx="335.557" cy="417.813" fill="#fda0c1" rx="29.355" ry="23.377"/></g></g><g><path d="m193.552 402.81c-4.143 0-7.5-3.358-7.5-7.5v-12c0-4.142 3.357-7.5 7.5-7.5s7.5 3.358 7.5 7.5v12c0 4.142-3.358 7.5-7.5 7.5z"/></g><g><path d="m318.448 402.81c-4.143 0-7.5-3.358-7.5-7.5v-12c0-4.142 3.357-7.5 7.5-7.5s7.5 3.358 7.5 7.5v12c0 4.142-3.357 7.5-7.5 7.5z"/></g><g><path d="m256 409.954c-8.478 0-16.54-3.672-22.118-10.074-2.722-3.123-2.396-7.86.728-10.582 3.122-2.72 7.86-2.396 10.581.727 2.729 3.132 6.669 4.928 10.81 4.928s8.08-1.796 10.81-4.928c2.721-3.124 7.458-3.448 10.581-.727s3.449 7.458.728 10.582c-5.58 6.402-13.642 10.074-22.12 10.074z"/></g></g><g><path d="m7.5 47.5v417c0 22.091 17.909 40 40 40 22.091 0 40-17.909 40-40v-417c0-22.091-17.909-40-40-40-22.091 0-40 17.909-40 40z" fill="#eb9b81"/></g><g><path d="m47.5 395.31c-22.091 0-40-17.909-40-40v109.19c0 22.091 17.909 40 40 40 22.091 0 40-17.909 40-40v-109.19c0 22.091-17.909 40-40 40z" fill="#d98263"/></g><g><path d="m424.5 47.5v417c0 22.091 17.909 40 40 40 22.091 0 40-17.909 40-40v-417c0-22.091-17.909-40-40-40-22.091 0-40 17.909-40 40z" fill="#eb9b81"/></g><g><path d="m464.5 395.31c-22.091 0-40-17.909-40-40v109.19c0 22.091 17.909 40 40 40 22.091 0 40-17.909 40-40v-109.19c0 22.091-17.909 40-40 40z" fill="#d98263"/></g><g><path d="m444.5 76h-377c-11.046 0-20 8.954-20 20 0 11.046 8.954 20 20 20h377c11.046 0 20-8.954 20-20 0-11.046-8.954-20-20-20z" fill="#f7f0eb"/></g><g><path d="m366 96c0-11.046 8.954-20 20-20h-318.5c-11.046 0-20 8.954-20 20 0 11.046 8.954 20 20 20h318.5c-11.046 0-20-8.954-20-20z" fill="#efe2dd"/></g><g><path d="m276 156c-11.046 0-20-8.954-20-20v-80c0-11.046 8.954-20 20-20 11.046 0 20 8.954 20 20v80c0 11.046-8.954 20-20 20z" fill="#9edcae"/></g><g><path d="m276 96c-11.046 0-20-8.954-20-20v60c0 11.046 8.954 20 20 20s20-8.954 20-20v-60c0 11.046-8.954 20-20 20z" fill="#7fd196"/></g><g><path d="m316 156c-11.046 0-20-8.954-20-20v-80c0-11.046 8.954-20 20-20 11.046 0 20 8.954 20 20v80c0 11.046-8.954 20-20 20z" fill="#fff2b4"/></g><g><path d="m316 96c-11.046 0-20-8.954-20-20v60c0 11.046 8.954 20 20 20s20-8.954 20-20v-60c0 11.046-8.954 20-20 20z" fill="#ffdf8e"/></g><g><path d="m196 156c-11.046 0-20-8.954-20-20v-80c0-11.046 8.954-20 20-20 11.046 0 20 8.954 20 20v80c0 11.046-8.954 20-20 20z" fill="#fda0c1"/></g><g><path d="m196 96c-11.046 0-20-8.954-20-20v60c0 11.046 8.954 20 20 20s20-8.954 20-20v-60c0 11.046-8.954 20-20 20z" fill="#fc90b4"/></g><g><path d="m444.5 236h-377c-11.046 0-20 8.954-20 20 0 11.046 8.954 20 20 20h377c11.046 0 20-8.954 20-20 0-11.046-8.954-20-20-20z" fill="#f7f0eb"/></g><g><path d="m246 256c0-11.046 8.954-20 20-20h-198.5c-11.046 0-20 8.954-20 20 0 11.046 8.954 20 20 20h198.5c-11.046 0-20-8.954-20-20z" fill="#efe2dd"/></g><g><path d="m156 316c-11.046 0-20-8.954-20-20v-80c0-11.046 8.954-20 20-20 11.046 0 20 8.954 20 20v80c0 11.046-8.954 20-20 20z" fill="#b0d8fd"/></g><g><path d="m156 256c-11.046 0-20-8.954-20-20v60c0 11.046 8.954 20 20 20s20-8.954 20-20v-60c0 11.046-8.954 20-20 20z" fill="#9ccefd"/></g><g><path d="m196 316c-11.046 0-20-8.954-20-20v-80c0-11.046 8.954-20 20-20 11.046 0 20 8.954 20 20v80c0 11.046-8.954 20-20 20z" fill="#9edcae"/></g><g><path d="m196 256c-11.046 0-20-8.954-20-20v60c0 11.046 8.954 20 20 20s20-8.954 20-20v-60c0 11.046-8.954 20-20 20z" fill="#7fd196"/></g><g><path d="m356 316c-11.046 0-20-8.954-20-20v-80c0-11.046 8.954-20 20-20 11.046 0 20 8.954 20 20v80c0 11.046-8.954 20-20 20z" fill="#fda0c1"/></g><g><path d="m356 256c-11.046 0-20-8.954-20-20v60c0 11.046 8.954 20 20 20s20-8.954 20-20v-60c0 11.046-8.954 20-20 20z" fill="#fc90b4"/></g><path d="m464.5 0c-26.191 0-47.5 21.309-47.5 47.5v21h-73.5v-12.5c0-15.164-12.337-27.5-27.5-27.5-7.875 0-14.982 3.332-20 8.655-5.018-5.323-12.125-8.655-20-8.655-15.163 0-27.5 12.336-27.5 27.5v12.5h-25v-12.5c0-15.164-12.337-27.5-27.5-27.5s-27.5 12.336-27.5 27.5v12.5h-73.5v-21c0-26.191-21.309-47.5-47.5-47.5s-47.5 21.309-47.5 47.5v417c0 26.191 21.309 47.5 47.5 47.5 23.639 0 43.295-17.36 46.902-40h323.195c3.607 22.64 23.263 40 46.902 40 26.191 0 47.5-21.309 47.5-47.5v-417c.001-26.191-21.308-47.5-47.499-47.5zm-20 83.5c6.893 0 12.5 5.607 12.5 12.5s-5.607 12.5-12.5 12.5h-101v-25zm-316 160v25h-61c-6.893 0-12.5-5.607-12.5-12.5s5.607-12.5 12.5-12.5zm-33.5 120h322v93.5h-322zm322-15h-322v-65h33.5v12.5c0 15.164 12.337 27.5 27.5 27.5 7.875 0 14.982-3.332 20-8.655 5.018 5.323 12.125 8.655 20 8.655 15.163 0 27.5-12.336 27.5-27.5v-12.5h105v12.5c0 15.164 12.337 27.5 27.5 27.5s27.5-12.336 27.5-27.5v-12.5h33.5zm-233.5-132.5c0-6.893 5.607-12.5 12.5-12.5s12.5 5.607 12.5 12.5v80c0 6.893-5.607 12.5-12.5 12.5s-12.5-5.607-12.5-12.5zm-15 80c0 6.893-5.607 12.5-12.5 12.5s-12.5-5.607-12.5-12.5v-80c0-6.893 5.607-12.5 12.5-12.5s12.5 5.607 12.5 12.5zm160-27.5h-105v-25h105zm15 27.5v-80c0-6.893 5.607-12.5 12.5-12.5s12.5 5.607 12.5 12.5v80c0 6.893-5.607 12.5-12.5 12.5s-12.5-5.607-12.5-12.5zm40-27.5v-25h61c6.893 0 12.5 5.607 12.5 12.5s-5.607 12.5-12.5 12.5zm0-40v-12.5c0-15.164-12.337-27.5-27.5-27.5s-27.5 12.336-27.5 27.5v12.5h-105v-12.5c0-15.164-12.337-27.5-27.5-27.5-7.875 0-14.982 3.332-20 8.655-5.018-5.323-12.125-8.655-20-8.655-15.163 0-27.5 12.336-27.5 27.5v12.5h-33.5v-105h73.5v12.5c0 15.164 12.337 27.5 27.5 27.5s27.5-12.336 27.5-27.5v-12.5h25v12.5c0 15.164 12.337 27.5 27.5 27.5 7.875 0 14.982-3.332 20-8.655 5.018 5.323 12.125 8.655 20 8.655 15.163 0 27.5-12.336 27.5-27.5v-12.5h73.5v105zm-67.5-185c6.893 0 12.5 5.607 12.5 12.5v80c0 6.893-5.607 12.5-12.5 12.5s-12.5-5.607-12.5-12.5v-80c0-6.893 5.607-12.5 12.5-12.5zm-52.5 12.5c0-6.893 5.607-12.5 12.5-12.5s12.5 5.607 12.5 12.5v80c0 6.893-5.607 12.5-12.5 12.5s-12.5-5.607-12.5-12.5zm-15 27.5v25h-25v-25zm-65-27.5c0-6.893 5.607-12.5 12.5-12.5s12.5 5.607 12.5 12.5v80c0 6.893-5.607 12.5-12.5 12.5s-12.5-5.607-12.5-12.5zm-15 52.5h-101c-6.893 0-12.5-5.607-12.5-12.5s5.607-12.5 12.5-12.5h101zm-121 388.5c-17.921 0-32.5-14.58-32.5-32.5v-417c0-17.92 14.579-32.5 32.5-32.5s32.5 14.58 32.5 32.5v21h-12.5c-15.163 0-27.5 12.336-27.5 27.5s12.337 27.5 27.5 27.5h12.5v105h-12.5c-15.163 0-27.5 12.336-27.5 27.5s12.337 27.5 27.5 27.5h12.5v181c0 17.92-14.579 32.5-32.5 32.5zm449.5-32.5c0 17.92-14.579 32.5-32.5 32.5s-32.5-14.58-32.5-32.5v-181h12.5c15.163 0 27.5-12.336 27.5-27.5s-12.337-27.5-27.5-27.5h-12.5v-105h12.5c15.163 0 27.5-12.336 27.5-27.5s-12.337-27.5-27.5-27.5h-12.5v-21c0-17.92 14.579-32.5 32.5-32.5s32.5 14.58 32.5 32.5z"/></g></svg>