<svg id="Capa_1" enable-background="new 0 0 512.69 512.69" height="512" viewBox="0 0 512.69 512.69" width="512" xmlns="http://www.w3.org/2000/svg"><g><g><circle cx="384.845" cy="107.5" fill="#fc90b4" r="100"/></g><g><path d="m384.845 7.5c-55.229 0-100 44.771-100 100 0 55.228 44.771 100 100 100-11.046 0-20-8.954-20-20s8.954-20 20-20v-120c-11.046 0-20-8.954-20-20s8.954-20 20-20z" fill="#fc80aa"/></g><g><circle cx="384.845" cy="107.5" fill="#fc80aa" r="60"/></g><g><path d="m384.845 107.5c0-22.159 12.084-41.537 30-51.928-8.833-5.123-19.075-8.072-30-8.072-33.084 0-60 26.916-60 60s26.916 60 60 60c10.925 0 21.167-2.949 30-8.072-17.916-10.391-30-29.769-30-51.928z" fill="#f76898"/></g><g><circle cx="127.845" cy="107.5" fill="#fc90b4" r="100"/></g><g><path d="m127.845 7.5c-55.229 0-100 44.771-100 100 0 55.228 44.771 100 100 100-11.046 0-20-8.954-20-20s8.954-20 20-20v-120c-11.046 0-20-8.954-20-20s8.954-20 20-20z" fill="#fc80aa"/></g><g><circle cx="127.845" cy="107.5" fill="#fc80aa" r="60"/></g><g><path d="m127.845 107.5c0-22.159 12.084-41.537 30-51.928-8.833-5.123-19.075-8.072-30-8.072-33.084 0-60 26.916-60 60s26.916 60 60 60c10.925 0 21.167-2.949 30-8.072-17.916-10.391-30-29.769-30-51.928z" fill="#f76898"/></g><g><path d="m256.345 67.009c-115.152 0-208.5 93.349-208.5 208.5v109.681h417v-109.681c0-115.152-93.349-208.5-208.5-208.5z" fill="#fda0c1"/></g><g><path d="m371.479 270.056c-106.122 0-193.725-79.283-206.812-181.849-69.185 33.928-116.822 105.047-116.822 187.302v109.681h417v-109.681c0-9.029-.575-17.924-1.688-26.651-27.67 13.569-58.781 21.198-91.678 21.198z" fill="#fc90b4"/></g><g><path d="m256.345 67.009c-59.923 0-108.5 48.577-108.5 108.5v209.681h217v-209.681c0-59.923-48.577-108.5-108.5-108.5z" fill="#fc90b4"/></g><g><path d="m168.945 111.215c-13.26 17.994-21.1 40.227-21.1 64.294v209.681h217v-115.25c-95.094-2.973-174.126-69.617-195.9-158.725z" fill="#fc80aa"/></g><g><path d="m265.313 159.855 15.429 31.262c1.457 2.952 4.273 4.998 7.53 5.471l34.499 5.013c8.203 1.192 11.478 11.273 5.543 17.059l-24.964 24.334c-2.357 2.298-3.433 5.608-2.876 8.852l5.893 34.36c1.401 8.17-7.174 14.4-14.511 10.543l-30.857-16.223c-2.914-1.532-6.394-1.532-9.308 0l-30.857 16.223c-7.337 3.857-15.912-2.373-14.511-10.543l5.893-34.36c.556-3.244-.519-6.555-2.876-8.852l-24.964-24.334c-5.936-5.786-2.66-15.867 5.543-17.059l34.499-5.013c3.257-.473 6.073-2.519 7.53-5.471l15.429-31.262c3.668-7.433 14.268-7.433 17.936 0z" fill="#fff"/></g><g><path d="m213.945 198.109-24.027 3.491c-8.203 1.192-11.478 11.273-5.543 17.059l24.964 24.334c2.357 2.298 3.433 5.608 2.876 8.852l-5.893 34.36c-1.401 8.17 7.174 14.4 14.511 10.543l30.857-16.223c2.913-1.532 6.394-1.532 9.308 0l30.857 16.223c7.337 3.857 15.912-2.373 14.511-10.543l-4.835-28.188c-34.195-12.176-64.269-33.03-87.586-59.908z" fill="#f7f0eb"/></g><g><path d="m504.845 385.19c0-22.091-17.891-40-39.961-40h-417.078c-22.07 0-39.961 17.909-39.961 40 0 10.257 3.857 19.612 10.198 26.692 6.714 7.496 6.714 19.121 0 26.617-6.341 7.08-10.198 16.435-10.198 26.691 0 22.091 17.891 40 39.961 40h417.077c22.07 0 39.961-17.909 39.961-40 0-10.257-3.857-19.612-10.198-26.691-6.714-7.496-6.714-19.121 0-26.617 6.342-7.08 10.199-16.435 10.199-26.692z" fill="#fdb3cd"/></g><g><path d="m157.845 465.19c0-10.257 3.857-19.612 10.198-26.692 6.714-7.496 6.714-19.121 0-26.617-6.341-7.08-10.198-16.435-10.198-26.692 0-22.091 17.891-40 39.961-40h-150c-22.07 0-39.961 17.909-39.961 40 0 10.257 3.857 19.612 10.198 26.692 6.714 7.496 6.714 19.121 0 26.617-6.341 7.08-10.198 16.435-10.198 26.691 0 22.091 17.891 40 39.961 40h150c-22.07.001-39.961-17.908-39.961-39.999z" fill="#fda0c1"/></g><g><g><g><ellipse cx="176.7" cy="433.459" fill="#fff" rx="29.387" ry="23.403"/></g><g><ellipse cx="335.99" cy="433.459" fill="#fff" rx="29.387" ry="23.403"/></g><g><path d="m280.039 415.477c0-14.643-10.608-16.019-23.693-16.019-13.086 0-23.694 1.376-23.694 16.019s10.608 26.513 23.694 26.513c13.085 0 23.693-11.87 23.693-26.513z" fill="#6e6e6e"/></g></g><g><path d="m181.613 413.019c-4.143 0-7.5-3.358-7.5-7.5v-12c0-4.142 3.357-7.5 7.5-7.5s7.5 3.358 7.5 7.5v12c0 4.142-3.358 7.5-7.5 7.5z"/></g><g><path d="m256.345 449.49c-17.2 0-31.193-15.258-31.193-34.013 0-23.519 21.859-23.519 31.193-23.519s31.193 0 31.193 23.519c0 18.755-13.993 34.013-31.193 34.013zm0-42.531c-15.538 0-16.193 2.611-16.193 8.519 0 10.484 7.265 19.013 16.193 19.013s16.193-8.529 16.193-19.013c0-5.908-.655-8.519-16.193-8.519z"/></g><g><path d="m331.077 413.019c-4.143 0-7.5-3.358-7.5-7.5v-12c0-4.142 3.357-7.5 7.5-7.5s7.5 3.358 7.5 7.5v12c0 4.142-3.357 7.5-7.5 7.5z"/></g></g><g><path d="m204.106 248.364c.589.574.857 1.401.718 2.213l-5.892 34.359c-.876 5.102.521 10.28 3.83 14.205 3.362 3.989 8.253 6.277 13.417 6.277 2.84 0 5.58-.684 8.146-2.032l30.855-16.223c.358-.188.761-.288 1.165-.288s.807.1 1.164.288l30.856 16.223c2.565 1.349 5.307 2.032 8.146 2.032 5.164 0 10.054-2.288 13.417-6.278 3.31-3.925 4.706-9.102 3.831-14.204l-5.894-34.361c-.139-.811.13-1.638.72-2.213l24.964-24.334c4.805-4.684 6.502-11.559 4.428-17.94-2.073-6.382-7.487-10.946-14.128-11.911l-34.499-5.013c-.814-.119-1.519-.63-1.883-1.368l-15.429-31.261c-2.97-6.018-8.982-9.756-15.693-9.756s-12.724 3.738-15.693 9.755l-15.429 31.261c-.364.739-1.068 1.25-1.883 1.369l-34.499 5.013c-6.641.965-12.055 5.529-14.128 11.911-2.074 6.382-.377 13.256 4.428 17.94zm-15.127-37.639c.18-.552.68-1.507 2.019-1.702l34.499-5.013c5.701-.828 10.627-4.407 13.178-9.573l15.429-31.262c.599-1.212 1.662-1.394 2.242-1.394s1.644.181 2.242 1.394l15.429 31.262c2.551 5.166 7.477 8.745 13.178 9.573l34.499 5.013c1.339.195 1.839 1.15 2.019 1.702s.336 1.62-.633 2.564l-24.963 24.333c-4.126 4.021-6.008 9.812-5.033 15.491l5.893 34.36c.133.777-.035 1.431-.515 2-.492.584-1.239.946-1.949.946-.388 0-.77-.101-1.165-.31l-30.857-16.223c-2.501-1.315-5.317-2.01-8.144-2.01s-5.643.695-8.145 2.01l-30.856 16.223c-.396.208-.777.31-1.165.31-.711 0-1.457-.362-1.949-.946-.479-.568-.647-1.223-.515-2l5.893-34.359c.975-5.68-.907-11.471-5.032-15.491l-24.964-24.334c-.971-.945-.815-2.012-.635-2.564z"/><path d="m500.235 416.885c7.81-8.72 12.11-19.976 12.11-31.695 0-23.651-17.363-43.315-40-46.908v-62.773c0-30.139-6.143-59.331-17.816-86.162 24.088-20.487 37.816-50.048 37.816-81.847 0-59.276-48.225-107.5-107.5-107.5-41.866 0-79.596 24.094-97.297 61.74-10.246-1.474-20.666-2.231-31.203-2.231-10.536 0-20.955.758-31.2 2.231-17.703-37.635-55.472-61.74-97.3-61.74-59.275 0-107.5 48.224-107.5 107.5 0 31.799 13.727 61.36 37.816 81.847-11.672 26.83-17.816 56.022-17.816 86.162v62.773c-22.637 3.593-40 23.257-40 46.908 0 11.72 4.301 22.976 12.11 31.695 4.172 4.657 4.172 11.953 0 16.609-7.81 8.72-12.11 19.976-12.11 31.695 0 26.191 21.291 47.5 47.462 47.5h417.076c26.171 0 47.462-21.309 47.462-47.5 0-11.72-4.301-22.976-12.11-31.695-4.172-4.656-4.172-11.952 0-16.609zm-42.89-79.195h-85v-162.181c0-33.424-14.215-63.586-36.911-84.774 71.623 30.774 121.911 102.008 121.911 184.774zm-72.5-322.69c51.005 0 92.5 41.495 92.5 92.5 0 26.021-10.678 50.307-29.554 67.789-3.988-7.596-8.443-14.966-13.348-22.077 11.417-12.408 17.902-28.817 17.902-45.712 0-12.073-3.241-23.93-9.372-34.288-2.109-3.564-6.71-4.744-10.274-2.634s-4.744 6.71-2.634 10.274c4.763 8.046 7.28 17.261 7.28 26.647 0 12.382-4.246 24.029-12.047 33.413-5.034-6.294-10.435-12.356-16.218-18.139-19.605-19.606-42.322-34.964-67.029-45.645 9.797-13.783 25.677-22.128 42.794-22.128 9.275 0 18.396 2.462 26.374 7.12 3.578 2.088 8.17.881 10.259-2.696 2.088-3.577.881-8.17-2.696-10.258-10.272-5.997-22.007-9.166-33.937-9.166-23.272 0-44.767 11.982-57.106 31.544-8.105-2.83-16.389-5.177-24.821-7.021 15.89-30.317 47.257-49.523 81.927-49.523zm-297.448 125.906c-7.725-9.357-12.052-21.168-12.052-33.406 0-28.949 23.552-52.5 52.5-52.5 17.232 0 33.027 8.317 42.804 22.125-24.711 10.681-47.431 26.041-67.04 45.649-5.78 5.781-11.179 11.84-16.212 18.132zm-52.052-33.406c0-51.005 41.495-92.5 92.5-92.5 34.638 0 66.037 19.214 81.929 49.523-8.433 1.844-16.718 4.191-24.824 7.021-12.326-19.599-33.679-31.544-57.105-31.544-37.22 0-67.5 30.28-67.5 67.5 0 16.971 6.465 33.3 17.9 45.716-4.904 7.11-9.359 14.478-13.346 22.073-18.876-17.482-29.554-41.768-29.554-67.789zm141.911-16.765c-22.696 21.188-36.911 51.35-36.911 84.774v64.991c0 4.142 3.357 7.5 7.5 7.5s7.5-3.358 7.5-7.5v-64.991c0-55.691 45.309-101 101-101s101 45.309 101 101v162.181h-202v-66.69c0-4.142-3.357-7.5-7.5-7.5s-7.5 3.358-7.5 7.5v66.69h-85v-62.181c0-82.766 50.288-154 121.911-184.774zm287.627 406.955h-417.076c-17.899 0-32.462-14.58-32.462-32.5 0-8.021 2.942-15.723 8.284-21.688 9.197-10.269 9.197-26.356 0-36.625-5.342-5.964-8.284-13.667-8.284-21.688 0-17.92 14.562-32.5 32.461-32.5h417.078c17.899 0 32.461 14.58 32.461 32.5 0 8.021-2.942 15.723-8.284 21.688-9.197 10.269-9.197 26.356 0 36.625 5.342 5.964 8.284 13.667 8.284 21.688 0 17.92-14.563 32.5-32.462 32.5z"/></g></g></svg>