<svg id="Capa_1" enable-background="new 0 0 512 512" height="512" viewBox="0 0 512 512" width="512" xmlns="http://www.w3.org/2000/svg"><g><g><path d="m356.072 151.334v-14.077c0-71.663-58.094-129.757-129.757-129.757-71.663 0-129.757 58.094-129.757 129.757v198.867l159.442 23.748 159.442-23.748v-125.42c0-32.789-26.581-59.37-59.37-59.37z" fill="#fdb3cd"/></g><g><path d="m167.802 137.257c0-59.309 39.792-109.324 94.135-124.805-11.319-3.225-23.269-4.952-35.622-4.952-71.663 0-129.757 58.094-129.757 129.757v198.867l71.244 10.611z" fill="#fda0c1"/></g><g><path d="m96.558 430.03v-93.906c0-29.352 23.795-53.147 53.147-53.147 29.352 0 53.147 23.795 53.147 53.147 0-29.352 23.795-53.147 53.147-53.147 29.352 0 53.147 23.795 53.147 53.147 0-29.352 23.795-53.147 53.147-53.147 29.352 0 53.147 23.795 53.147 53.147v93.906z" fill="#f7f0eb"/></g><g><g><path d="m256 336.124v93.906h-159.442v-93.906c0-29.352 23.795-53.147 53.147-53.147 29.352 0 53.147 23.795 53.147 53.147 0-29.352 23.795-53.147 53.147-53.147 9.684 0 18.754 2.603 26.573 7.128-15.88 9.19-26.572 26.351-26.572 46.019z" fill="#efe2dd"/></g></g><g><path d="m441.784 476.437c0 15.499-12.564 28.063-28.063 28.063h-315.442c-15.499 0-28.063-12.564-28.063-28.063 0-7.196 2.708-13.759 7.161-18.726 4.715-5.259 4.715-13.414 0-18.674-4.453-4.967-7.161-11.53-7.161-18.726 0-15.499 12.564-28.063 28.063-28.063h315.443c15.499 0 28.063 12.564 28.063 28.063 0 7.196-2.708 13.759-7.161 18.726-4.715 5.259-4.715 13.414 0 18.674 4.452 4.967 7.16 11.531 7.16 18.726z" fill="#fdb3cd"/></g><g><path d="m217.69 439.038c4.715 5.259 4.715 13.414 0 18.674-4.453 4.967-7.161 11.53-7.161 18.726 0 15.499 12.564 28.063 28.063 28.063h-139.641c-15.216 0-28.176-11.832-28.717-27.039-.272-7.642 2.513-14.632 7.228-19.844 4.72-5.217 4.72-13.267 0-18.485-4.715-5.212-7.5-12.202-7.228-19.844.541-15.207 13.501-27.039 28.717-27.039h139.641c-15.499 0-28.063 12.564-28.063 28.063 0 7.195 2.709 13.758 7.161 18.725z" fill="#fda0c1"/></g><g><path d="m385.757 240.389c16.395 0 29.685-13.29 29.685-29.685 0-32.789-26.581-59.37-59.37-59.37v59.37c0 16.395 13.291 29.685 29.685 29.685z" fill="#fda0c1"/></g><g><g><g><ellipse cx="176.443" cy="453.938" fill="#fff" rx="29.355" ry="23.377"/></g><g><ellipse cx="335.557" cy="453.938" fill="#fff" rx="29.355" ry="23.377"/></g></g><g><path d="m193.551 438.935c-4.142 0-7.5-3.357-7.5-7.5v-12c0-4.143 3.358-7.5 7.5-7.5s7.5 3.357 7.5 7.5v12c0 4.142-3.358 7.5-7.5 7.5z"/></g><g><path d="m318.449 438.935c-4.142 0-7.5-3.357-7.5-7.5v-12c0-4.143 3.358-7.5 7.5-7.5s7.5 3.357 7.5 7.5v12c0 4.142-3.358 7.5-7.5 7.5z"/></g><g><path d="m256 446.078c-8.478 0-16.54-3.672-22.119-10.073-2.721-3.123-2.396-7.86.727-10.582 3.123-2.721 7.86-2.396 10.582.727 2.729 3.133 6.669 4.929 10.81 4.929s8.081-1.796 10.81-4.929c2.721-3.122 7.458-3.447 10.582-.727 3.123 2.722 3.448 7.459.727 10.582-5.579 6.401-13.641 10.073-22.119 10.073z"/></g></g><path d="m440.207 444.045c5.854-6.529 9.078-14.957 9.078-23.732 0-16.421-11.19-30.271-26.342-34.344v-49.844-125.42c0-34.338-26.013-62.714-59.37-66.452v-6.995c-.001-75.685-61.574-137.258-137.258-137.258s-137.257 61.573-137.257 137.257v28.605c0 4.143 3.358 7.5 7.5 7.5s7.5-3.357 7.5-7.5v-28.605c0-67.413 54.844-122.257 122.257-122.257s122.257 54.844 122.257 122.257v14.077 59.37c0 20.504 16.681 37.185 37.185 37.185 8.308 0 15.987-2.74 22.185-7.362v55.733c-11.125-12.723-27.458-20.784-45.647-20.784-22.864 0-42.815 12.721-53.147 31.454-10.333-18.733-30.283-31.454-53.147-31.454s-42.815 12.721-53.147 31.454c-10.333-18.733-30.283-31.454-53.147-31.454-18.19 0-34.522 8.06-45.647 20.784v-100.398c0-4.143-3.358-7.5-7.5-7.5s-7.5 3.357-7.5 7.5v140.262.01 49.835c-15.153 4.073-26.342 17.924-26.342 34.344 0 8.775 3.224 17.203 9.077 23.732 2.177 2.428 2.177 6.232 0 8.66-5.854 6.529-9.078 14.957-9.078 23.732 0 19.609 15.954 35.563 35.563 35.563h315.442c19.609 0 35.563-15.953 35.563-35.563 0-8.775-3.224-17.203-9.077-23.731-2.178-2.429-2.178-6.233-.001-8.661zm-54.45-211.156c-12.233 0-22.185-9.952-22.185-22.185v-51.321c25.059 3.646 44.37 25.267 44.37 51.321 0 12.233-9.952 22.185-22.185 22.185zm43.282 229.83c3.383 3.772 5.246 8.645 5.246 13.719 0 11.338-9.225 20.563-20.563 20.563h-315.443c-11.338 0-20.563-9.225-20.563-20.563 0-5.074 1.863-9.946 5.246-13.72 7.21-8.043 7.21-20.644 0-28.687-3.383-3.772-5.246-8.645-5.246-13.719 0-11.339 9.225-20.563 20.563-20.563h80.272c4.142 0 7.5-3.357 7.5-7.5s-3.358-7.5-7.5-7.5h-74.493v-48.625c0-25.17 20.478-45.647 45.647-45.647s45.647 20.478 45.647 45.647c0 4.143 3.358 7.5 7.5 7.5s7.5-3.357 7.5-7.5c0-25.17 20.478-45.647 45.648-45.647s45.647 20.478 45.647 45.647c0 4.143 3.358 7.5 7.5 7.5s7.5-3.357 7.5-7.5c0-25.17 20.478-45.647 45.647-45.647s45.647 20.478 45.647 45.647v48.625h-199.39c-4.142 0-7.5 3.357-7.5 7.5s3.358 7.5 7.5 7.5h205.17c11.338 0 20.563 9.225 20.563 20.563 0 5.074-1.863 9.946-5.246 13.719-7.21 8.043-7.21 20.644.001 28.688z"/></g></svg>