<svg id="Capa_1" enable-background="new 0 0 512.005 512.005" height="512" viewBox="0 0 512.005 512.005" width="512" xmlns="http://www.w3.org/2000/svg"><g><g><path d="m255.995 188.437h-117v60c34.797 0 66.47 20.082 81.311 51.555l7.159 15.181c5.208 11.043 16.321 18.09 28.53 18.09 12.21 0 23.323-7.046 28.53-18.09l7.159-15.181c14.841-31.474 46.514-51.555 81.311-51.555v-60z" fill="#c4e2fe"/></g><g><path d="m229.976 208.437c0-6.882.8-13.577 2.306-20h-93.287v60c34.797 0 66.47 20.082 81.311 51.555l7.159 15.181c5.208 11.043 16.321 18.09 28.53 18.09 12.21 0 23.323-7.046 28.53-18.09l7.159-15.181c1.141-2.421 2.394-4.765 3.728-7.047-37.631-9.69-65.436-43.852-65.436-84.508z" fill="#b0d8fd"/></g><g><path d="m41.995 408.118h428v40h-428z" fill="#c4e2fe"/></g><g><path d="m218.087 408.118h-176.092v40h176.092c-11.046 0-20-8.954-20-20s8.954-20 20-20z" fill="#b0d8fd"/></g><g><path d="m383.827 188.575-36.955 15.307 119.14 287.629c4.227 10.205 15.926 15.051 26.131 10.824 10.205-4.227 15.051-15.926 10.824-26.131z" fill="#dceefe"/></g><g><path d="m128.162 188.575 36.955 15.307-119.139 287.63c-4.227 10.205-15.926 15.051-26.131 10.824-10.205-4.227-15.051-15.926-10.824-26.131z" fill="#dceefe"/></g><g><path d="m68.756 331.994-59.733 144.21c-4.227 10.205.619 21.904 10.824 26.131 10.205 4.227 21.904-.619 26.131-10.824l59.734-144.21c-4.227 10.205-15.926 15.051-26.131 10.824-10.206-4.226-15.052-15.926-10.825-26.131z" fill="#c4e2fe"/></g><g><path d="m342.874 114.719v-19.708c0-47.982-38.897-86.879-86.879-86.879-47.982 0-86.879 38.897-86.879 86.879v19.708c0 11.401-9.243 20.644-20.644 20.644-11.401 0-20.644 9.243-20.644 20.644v32.43h256.333v-32.43c0-11.401-9.243-20.644-20.644-20.644-11.401 0-20.643-9.243-20.643-20.644z" fill="#c4e2fe"/></g><g><path d="m255.995 48.132c-11.046 0-20-8.954-20-20s8.954-20 20-20c-47.982 0-86.879 38.897-86.879 86.879v19.708c0 11.401-9.243 20.644-20.644 20.644-11.401 0-20.644 9.243-20.644 20.644v32.43h128.167z" fill="#b0d8fd"/></g><g><path d="m302.874 188.437h-93.758v-93.426c0-25.89 20.988-46.879 46.879-46.879 25.891 0 46.879 20.988 46.879 46.879z" fill="#9ccefd"/></g><g><path d="m434.495 208.437h-357c-11.046 0-20-8.954-20-20 0-11.046 8.954-20 20-20h357c11.046 0 20 8.954 20 20 0 11.046-8.954 20-20 20z" fill="#dceefe"/></g><g><path d="m107.495 188.437c0-11.046 8.954-20 20-20h-50c-11.046 0-20 8.954-20 20s8.954 20 20 20h50c-11.046 0-20-8.954-20-20z" fill="#c4e2fe"/></g><g><path d="m406.278 347.302 59.734 144.21c4.227 10.205 15.926 15.051 26.131 10.824 10.205-4.227 15.051-15.926 10.824-26.131l-59.734-144.21c4.227 10.205-.619 21.904-10.824 26.131-10.204 4.227-21.904-.619-26.131-10.824z" fill="#c4e2fe"/></g><path d="m509.896 473.334-106.617-257.397h31.216c15.163 0 27.5-12.337 27.5-27.5s-12.337-27.5-27.5-27.5h-42.833v-4.93c0-15.519-12.626-28.144-28.145-28.144-7.247 0-13.144-5.896-13.144-13.145v-19.707c0-52.041-42.338-94.379-94.379-94.379s-94.379 42.338-94.379 94.379v19.708c0 7.248-5.896 13.145-13.144 13.145-15.519 0-28.144 12.625-28.144 28.144v4.93h-42.832c-15.164 0-27.5 12.337-27.5 27.501 0 15.163 12.336 27.499 27.5 27.499h31.216l-72.202 174.309c-1.585 3.827.232 8.214 4.059 9.799.939.39 1.911.573 2.867.573 2.943 0 5.736-1.744 6.932-4.632l74.58-180.051h27.059l-112.957 272.706c-1.278 3.085-3.68 5.487-6.765 6.765-3.084 1.277-6.482 1.278-9.568-.001-3.084-1.277-5.487-3.68-6.765-6.764-1.277-3.085-1.277-6.482 0-9.567l21.989-53.086c1.585-3.827-.232-8.214-4.059-9.799-3.828-1.588-8.214.232-9.799 4.059l-21.988 53.085c-5.803 14.009.874 30.128 14.883 35.932 3.43 1.42 6.986 2.093 10.487 2.093 10.796 0 21.062-6.398 25.443-16.977l16.057-38.765h374.062l16.057 38.765c2.812 6.786 8.097 12.072 14.883 14.883 3.394 1.405 6.958 2.108 10.523 2.108s7.131-.703 10.524-2.108c6.786-2.812 12.072-8.097 14.883-14.883 2.812-6.786 2.812-14.261 0-21.048zm-374.568-317.327c0-7.247 5.896-13.144 13.144-13.144 15.519 0 28.144-12.626 28.144-28.145v-19.707c0-43.77 35.609-79.379 79.379-79.379s79.379 35.609 79.379 79.379v19.708c0 15.519 12.625 28.145 28.144 28.145 7.248 0 13.145 5.896 13.145 13.144v4.93h-66.288v-65.927c0-29.984-24.395-54.379-54.379-54.379-29.985 0-54.379 24.395-54.379 54.379v65.926h-66.288v-4.93zm160.046 4.93h-78.758v-65.926c0-21.714 17.666-39.379 39.379-39.379 21.714 0 39.379 17.665 39.379 39.379zm-8.379 55c4.143 0 7.5-3.357 7.5-7.5s-3.357-7.5-7.5-7.5h-209.5c-6.893 0-12.5-5.607-12.5-12.5s5.607-12.5 12.5-12.5h357c6.893 0 12.5 5.608 12.5 12.501 0 6.892-5.607 12.499-12.5 12.499h-117.798c-4.143 0-7.5 3.357-7.5 7.5s3.357 7.5 7.5 7.5h27.05l11.067 26.717c-30.344 5.79-56.588 25.883-69.915 54.141l-7.157 15.181c-3.95 8.376-12.486 13.788-21.747 13.788s-17.797-5.412-21.747-13.788l-7.159-15.182c-13.311-28.227-39.578-48.345-69.914-54.138l11.067-26.718h118.753zm-135.706 40.93c26.96 4.082 50.523 21.491 62.233 46.325l7.159 15.182c6.414 13.602 20.275 22.39 35.314 22.39 15.038 0 28.899-8.788 35.314-22.391l7.157-15.181c11.724-24.859 35.265-42.247 62.233-46.328l59.545 143.754h-328.499zm-76.112 183.75 10.355-25h340.925l10.355 25zm414.096 54.789c-6.369 2.642-13.693-.397-16.332-6.765l-112.959-272.704h27.061l108.994 263.138c2.639 6.367-.397 13.694-6.764 16.331z"/></g></svg>