<svg id="Capa_1" enable-background="new 0 0 511.987 511.987" height="512" viewBox="0 0 511.987 511.987" width="512" xmlns="http://www.w3.org/2000/svg"><g><g><path d="m130.993 167.792h250v126.695h-250z" fill="#fff2b4"/></g><g><path d="m200.993 284.487c-16.569 0-30-13.431-30-30v-45.284c0-16.569 13.431-30 30-30h180v-11.411h-250v126.695h250v-10z" fill="#ffdf8e"/></g><g><path d="m60.993 314.487v160c0 16.569 13.431 30 30 30h76.667c16.569 0 30-13.431 30-30v-41.667c0-32.217 26.117-58.333 58.333-58.333 32.217 0 58.333 26.117 58.333 58.333v41.667c0 16.569 13.431 30 30 30h76.667c16.569 0 30-13.431 30-30v-160c0-16.569-13.431-30-30-30h-330c-16.568 0-30 13.431-30 30z" fill="#9edcae"/></g><g><g><path d="m101.993 474.487v-160c0-16.569 13.431-30 30-30h-41c-16.569 0-30 13.431-30 30v160c0 16.569 13.431 30 30 30h36.667c.729 0 1.45-.035 2.167-.086-15.556-1.112-27.834-14.075-27.834-29.914z" fill="#7fd196"/></g></g><g><g><path d="m110.136 145.06 131.715-131.715c7.81-7.81 20.474-7.81 28.284 0l131.716 131.715c12.599 12.599 3.676 34.142-14.142 34.142h-263.431c-17.818.001-26.742-21.542-14.142-34.142z" fill="#fdb3cd"/></g></g><g><path d="m383.543 126.752c-14.805 5.952-30.971 9.235-47.905 9.235-58.625 0-108.076-39.261-123.507-92.923l-101.996 101.996c-12.599 12.599-3.676 34.142 14.142 34.142h263.432c17.818 0 26.741-21.543 14.142-34.142z" fill="#fda0c1"/></g><g><g><g><ellipse cx="176.437" cy="240.452" fill="#fda0c1" rx="29.355" ry="23.377"/></g><g><ellipse cx="335.55" cy="240.452" fill="#fda0c1" rx="29.355" ry="23.377"/></g></g><g><path d="m193.544 225.45c-4.143 0-7.5-3.357-7.5-7.5v-12c0-4.143 3.357-7.5 7.5-7.5s7.5 3.357 7.5 7.5v12c0 4.142-3.357 7.5-7.5 7.5z"/></g><g><path d="m318.442 225.45c-4.143 0-7.5-3.357-7.5-7.5v-12c0-4.143 3.357-7.5 7.5-7.5s7.5 3.357 7.5 7.5v12c0 4.142-3.358 7.5-7.5 7.5z"/></g><g><path d="m255.993 232.593c-8.478 0-16.54-3.672-22.118-10.074-2.722-3.122-2.396-7.86.728-10.581 3.122-2.721 7.86-2.396 10.581.728 2.729 3.132 6.669 4.928 10.81 4.928s8.08-1.796 10.81-4.928c2.721-3.124 7.458-3.448 10.581-.728s3.449 7.459.728 10.581c-5.58 6.402-13.642 10.074-22.12 10.074z"/></g></g><path d="m420.993 276.987h-32.5v-90.312c10.995-.294 20.386-6.72 24.622-16.947 4.338-10.472 2.054-21.956-5.961-29.971l-131.715-131.716c-10.723-10.721-28.169-10.721-38.892 0l-131.715 131.715c-8.015 8.015-10.299 19.499-5.961 29.971 4.236 10.227 13.627 16.653 24.622 16.947v90.312h-32.5c-20.678 0-37.5 16.822-37.5 37.5v160c0 20.678 16.822 37.5 37.5 37.5h76.667c20.678 0 37.5-16.822 37.5-37.5v-3.167c0-4.143-3.357-7.5-7.5-7.5s-7.5 3.357-7.5 7.5v3.167c0 12.406-10.094 22.5-22.5 22.5h-76.667c-12.406 0-22.5-10.094-22.5-22.5v-160c0-12.406 10.094-22.5 22.5-22.5h330c12.406 0 22.5 10.094 22.5 22.5v160c0 12.406-10.094 22.5-22.5 22.5h-76.667c-12.406 0-22.5-10.094-22.5-22.5v-41.666c0-36.301-29.532-65.833-65.833-65.833s-65.833 29.532-65.833 65.833v8.5c0 4.143 3.357 7.5 7.5 7.5s7.5-3.357 7.5-7.5v-8.5c0-28.029 22.804-50.833 50.833-50.833s50.833 22.804 50.833 50.833v41.667c0 20.678 16.822 37.5 37.5 37.5h76.667c20.678 0 37.5-16.822 37.5-37.5v-160c0-20.678-16.822-37.5-37.5-37.5zm-282.5-90.284h164.949c4.143 0 7.5-3.357 7.5-7.5s-3.357-7.5-7.5-7.5h-179.164c-5.229 0-9.547-2.885-11.548-7.716-2.002-4.832-.989-9.925 2.71-13.623l131.714-131.716c4.875-4.875 12.806-4.873 17.679 0l131.715 131.716c3.699 3.698 4.712 8.791 2.71 13.623-2.001 4.831-6.318 7.716-11.548 7.716h-54.267c-4.143 0-7.5 3.357-7.5 7.5s3.357 7.5 7.5 7.5h40.051v90.284h-235v-90.284z"/></g></svg>