<svg id="Capa_1" enable-background="new 0 0 512 512" height="512" viewBox="0 0 512 512" width="512" xmlns="http://www.w3.org/2000/svg"><g><g><path d="m203.369 244.167h-26.617v26.617c0 81.542 66.103 147.644 147.644 147.644h26.617v-26.617c0-81.542-66.102-147.644-147.644-147.644z" fill="#fff"/><path d="m351.514 418.928h-27.117c-81.688 0-148.145-66.457-148.145-148.145v-27.116h27.117c81.688 0 148.145 66.457 148.145 148.145zm-174.262-174.261v26.116c0 81.136 66.009 147.145 147.145 147.145h26.117v-26.116c0-81.136-66.009-147.145-147.145-147.145z"/></g><g><path d="m266.21 270.784v-12.603c-19.068-8.983-40.366-14.014-62.842-14.014h-26.617v26.617c0 81.542 66.103 147.644 147.644 147.644h26.617v-14.014c-50.112-23.608-84.802-74.564-84.802-133.63z" fill="#fff"/><path d="m351.514 418.928h-27.117c-81.688 0-148.145-66.457-148.145-148.145v-27.116h27.117c22.034 0 43.249 4.73 63.054 14.062l.287.135v12.92c0 56.717 33.175 108.992 84.517 133.179l.287.135zm-174.262-174.261v26.116c0 81.136 66.009 147.145 147.145 147.145h26.117v-13.198c-24.947-11.817-46.077-30.334-61.114-53.563-15.498-23.939-23.689-51.736-23.689-80.384v-12.285c-19.588-9.178-40.562-13.831-62.341-13.831z"/></g><g><path d="m346.892 90.68v192.159c0 36.356 29.472 65.828 65.828 65.828 43.032 0 77.916 34.884 77.916 77.916 0 43.032-34.884 77.916-77.916 77.916h-202.122c-81.542 0-147.644-66.103-147.644-147.644v-266.175z" fill="#dceefe"/></g><g><path d="m152.412 356.856v-266.176h-89.459v266.176c0 81.542 66.103 147.644 147.644 147.644h89.458c-81.541 0-147.643-66.103-147.643-147.644z" fill="#c4e2fe"/></g><g><path d="m47.39 81.078v92.782c0 29.001 23.51 52.511 52.511 52.511 29.001 0 52.511-23.51 52.511-52.511 0 29.001 23.51 52.511 52.511 52.511 29.001 0 52.511-23.51 52.511-52.511 0 29.001 23.51 52.511 52.511 52.511 29.001 0 52.511-23.51 52.511-52.511v-92.782z" fill="#b0d8fd"/></g><g><g><path d="m204.923 173.86v-92.782h-157.533v92.782c0 29.001 23.51 52.511 52.511 52.511 29.001 0 52.511-23.51 52.511-52.511 0 29.001 23.51 52.511 52.511 52.511 9.568 0 18.53-2.572 26.255-7.042-15.691-9.081-26.255-26.036-26.255-45.469z" fill="#9ccefd"/></g></g><g><path d="m388.482 35.227c0-15.313-12.414-27.727-27.727-27.727h-311.665c-15.313 0-27.727 12.414-27.727 27.727 0 7.11 2.676 13.594 7.076 18.502 4.658 5.196 4.658 13.254 0 18.45-4.4 4.907-7.075 11.392-7.075 18.502 0 15.313 12.414 27.727 27.727 27.727h311.666c15.313 0 27.727-12.414 27.727-27.727 0-7.11-2.676-13.594-7.076-18.502-4.658-5.196-4.658-13.254 0-18.45 4.398-4.908 7.074-11.393 7.074-18.502z" fill="#dceefe"/></g><g><path d="m167.072 72.178c4.658-5.196 4.658-13.254 0-18.45-4.4-4.907-7.076-11.392-7.076-18.502 0-15.313 12.414-27.727 27.727-27.727h-137.969c-15.034 0-27.839 11.691-28.373 26.715-.268 7.55 2.483 14.457 7.142 19.606 4.664 5.155 4.664 13.108 0 18.263-4.658 5.149-7.41 12.056-7.142 19.606.534 15.025 13.339 26.715 28.373 26.715h137.969c-15.313 0-27.727-12.414-27.727-27.727.001-7.107 2.676-13.591 7.076-18.499z" fill="#c4e2fe"/></g><g><path d="m89.57 330.239h-26.617v26.617c0 81.542 66.103 147.644 147.644 147.644h26.617v-26.617c0-81.542-66.102-147.644-147.644-147.644z" fill="#c4e2fe"/></g><g><path d="m152.412 356.856v-12.603c-19.068-8.983-40.366-14.014-62.842-14.014h-26.617v26.617c0 81.542 66.103 147.644 147.644 147.644h26.617v-14.014c-50.113-23.608-84.802-74.564-84.802-133.63z" fill="#b0d8fd"/></g><g><g><g><ellipse cx="125.366" cy="68.517" fill="#fda0c1" rx="29.355" ry="23.377"/></g><g><ellipse cx="284.479" cy="68.517" fill="#fda0c1" rx="29.355" ry="23.377"/></g></g><g><path d="m142.474 53.514c-4.143 0-7.5-3.357-7.5-7.5v-12c0-4.143 3.357-7.5 7.5-7.5s7.5 3.357 7.5 7.5v12c0 4.142-3.358 7.5-7.5 7.5z"/></g><g><path d="m267.371 53.514c-4.143 0-7.5-3.357-7.5-7.5v-12c0-4.143 3.357-7.5 7.5-7.5s7.5 3.357 7.5 7.5v12c0 4.142-3.357 7.5-7.5 7.5z"/></g><g><path d="m204.923 60.656c-8.479 0-16.54-3.671-22.118-10.073-2.722-3.122-2.396-7.86.728-10.581 3.122-2.721 7.86-2.396 10.581.728 2.729 3.131 6.669 4.927 10.81 4.927s8.081-1.796 10.81-4.927c2.72-3.124 7.459-3.449 10.581-.728 3.123 2.721 3.449 7.459.728 10.581-5.58 6.402-13.642 10.073-22.12 10.073z"/></g></g><path d="m412.72 341.167c-32.162 0-58.327-26.166-58.327-58.328v-68.702c9.666-10.657 15.563-24.791 15.563-40.278v-49.18c14.975-4.057 26.026-17.759 26.026-34 0-8.692-3.193-17.04-8.991-23.508-2.121-2.365-2.121-6.071 0-8.437 5.798-6.468 8.991-14.816 8.991-23.509 0-19.422-15.802-35.225-35.226-35.225h-311.666c-19.424 0-35.227 15.803-35.227 35.227 0 8.692 3.193 17.041 8.991 23.509 2.121 2.365 2.121 6.071 0 8.437-5.798 6.468-8.991 14.815-8.991 23.508 0 16.241 11.051 29.943 26.026 34v49.18c0 15.487 5.898 29.621 15.563 40.278v142.718c.001 85.545 69.599 155.143 155.146 155.143h202.123c47.099 0 85.416-38.318 85.416-85.417s-38.318-85.416-85.417-85.416zm-357.83-215.261h197.481c4.143 0 7.5-3.357 7.5-7.5s-3.357-7.5-7.5-7.5h-203.281c-11.153 0-20.227-9.073-20.227-20.227 0-4.991 1.832-9.783 5.159-13.494 7.155-7.98 7.155-20.483 0-28.464-3.327-3.711-5.159-8.504-5.159-13.495 0-11.153 9.074-20.226 20.227-20.226h311.666c11.153 0 20.227 9.073 20.227 20.227 0 4.991-1.832 9.784-5.159 13.495-7.155 7.98-7.155 20.483 0 28.464 3.327 3.711 5.159 8.503 5.159 13.494 0 11.153-9.073 20.227-20.227 20.227h-78.385c-4.143 0-7.5 3.357-7.5 7.5s3.357 7.5 7.5 7.5h72.585v47.953c0 24.819-20.191 45.012-45.011 45.012s-45.012-20.192-45.012-45.012c0-4.143-3.357-7.5-7.5-7.5s-7.5 3.357-7.5 7.5c0 24.819-20.191 45.012-45.011 45.012s-45.011-20.192-45.011-45.012c0-4.143-3.357-7.5-7.5-7.5s-7.5 3.357-7.5 7.5c0 24.819-20.192 45.012-45.012 45.012s-45.009-20.193-45.009-45.013zm357.831 371.094h-168.006v-19.117c0-35.632-12.381-70.436-34.863-97.997-2.617-3.21-7.342-3.69-10.552-1.071-3.21 2.618-3.689 7.342-1.071 10.552 20.304 24.894 31.486 56.329 31.486 88.517v19.116h-19.117c-77.276 0-140.145-62.868-140.145-140.145v-19.116h19.117c32.188 0 63.624 11.182 88.517 31.485 1.392 1.136 3.069 1.688 4.735 1.688 2.176 0 4.334-.942 5.816-2.76 2.618-3.21 2.139-7.934-1.071-10.552-27.562-22.481-62.364-34.862-97.997-34.862h-19.117v-96.621c8.707 4.926 18.751 7.753 29.448 7.753 22.567 0 42.265-12.521 52.511-30.981 10.246 18.461 29.943 30.981 52.511 30.981s42.266-12.521 52.511-30.981c10.246 18.461 29.943 30.981 52.512 30.981 10.697 0 20.741-2.827 29.447-7.752v56.72c0 40.434 32.895 73.328 73.328 73.328 38.827 0 70.416 31.589 70.416 70.417s-31.589 70.417-70.416 70.417z"/></g></svg>