<svg id="Capa_1" enable-background="new 0 0 512 512" height="512" viewBox="0 0 512 512" width="512" xmlns="http://www.w3.org/2000/svg"><g><g><path d="m434.5 87.653h-290.967c-11.046 0-20-8.954-20-20 0-11.046 8.954-20 20-20h290.967c11.046 0 20 8.954 20 20 0 11.045-8.954 20-20 20z" fill="#fff2b4"/></g><g><path d="m77.5 187.805h357v296.695h-357z" fill="#c4e2fe"/></g><g><path d="m77.5 187.805h82.034v296.695h-82.034z" fill="#b0d8fd"/></g><g><path d="m434.5 207.805h-357c-11.046 0-20-8.954-20-20 0-11.046 8.954-20 20-20h357c11.046 0 20 8.954 20 20 0 11.046-8.954 20-20 20z" fill="#dceefe"/></g><g><path d="m107.5 187.805c0-11.046 8.954-20 20-20h-50c-11.046 0-20 8.954-20 20s8.954 20 20 20h50c-11.046 0-20-8.954-20-20z" fill="#c4e2fe"/></g><g><path d="m229.533 67.653c0-11.046 8.954-20 20-20h-106c-11.046 0-20 8.954-20 20s8.954 20 20 20h106c-11.046 0-20-8.955-20-20z" fill="#ffdf8e"/></g><g><path d="m434.5 504.5h-357c-11.046 0-20-8.954-20-20 0-11.046 8.954-20 20-20h357c11.046 0 20 8.954 20 20 0 11.046-8.954 20-20 20z" fill="#dceefe"/></g><g><path d="m107.5 484.5c0-11.046 8.954-20 20-20h-50c-11.046 0-20 8.954-20 20s8.954 20 20 20h50c-11.046 0-20-8.954-20-20z" fill="#c4e2fe"/></g><g><path d="m169.566 127.805h-92.066c-11.046 0-20-8.954-20-20v-80.305c0-11.046 8.954-20 20-20h92.066c11.046 0 20 8.954 20 20v80.305c0 11.046-8.955 20-20 20z" fill="#fff2b4"/></g><g><path d="m97.5 107.805v-80.305c0-11.046 8.954-20 20-20h-40c-11.046 0-20 8.954-20 20v80.305c0 11.046 8.954 20 20 20h40c-11.046 0-20-8.954-20-20z" fill="#ffdf8e"/></g><g><path d="m352.466 333.305c-9.242-44.81-48.919-78.5-96.466-78.5s-87.224 33.69-96.466 78.5c-23.214 0-42.034 18.819-42.034 42.034v.128c0 23.214 18.819 42.034 42.034 42.034h192.933c23.214 0 42.034-18.819 42.034-42.034v-.128c-.001-23.215-18.82-42.034-42.035-42.034z" fill="#fff"/></g><g><path d="m353.251 388.912c-64.396 0-116.599-52.203-116.599-116.599 0-5.36.369-10.632 1.07-15.8-39.165 7.351-70.161 37.869-78.189 76.792-23.214 0-42.034 18.819-42.034 42.033v.128c0 23.214 18.819 42.034 42.034 42.034h192.933c21.142 0 38.632-15.611 41.588-35.934-12.7 4.745-26.447 7.346-40.803 7.346z" fill="#f7f0eb"/></g><g><g><path d="m206 345.597c-4.142 0-7.5-3.357-7.5-7.5v-9.607c0-4.143 3.358-7.5 7.5-7.5s7.5 3.357 7.5 7.5v9.607c0 4.142-3.358 7.5-7.5 7.5z"/></g><g><path d="m306 345.597c-4.142 0-7.5-3.357-7.5-7.5v-9.607c0-4.143 3.358-7.5 7.5-7.5s7.5 3.357 7.5 7.5v9.607c0 4.142-3.358 7.5-7.5 7.5z"/></g><g><path d="m256 351.316c-7.22 0-14.085-3.127-18.836-8.578-2.721-3.123-2.396-7.86.727-10.582s7.86-2.396 10.582.727c1.901 2.183 4.645 3.434 7.528 3.434s5.626-1.251 7.528-3.434c2.722-3.123 7.459-3.447 10.582-.727 3.123 2.722 3.448 7.459.727 10.582-4.753 5.451-11.618 8.578-18.838 8.578z"/></g></g><g><path d="m462 187.805c0-15.163-12.336-27.5-27.5-27.5h-357c-15.164 0-27.5 12.337-27.5 27.501 0 12.563 8.472 23.177 20 26.451v243.792c-11.528 3.274-20 13.889-20 26.452 0 15.163 12.336 27.5 27.5 27.5h357c15.164 0 27.5-12.337 27.5-27.5 0-12.563-8.472-23.178-20-26.452v-243.792c11.528-3.274 20-13.889 20-26.452zm-377 269.195v-241.695h342v241.695zm-20-269.195c0-6.893 5.607-12.5 12.5-12.5h357c6.893 0 12.5 5.608 12.5 12.501 0 6.892-5.607 12.499-12.5 12.499h-357c-6.893 0-12.5-5.608-12.5-12.5zm382 296.695c0 6.893-5.607 12.5-12.5 12.5h-357c-6.893 0-12.5-5.607-12.5-12.5s5.607-12.5 12.5-12.5h357c6.893 0 12.5 5.607 12.5 12.5z"/><path d="m77.5 135.305h92.066c15.164 0 27.5-12.337 27.5-27.5v-12.653h93.934c4.142 0 7.5-3.357 7.5-7.5s-3.358-7.5-7.5-7.5h-93.935v-25h237.435c6.893 0 12.5 5.607 12.5 12.5s-5.607 12.5-12.5 12.5h-113.5c-4.142 0-7.5 3.357-7.5 7.5s3.358 7.5 7.5 7.5h113.5c15.164 0 27.5-12.337 27.5-27.5s-12.336-27.5-27.5-27.5h-237.434v-12.652c0-15.163-12.336-27.5-27.5-27.5h-92.066c-15.164 0-27.5 12.337-27.5 27.5v80.305c0 15.163 12.336 27.5 27.5 27.5zm-12.5-107.805c0-6.893 5.607-12.5 12.5-12.5h92.066c6.893 0 12.5 5.607 12.5 12.5v80.305c0 6.893-5.607 12.5-12.5 12.5h-92.066c-6.893 0-12.5-5.607-12.5-12.5z"/><path d="m358.491 326.169c-12.164-46.029-54.372-78.864-102.491-78.864s-90.327 32.835-102.491 78.864c-24.482 2.981-43.509 23.895-43.509 49.17v.128c0 27.312 22.221 49.533 49.534 49.533h31.466c4.142 0 7.5-3.357 7.5-7.5s-3.358-7.5-7.5-7.5h-31.466c-19.042 0-34.534-15.491-34.534-34.533v-.128c0-19.042 15.492-34.534 34.534-34.534 3.558 0 6.626-2.5 7.345-5.985 8.667-42.018 46.147-72.515 89.121-72.515s80.455 30.497 89.121 72.515c.719 3.485 3.787 5.985 7.345 5.985 19.042 0 34.534 15.492 34.534 34.534v.128c0 19.042-15.492 34.533-34.534 34.533h-131.466c-4.142 0-7.5 3.357-7.5 7.5s3.358 7.5 7.5 7.5h131.466c27.313 0 49.534-22.221 49.534-49.533v-.128c0-25.275-19.027-46.189-43.509-49.17z"/></g></g></svg>