<svg id="Capa_1" enable-background="new 0 0 512 512" height="512" viewBox="0 0 512 512" width="512" xmlns="http://www.w3.org/2000/svg"><g><g><path d="m473.71 267.998v-23.092c0-69.036-55.964-125-125-125h-92.71v40h93.192c46.678 0 84.519 37.84 84.519 84.519 0 45.942 14.626 90.692 41.758 127.767 9.175 12.537 29.031 6.047 29.031-9.488 0-3.395-1.075-6.702-3.072-9.448-18.014-24.777-27.718-54.624-27.718-85.258z" fill="#fdb3cd"/></g><g><path d="m328.71 139.907c0-11.046 8.954-20 20-20h-92.71v40h92.71c-11.045 0-20-8.955-20-20z" fill="#fda0c1"/></g><g><path d="m307 206.11h-102v-86.203c0-27.614 22.386-50 50-50h2c27.614 0 50 22.386 50 50z" fill="#fff2b4"/></g><g><path d="m276 73.654c-5.859-2.409-12.272-3.747-19-3.747h-2c-27.614 0-50 22.386-50 50v86.203h40v-86.203c0-20.887 12.811-38.773 31-46.253z" fill="#ffdf8e"/></g><g><path d="m47.5 37.5h-20v102.407 102.407h20c40.269-51.982 102.324-82.407 168.079-82.407h20.421c11.046 0 20-8.954 20-20 0-11.046-8.954-20-20-20h-20.421c-65.755 0-127.81-30.425-168.079-82.407z" fill="#fdb3cd"/></g><g><g><path d="m156.859 111.623c11.046 4.637 18.804 15.553 18.804 28.283s-7.758 23.646-18.804 28.283c18.885-5.428 38.627-8.283 58.72-8.283h20.421c11.046 0 20-8.954 20-20 0-11.046-8.954-20-20-20h-20.421c-20.093.001-39.835-2.854-58.72-8.283z" fill="#fda0c1"/></g></g><g><path d="m336.151 285.133h-160.302c-24.583 0-44.511-19.928-44.511-44.511 0-24.583 19.928-44.511 44.511-44.511h160.301c24.583 0 44.511 19.928 44.511 44.511.001 24.582-19.928 44.511-44.51 44.511z" fill="#fdb3cd"/></g><g><path d="m211.338 240.621c0-24.583 19.928-44.511 44.511-44.511h-80c-24.583 0-44.511 19.928-44.511 44.511 0 24.583 19.928 44.511 44.511 44.511h80c-24.582.001-44.511-19.928-44.511-44.511z" fill="#fda0c1"/></g><g><path d="m403.71 317.296c0-9.206-3.018-17.051-7.242-23.523-9.396-14.395-25.738-22.728-42.927-22.728h-77.541-117.541c-17.19 0-33.531 8.333-42.927 22.728-4.225 6.472-7.242 14.317-7.242 23.523 0 30.688 8.344 36.297 8.344 70.477s-8.344 39.789-8.344 70.477c0 9.206 3.018 17.052 7.242 23.523 9.396 14.395 25.738 22.728 42.927 22.728h117.541 77.541c17.19 0 33.531-8.333 42.927-22.728 4.225-6.472 7.242-14.317 7.242-23.523 0-30.687-8.344-36.297-8.344-70.477s8.344-39.79 8.344-70.477z" fill="#f7f0eb"/></g><g><path d="m185.532 481.772c-4.225-6.472-7.242-14.317-7.242-23.523 0-30.687 8.344-36.297 8.344-70.477s-8.344-39.789-8.344-70.477c0-9.206 3.018-17.051 7.242-23.523 9.396-14.395 25.738-22.728 42.927-22.728h-70c-17.19 0-33.531 8.333-42.927 22.728-4.225 6.472-7.242 14.317-7.242 23.523 0 30.688 8.344 36.297 8.344 70.477s-8.344 39.789-8.344 70.477c0 9.206 3.018 17.052 7.242 23.523 9.396 14.395 25.738 22.728 42.927 22.728h70c-17.19 0-33.531-8.333-42.927-22.728z" fill="#efe2dd"/></g><g><path d="m7.5 252.313v-224.813c0-11.046 8.954-20 20-20 11.046 0 20 8.954 20 20v224.813c0 11.046-8.954 20-20 20-11.046 0-20-8.954-20-20z" fill="#fff2b4"/></g><g><path d="m27.5 172.313c-11.046 0-20-8.954-20-20v100c0 11.046 8.954 20 20 20s20-8.954 20-20v-100c0 11.046-8.954 20-20 20z" fill="#ffdf8e"/></g><g><g><g><ellipse cx="172.153" cy="396.319" fill="#fda0c1" rx="30.938" ry="24.637"/></g><g><ellipse cx="339.847" cy="396.319" fill="#fda0c1" rx="30.938" ry="24.637"/></g><g><ellipse cx="256" cy="377.389" fill="#6e6e6e" rx="16.423" ry="18.377"/></g></g><g><path d="m177.325 374.088c-4.142 0-7.5-3.357-7.5-7.5v-12c0-4.143 3.358-7.5 7.5-7.5s7.5 3.357 7.5 7.5v12c0 4.142-3.358 7.5-7.5 7.5z"/></g><g><path d="m256 403.266c-13.191 0-23.922-11.608-23.922-25.877s10.731-25.877 23.922-25.877 23.922 11.608 23.922 25.877-10.731 25.877-23.922 25.877zm0-36.754c-4.92 0-8.922 4.879-8.922 10.877s4.002 10.877 8.922 10.877 8.922-4.879 8.922-10.877-4.002-10.877-8.922-10.877z"/></g><g><path d="m334.675 374.088c-4.142 0-7.5-3.357-7.5-7.5v-12c0-4.143 3.358-7.5 7.5-7.5s7.5 3.357 7.5 7.5v12c0 4.142-3.358 7.5-7.5 7.5z"/></g></g><path d="m507.495 348.846c-17.195-23.651-26.284-51.607-26.284-80.848v-23.092c0-73.061-59.439-132.5-132.5-132.5h-34.716c-3.689-28.173-27.833-50-56.995-50h-2c-28.763 0-52.858 21.502-56.891 49.268-56.279-4.708-107.613-32.093-143.109-76.796v-7.378c0-15.163-12.336-27.5-27.5-27.5s-27.5 12.337-27.5 27.5v224.813c0 15.163 12.336 27.5 27.5 27.5s27.5-12.337 27.5-27.5v-7.378c35.369-44.543 86.458-71.892 142.5-76.746v20.421h-21.65c-28.679 0-52.011 23.332-52.011 52.011 0 10.414 3.03 20.314 8.661 28.756-9.383 4.488-17.453 11.418-23.248 20.296-5.615 8.602-8.462 17.896-8.462 27.623 0 15.744 2.124 25.416 4.178 34.77 2.143 9.756 4.166 18.971 4.166 35.707s-2.023 25.951-4.166 35.707c-2.054 9.354-4.178 19.025-4.178 34.77 0 9.728 2.847 19.021 8.462 27.623 10.679 16.359 29.074 26.127 49.207 26.127h195.082c20.133 0 38.528-9.768 49.208-26.128 5.615-8.602 8.462-17.896 8.462-27.623 0-15.744-2.124-25.416-4.178-34.77-2.143-9.756-4.166-18.971-4.166-35.707s2.023-25.951 4.166-35.707c2.054-9.354 4.178-19.025 4.178-34.77 0-9.728-2.847-19.021-8.462-27.623-5.795-8.877-13.865-15.808-23.248-20.296 5.631-8.441 8.661-18.34 8.661-28.756 0-28.679-23.332-52.011-52.011-52.011h-21.651v-21.204h34.692c42.468 0 77.019 34.551 77.019 77.02 0 47.86 14.94 93.573 43.206 132.196 4.578 6.255 11.5 9.695 18.822 9.695 2.484 0 5.017-.396 7.517-1.214 9.869-3.226 16.245-12.018 16.245-22.4-.001-5.012-1.559-9.805-4.506-13.856zm-452.495-126.829v-95.394c0-4.143-3.358-7.5-7.5-7.5s-7.5 3.357-7.5 7.5v125.69c0 6.893-5.607 12.5-12.5 12.5s-12.5-5.607-12.5-12.5v-224.813c0-6.893 5.607-12.5 12.5-12.5s12.5 5.607 12.5 12.5v69.123c0 4.143 3.358 7.5 7.5 7.5s7.5-3.357 7.5-7.5v-38.826c18.22 19.401 39.988 35.545 63.866 47.225 29.94 14.645 63.383 22.385 96.713 22.385h20.421c6.893 0 12.5 5.607 12.5 12.5s-5.607 12.5-12.5 12.5h-20.421c-33.337 0-66.787 7.744-96.732 22.395-23.871 11.678-45.632 27.819-63.847 47.215zm318.162 18.604c0 8.874-3.08 17.228-8.741 23.896-3.543-.639-7.182-.972-10.879-.972h-31.542c-4.142 0-7.5 3.357-7.5 7.5s3.358 7.5 7.5 7.5h31.541c15.047 0 28.747 7.225 36.647 19.327 3.996 6.122 6.022 12.657 6.022 19.424 0 14.116-1.86 22.586-3.829 31.553-2.22 10.107-4.515 20.56-4.515 38.924s2.295 28.816 4.515 38.924c1.969 8.967 3.829 17.437 3.829 31.553 0 6.767-2.026 13.302-6.022 19.424-7.9 12.103-21.6 19.327-36.647 19.327h-195.082c-15.047 0-28.747-7.225-36.647-19.327-3.996-6.122-6.022-12.657-6.022-19.424 0-14.116 1.86-22.586 3.829-31.553 2.22-10.107 4.515-20.56 4.515-38.924s-2.295-28.816-4.515-38.924c-1.969-8.967-3.829-17.437-3.829-31.553 0-6.767 2.026-13.302 6.022-19.424 7.9-12.103 21.6-19.327 36.647-19.327h133.541c4.142 0 7.5-3.357 7.5-7.5s-3.358-7.5-7.5-7.5h-133.541c-3.698 0-7.336.332-10.879.972-5.662-6.668-8.742-15.024-8.742-23.896 0-20.408 16.603-37.011 37.011-37.011h160.301c20.409 0 37.012 16.603 37.012 37.011zm-160.662-52.011v-21.16c1.026-.015 2.05-.043 3.079-.043h20.421c15.164 0 27.5-12.337 27.5-27.5s-12.336-27.5-27.5-27.5h-20.421c-.8 0-1.596-.025-2.394-.034 3.588-19.817 21.058-34.966 41.815-34.966h2c23.435 0 42.5 19.065 42.5 42.5v68.704h-87zm278.595 182.236c-1.385.454-6.17 1.568-9.574-3.084-26.372-36.033-40.311-78.683-40.311-123.337 0-50.739-41.279-92.019-92.019-92.019h-34.691v-25h34.21c64.79 0 117.5 52.71 117.5 117.5v23.092c0 32.431 10.081 63.438 29.152 89.669 1.071 1.473 1.637 3.214 1.637 5.036.001 5.765-4.519 7.691-5.904 8.143z"/></g></svg>