<svg id="Capa_1" enable-background="new 0 0 512 512" height="512" viewBox="0 0 512 512" width="512" xmlns="http://www.w3.org/2000/svg"><g><g><path d="m498.49 81.297-67.787-67.787c-7.81-7.81-20.474-7.81-28.284 0l-388.909 388.909c-7.81 7.81-7.81 20.474 0 28.284l67.786 67.786c7.81 7.81 20.474 7.81 28.284 0l388.91-388.908c7.81-7.811 7.81-20.474 0-28.284z" fill="#fda0c1"/></g><g><circle cx="256" cy="256" fill="#fdb3cd" r="248.5"/></g><g><path d="m256 7.5c-137.243 0-248.5 111.257-248.5 248.5s111.257 248.5 248.5 248.5c-11.046 0-20-8.954-20-20s8.954-20 20-20v-417c-11.046 0-20-8.954-20-20s8.954-20 20-20z" fill="#fda0c1"/></g><g><circle cx="256" cy="256" fill="#fc90b4" r="208.5"/></g><g><g><path d="m424.5 256c0-12.317-5.571-23.329-14.327-30.667 5.281-10.13 6.214-22.436 1.5-33.815s-14.075-19.422-24.972-22.85c1.003-11.379-2.845-23.106-11.554-31.815s-20.436-12.557-31.815-11.554c-3.428-10.897-11.47-20.258-22.85-24.972s-23.686-3.781-33.815 1.5c-7.337-8.756-18.35-14.327-30.667-14.327s-23.329 5.571-30.667 14.327c-10.13-5.281-22.436-6.214-33.815-1.5-11.38 4.714-19.422 14.075-22.85 24.972-11.379-1.003-23.106 2.845-31.815 11.554s-12.557 20.436-11.554 31.815c-10.897 3.428-20.258 11.47-24.972 22.85s-3.781 23.686 1.5 33.815c-8.756 7.337-14.327 18.35-14.327 30.667s5.571 23.33 14.327 30.667c-5.281 10.13-6.214 22.436-1.5 33.815 4.714 11.38 14.075 19.422 24.972 22.85-1.002 11.379 2.845 23.106 11.554 31.815s20.436 12.557 31.815 11.554c3.428 10.897 11.471 20.258 22.85 24.972 11.38 4.714 23.686 3.781 33.815-1.5 7.338 8.755 18.35 14.327 30.667 14.327s23.33-5.571 30.667-14.327c10.13 5.281 22.436 6.214 33.815 1.5s19.422-14.075 22.85-24.972c11.379 1.003 23.106-2.845 31.815-11.554s12.557-20.436 11.554-31.815c10.897-3.428 20.258-11.471 24.972-22.85 4.714-11.38 3.781-23.686-1.5-33.815 8.756-7.338 14.327-18.35 14.327-30.667z" fill="#fff2b4"/></g></g><g><path d="m362.095 318.405c-92.911 0-168.5-75.588-168.5-168.5 0-18.259 2.931-35.843 8.327-52.321-3.495.433-6.991 1.329-10.403 2.742-11.38 4.714-19.422 14.075-22.85 24.972-11.379-1.003-23.106 2.845-31.815 11.554s-12.557 20.436-11.554 31.815c-10.897 3.428-20.258 11.47-24.972 22.85s-3.781 23.686 1.5 33.815c-8.757 7.338-14.328 18.351-14.328 30.668s5.571 23.33 14.327 30.667c-5.281 10.13-6.214 22.436-1.5 33.815 4.714 11.38 14.075 19.422 24.972 22.85-1.002 11.379 2.845 23.106 11.554 31.815s20.436 12.557 31.815 11.554c3.428 10.897 11.471 20.258 22.85 24.972 11.38 4.714 23.686 3.781 33.815-1.5 7.338 8.755 18.35 14.327 30.667 14.327s23.33-5.571 30.667-14.327c10.13 5.281 22.436 6.214 33.815 1.5s19.422-14.075 22.85-24.972c11.379 1.003 23.106-2.845 31.815-11.554s12.557-20.436 11.554-31.815c10.897-3.428 20.258-11.471 24.972-22.85 1.413-3.412 2.309-6.908 2.742-10.403-16.477 5.396-34.062 8.326-52.32 8.326z" fill="#ffdf8e"/></g><g><g><g><ellipse cx="176.355" cy="264.269" fill="#fda0c1" rx="29.387" ry="23.403"/></g><g><ellipse cx="335.645" cy="264.269" fill="#fda0c1" rx="29.387" ry="23.403"/></g><g><path d="m279.694 246.288c0-14.643-10.608-16.019-23.693-16.019-13.086 0-23.694 1.376-23.694 16.019s10.608 26.513 23.694 26.513c13.085-.001 23.693-11.871 23.693-26.513z" fill="#6e6e6e"/></g></g><g><path d="m181.268 243.829c-4.142 0-7.5-3.357-7.5-7.5v-12c0-4.143 3.358-7.5 7.5-7.5s7.5 3.357 7.5 7.5v12c0 4.143-3.358 7.5-7.5 7.5z"/></g><g><path d="m256 280.3c-17.2 0-31.193-15.258-31.193-34.013 0-23.519 21.859-23.519 31.193-23.519s31.193 0 31.193 23.519c0 18.755-13.993 34.013-31.193 34.013zm0-42.531c-15.539 0-16.193 2.611-16.193 8.519 0 10.483 7.264 19.013 16.193 19.013s16.193-8.529 16.193-19.013c0-5.908-.655-8.519-16.193-8.519z"/></g><g><path d="m330.732 243.829c-4.143 0-7.5-3.357-7.5-7.5v-12c0-4.143 3.357-7.5 7.5-7.5s7.5 3.357 7.5 7.5v12c0 4.143-3.357 7.5-7.5 7.5z"/></g></g><g><path d="m482.327 136.35 21.466-21.466c10.722-10.723 10.722-28.169 0-38.892l-67.786-67.785c-5.194-5.193-12.101-8.055-19.445-8.055-7.346 0-14.252 2.861-19.446 8.055l-21.466 21.465c-36.581-19.346-77.581-29.672-119.65-29.672-68.38 0-132.667 26.629-181.02 74.98-48.351 48.352-74.98 112.64-74.98 181.02 0 42.429 10.261 83.28 29.594 119.729l-21.387 21.386c-10.722 10.723-10.722 28.169 0 38.892l67.786 67.786c5.362 5.361 12.402 8.042 19.446 8.041 7.041 0 14.085-2.681 19.445-8.041l21.388-21.387c36.449 19.333 77.298 29.594 119.728 29.594 68.38 0 132.668-26.629 181.02-74.98s74.98-112.64 74.98-181.02c0-42.069-10.326-83.069-29.673-119.65zm-378.049 356.836c-4.874 4.875-12.804 4.875-17.678 0l-67.786-67.786c-4.874-4.873-4.874-12.804 0-17.677l18.492-18.491c10.497 17.16 23.09 33.203 37.675 47.788s30.628 27.178 47.788 37.675zm151.722 3.814c-132.888 0-241-108.112-241-241s108.112-241 241-241c58.978 0 115.735 21.525 159.818 60.61 3.1 2.751 7.841 2.464 10.587-.636 2.748-3.1 2.464-7.84-.636-10.588-11.445-10.147-23.698-19.172-36.589-27.03l18.542-18.542c4.872-4.875 12.803-4.876 17.677 0l67.786 67.786c4.874 4.873 4.874 12.804 0 17.677l-18.543 18.543c-7.857-12.891-16.882-25.144-27.03-36.589-2.747-3.1-7.487-3.385-10.587-.637s-3.384 7.488-.636 10.588c39.086 44.083 60.611 100.84 60.611 159.818 0 132.888-108.112 241-241 241z"/><path d="m256 40c-119.103 0-216 96.897-216 216s96.897 216 216 216 216-96.897 216-216-96.897-216-216-216zm0 417c-110.832 0-201-90.168-201-201s90.168-201 201-201 201 90.168 201 201-90.168 201-201 201z"/><path d="m432 256c0-12.15-4.615-23.699-12.824-32.458 4.232-11.234 4.077-23.669-.573-34.895s-13.334-20.128-24.27-25.079c-.389-11.998-5.291-23.428-13.882-32.019-8.592-8.593-20.02-13.495-32.02-13.883-4.95-10.936-13.853-19.619-25.079-24.27-11.226-4.65-23.661-4.805-34.895-.573-8.758-8.208-20.307-12.823-32.457-12.823s-23.699 4.615-32.458 12.824c-11.234-4.231-23.67-4.076-34.895.573-11.227 4.65-20.129 13.333-25.079 24.27-11.999.389-23.429 5.291-32.02 13.883-8.592 8.592-13.494 20.021-13.882 32.019-10.936 4.951-19.62 13.854-24.27 25.079-4.649 11.226-4.805 23.661-.572 34.895-8.208 8.758-12.824 20.307-12.824 32.457s4.616 23.699 12.825 32.458c-4.232 11.233-4.077 23.669.572 34.895 4.651 11.228 13.336 20.131 24.274 25.08.194 5.833 1.456 11.613 3.727 16.978 1.615 3.813 6.017 5.597 9.831 3.981 3.814-1.615 5.597-6.017 3.982-9.831-2.065-4.876-2.909-10.261-2.441-15.57.309-3.507-1.862-6.756-5.22-7.813-9.21-2.897-16.607-9.665-20.294-18.565-3.687-8.901-3.241-18.917 1.222-27.479 1.627-3.121.865-6.954-1.833-9.215-7.401-6.202-11.645-15.284-11.645-24.919s4.244-18.717 11.644-24.919c2.698-2.261 3.46-6.094 1.833-9.215-4.463-8.562-4.909-18.577-1.222-27.479 3.688-8.9 11.084-15.668 20.294-18.565 3.358-1.057 5.529-4.306 5.22-7.813-.847-9.618 2.574-19.041 9.386-25.854 6.812-6.812 16.233-10.232 25.854-9.387 3.507.309 6.755-1.862 7.812-5.22 2.897-9.21 9.665-16.606 18.566-20.294s18.916-3.24 27.478 1.222c3.122 1.628 6.954.866 9.215-1.833 6.203-7.399 15.286-11.643 24.92-11.643s18.717 4.244 24.919 11.644c2.262 2.699 6.094 3.458 9.215 1.833 8.563-4.465 18.579-4.907 27.479-1.222 8.901 3.688 15.669 11.085 18.565 20.294 1.056 3.358 4.315 5.528 7.813 5.22 9.615-.848 19.043 2.574 25.854 9.388 6.813 6.812 10.234 16.235 9.388 25.854-.31 3.507 1.862 6.756 5.22 7.813 9.21 2.897 16.606 9.665 20.294 18.565 3.687 8.9 3.241 18.916-1.222 27.479-1.627 3.121-.865 6.954 1.833 9.215 7.398 6.2 11.642 15.283 11.642 24.917s-4.244 18.717-11.644 24.919c-2.698 2.261-3.46 6.094-1.833 9.215 4.463 8.563 4.908 18.578 1.222 27.479-3.688 8.9-11.084 15.668-20.294 18.565-3.357 1.057-5.529 4.306-5.22 7.813.847 9.618-2.575 19.042-9.388 25.854-6.811 6.812-16.227 10.236-25.854 9.387-3.506-.299-6.756 1.863-7.813 5.22-2.896 9.209-9.664 16.605-18.565 20.294-8.901 3.685-18.915 3.24-27.479-1.222-3.121-1.627-6.954-.865-9.215 1.833-6.199 7.399-15.282 11.643-24.917 11.643s-18.717-4.244-24.919-11.644c-2.261-2.698-6.093-3.461-9.215-1.833-8.562 4.464-18.578 4.907-27.478 1.222-8.901-3.688-15.668-11.084-18.566-20.294-1.057-3.358-4.308-5.537-7.812-5.22-5.306.463-10.694-.377-15.57-2.442-3.813-1.613-8.215.167-9.831 3.981-1.615 3.814.167 8.216 3.981 9.831 5.364 2.271 11.143 3.533 16.977 3.728 4.95 10.938 13.853 19.623 25.081 24.273 11.226 4.65 23.66 4.806 34.895.573 8.758 8.21 20.306 12.825 32.457 12.825s23.699-4.615 32.458-12.824c11.235 4.232 23.67 4.079 34.895-.573 11.227-4.65 20.129-13.334 25.079-24.27 11.999-.389 23.429-5.291 32.02-13.882 8.591-8.592 13.493-20.021 13.882-32.02 10.936-4.951 19.619-13.854 24.27-25.079s4.806-23.66.573-34.895c8.208-8.758 12.823-20.307 12.823-32.457z"/></g></g></svg>