<svg id="Capa_1" enable-background="new 0 0 512 512" height="512" viewBox="0 0 512 512" width="512" xmlns="http://www.w3.org/2000/svg"><g><g><g><path d="m505.462 256c0-18.165-8.216-34.406-21.129-45.227 7.788-14.939 9.164-33.088 2.213-49.87s-20.757-28.642-36.828-33.699c1.479-16.782-4.195-34.076-17.04-46.921s-30.138-18.519-46.921-17.04c-5.056-16.07-16.916-29.876-33.699-36.828-16.782-6.951-34.931-5.576-49.87 2.213-10.82-12.912-27.061-21.128-45.226-21.128s-34.406 8.216-45.227 21.129c-14.939-7.788-33.087-9.164-49.87-2.213-16.782 6.951-28.643 20.757-33.699 36.828-16.782-1.479-34.076 4.196-46.92 17.04s-18.519 30.138-17.04 46.921c-16.07 5.056-29.876 16.916-36.828 33.699s-5.576 34.931 2.213 49.87c-12.913 10.82-21.129 27.061-21.129 45.226s8.216 34.406 21.129 45.227c-7.788 14.939-9.164 33.087-2.213 49.87 6.951 16.782 20.758 28.643 36.828 33.699-1.478 16.782 4.196 34.076 17.04 46.92 12.845 12.845 30.138 18.519 46.92 17.04 5.056 16.07 16.917 29.876 33.699 36.828 16.782 6.951 34.931 5.576 49.87-2.213 10.821 12.912 27.062 21.129 45.227 21.129s34.406-8.216 45.227-21.129c14.939 7.788 33.087 9.164 49.87 2.213 16.782-6.951 28.643-20.758 33.699-36.828 16.782 1.479 34.076-4.196 46.921-17.04 12.845-12.845 18.519-30.138 17.04-46.92 16.07-5.056 29.876-16.916 36.828-33.699 6.951-16.782 5.576-34.931-2.213-49.87 12.912-10.821 21.128-27.062 21.128-45.227z" fill="#eb9b81"/></g></g><g><path d="m413.428 348.034c-137.023 0-248.5-111.476-248.5-248.5 0-26.927 4.322-52.86 12.28-77.162-5.155.639-10.31 1.959-15.343 4.044-16.782 6.951-28.643 20.757-33.699 36.828-16.782-1.479-34.076 4.196-46.92 17.04s-18.519 30.138-17.04 46.921c-16.07 5.056-29.876 16.916-36.828 33.699s-5.576 34.931 2.213 49.87c-12.913 10.82-21.129 27.061-21.129 45.226s8.216 34.406 21.129 45.227c-7.788 14.939-9.164 33.087-2.213 49.87 6.951 16.782 20.758 28.643 36.828 33.699-1.478 16.782 4.196 34.076 17.04 46.92 12.845 12.845 30.138 18.519 46.92 17.04 5.056 16.07 16.917 29.876 33.699 36.828 16.782 6.951 34.931 5.576 49.87-2.213 10.821 12.912 27.062 21.129 45.227 21.129s34.406-8.216 45.227-21.129c14.939 7.788 33.087 9.164 49.87 2.213 16.782-6.951 28.643-20.758 33.699-36.828 16.782 1.479 34.076-4.196 46.921-17.04 12.845-12.845 18.519-30.138 17.04-46.92 16.07-5.056 29.876-16.916 36.828-33.699 2.085-5.032 3.405-10.188 4.044-15.342-24.303 7.957-50.236 12.279-77.163 12.279z" fill="#d98263"/></g><g><g><g><ellipse cx="177.317" cy="264.269" fill="#fff" rx="29.387" ry="23.403"/></g><g><ellipse cx="336.607" cy="264.269" fill="#fff" rx="29.387" ry="23.403"/></g><g><path d="m280.655 246.288c0-14.643-10.608-16.019-23.694-16.019-13.085 0-23.693 1.376-23.693 16.019s10.608 26.513 23.693 26.513c13.086-.001 23.694-11.871 23.694-26.513z" fill="#6e6e6e"/></g></g><g><path d="m182.229 243.829c-4.143 0-7.5-3.357-7.5-7.5v-12c0-4.143 3.357-7.5 7.5-7.5s7.5 3.357 7.5 7.5v12c0 4.143-3.357 7.5-7.5 7.5z"/></g><g><path d="m256.962 280.3c-17.2 0-31.193-15.258-31.193-34.013 0-23.519 21.859-23.519 31.193-23.519s31.193 0 31.193 23.519c0 18.755-13.993 34.013-31.193 34.013zm0-42.531c-15.538 0-16.193 2.611-16.193 8.519 0 10.483 7.265 19.013 16.193 19.013 8.929 0 16.193-8.529 16.193-19.013 0-5.908-.655-8.519-16.193-8.519z"/></g><g><path d="m331.694 243.829c-4.143 0-7.5-3.357-7.5-7.5v-12c0-4.143 3.357-7.5 7.5-7.5s7.5 3.357 7.5 7.5v12c0 4.143-3.357 7.5-7.5 7.5z"/></g></g><g><path d="m71.677 385.454c.31-3.507-1.862-6.756-5.22-7.813-14.591-4.591-26.309-15.313-32.15-29.415-5.841-14.103-5.136-29.97 1.935-43.532 1.627-3.121.865-6.954-1.833-9.215-11.724-9.825-18.447-24.214-18.447-39.479s6.724-29.654 18.446-39.479c2.698-2.261 3.46-6.094 1.833-9.215-7.07-13.563-7.775-29.43-1.935-43.532 5.842-14.103 17.56-24.824 32.15-29.415 3.357-1.057 5.529-4.306 5.22-7.813-1.342-15.235 4.079-30.165 14.873-40.958 10.794-10.795 25.726-16.204 40.958-14.873 3.514.304 6.757-1.862 7.813-5.22 4.591-14.591 15.313-26.309 29.415-32.15 14.104-5.841 29.97-5.138 43.532 1.935 3.119 1.625 6.955.864 9.216-1.833 9.826-11.723 24.214-18.447 39.479-18.447 15.266 0 29.654 6.724 39.479 18.446 2.26 2.699 6.095 3.46 9.216 1.833 13.563-7.071 29.43-7.775 43.532-1.935 14.103 5.842 24.824 17.56 29.415 32.15 1.056 3.357 4.294 5.523 7.813 5.22 15.234-1.344 30.165 4.078 40.958 14.873 10.794 10.793 16.215 25.723 14.873 40.958-.31 3.507 1.862 6.756 5.22 7.813 14.59 4.591 26.309 15.312 32.15 29.415s5.137 29.971-1.935 43.532c-1.627 3.122-.865 6.955 1.833 9.217 8.256 6.917 14.053 16.039 16.766 26.379 1.052 4.006 5.15 6.399 9.158 5.352 4.007-1.052 6.402-5.151 5.352-9.158-3.014-11.484-8.964-21.8-17.338-30.139 6.755-16.258 6.818-34.514.021-50.923-6.797-16.41-19.752-29.274-36.026-35.994.02-17.607-6.908-34.499-19.467-47.059-12.543-12.542-29.404-19.467-46.985-19.467-.023 0-.049 0-.073 0-6.721-16.274-19.585-29.229-35.994-36.026-16.41-6.798-34.667-6.734-50.927.022-12.437-12.463-29.278-19.509-47.041-19.509-17.762 0-34.604 7.047-47.04 19.51-16.26-6.755-34.516-6.819-50.927-.022-16.409 6.797-29.273 19.752-35.994 36.026-.024 0-.05 0-.073 0-17.58 0-34.443 6.926-46.985 19.467-12.56 12.56-19.486 29.452-19.467 47.059-16.274 6.721-29.229 19.585-36.026 35.994-6.798 16.41-6.732 34.666.022 50.926-12.463 12.436-19.51 29.278-19.51 47.04s7.047 34.604 19.51 47.041c-6.755 16.26-6.82 34.516-.022 50.926 6.796 16.408 19.75 29.271 36.023 35.993-.024 11.817 3.063 23.319 9.052 33.57 1.395 2.387 3.904 3.717 6.482 3.717 1.285 0 2.588-.33 3.777-1.025 3.576-2.09 4.781-6.684 2.691-10.26-5.392-9.229-7.744-19.778-6.798-30.508z"/><path d="m505.439 263.746c-4.004-1.046-8.105 1.346-9.158 5.352-2.713 10.341-8.51 19.463-16.766 26.38-2.698 2.262-3.46 6.095-1.833 9.217 7.071 13.562 7.776 29.429 1.935 43.532s-17.561 24.824-32.15 29.415c-3.357 1.057-5.529 4.306-5.22 7.813 1.342 15.235-4.079 30.165-14.873 40.958-10.794 10.795-25.723 16.208-40.958 14.873-3.519-.306-6.757 1.862-7.813 5.22-4.591 14.591-15.313 26.309-29.415 32.15-14.103 5.84-29.969 5.137-43.532-1.935-3.121-1.628-6.954-.865-9.215 1.833-9.825 11.722-24.214 18.446-39.479 18.446-15.266 0-29.654-6.724-39.479-18.446-2.26-2.698-6.095-3.459-9.216-1.833-13.562 7.07-29.43 7.774-43.532 1.935-14.103-5.842-24.824-17.56-29.415-32.15-1.058-3.359-4.321-5.524-7.813-5.22-10.735.942-21.279-1.406-30.508-6.799-3.576-2.091-8.171-.885-10.26 2.691-2.09 3.576-.885 8.17 2.691 10.26 10.211 5.966 21.662 9.053 33.431 9.053.047 0 .094 0 .14-.001 6.722 16.273 19.585 29.228 35.993 36.023 16.41 6.799 34.667 6.733 50.927-.022 12.436 12.464 29.277 19.51 47.04 19.51 17.762 0 34.604-7.047 47.041-19.51 16.259 6.754 34.515 6.819 50.926.022 16.409-6.797 29.273-19.752 35.994-36.026h.073c17.58-.001 34.443-6.926 46.985-19.467 12.559-12.56 19.486-29.451 19.467-47.059 16.274-6.72 29.229-19.584 36.026-35.994 6.797-16.409 6.733-34.665-.021-50.923 8.374-8.339 14.324-18.654 17.338-30.14 1.052-4.007-1.344-8.106-5.351-9.158z"/><path d="m276.962 73.5h-12.5v-12.5c0-4.143-3.357-7.5-7.5-7.5s-7.5 3.357-7.5 7.5v12.5h-12.5c-4.143 0-7.5 3.357-7.5 7.5s3.357 7.5 7.5 7.5h12.5v12.5c0 4.143 3.357 7.5 7.5 7.5s7.5-3.357 7.5-7.5v-12.5h12.5c4.143 0 7.5-3.357 7.5-7.5s-3.358-7.5-7.5-7.5z"/><path d="m256.962 458.5c4.143 0 7.5-3.357 7.5-7.5v-12.5h12.5c4.143 0 7.5-3.357 7.5-7.5s-3.357-7.5-7.5-7.5h-12.5v-12.5c0-4.143-3.357-7.5-7.5-7.5s-7.5 3.357-7.5 7.5v12.5h-12.5c-4.143 0-7.5 3.357-7.5 7.5s3.357 7.5 7.5 7.5h12.5v12.5c0 4.143 3.357 7.5 7.5 7.5z"/><path d="m380.706 104.756c-4.143 0-7.5 3.357-7.5 7.5v12.5h-12.5c-4.143 0-7.5 3.357-7.5 7.5s3.357 7.5 7.5 7.5h12.5v12.5c0 4.143 3.357 7.5 7.5 7.5s7.5-3.357 7.5-7.5v-12.5h12.5c4.143 0 7.5-3.357 7.5-7.5s-3.357-7.5-7.5-7.5h-12.5v-12.5c0-4.143-3.357-7.5-7.5-7.5z"/><path d="m133.219 407.244c4.143 0 7.5-3.357 7.5-7.5v-12.5h12.5c4.143 0 7.5-3.357 7.5-7.5s-3.357-7.5-7.5-7.5h-12.5v-12.5c0-4.143-3.357-7.5-7.5-7.5s-7.5 3.357-7.5 7.5v12.5h-12.5c-4.143 0-7.5 3.357-7.5 7.5s3.357 7.5 7.5 7.5h12.5v12.5c0 4.143 3.357 7.5 7.5 7.5z"/><path d="m431.962 283.5c4.143 0 7.5-3.357 7.5-7.5v-12.5h12.5c4.143 0 7.5-3.357 7.5-7.5s-3.357-7.5-7.5-7.5h-12.5v-12.5c0-4.143-3.357-7.5-7.5-7.5s-7.5 3.357-7.5 7.5v12.5h-12.5c-4.143 0-7.5 3.357-7.5 7.5s3.357 7.5 7.5 7.5h12.5v12.5c0 4.143 3.357 7.5 7.5 7.5z"/><path d="m89.462 276v-12.5h12.5c4.143 0 7.5-3.357 7.5-7.5s-3.357-7.5-7.5-7.5h-12.5v-12.5c0-4.143-3.357-7.5-7.5-7.5s-7.5 3.357-7.5 7.5v12.5h-12.5c-4.143 0-7.5 3.357-7.5 7.5s3.357 7.5 7.5 7.5h12.5v12.5c0 4.143 3.357 7.5 7.5 7.5s7.5-3.357 7.5-7.5z"/><path d="m380.706 407.244c4.143 0 7.5-3.357 7.5-7.5v-12.5h12.5c4.143 0 7.5-3.357 7.5-7.5s-3.357-7.5-7.5-7.5h-12.5v-12.5c0-4.143-3.357-7.5-7.5-7.5s-7.5 3.357-7.5 7.5v12.5h-12.5c-4.143 0-7.5 3.357-7.5 7.5s3.357 7.5 7.5 7.5h12.5v12.5c0 4.143 3.357 7.5 7.5 7.5z"/><path d="m153.219 124.756h-12.5v-12.5c0-4.143-3.357-7.5-7.5-7.5s-7.5 3.357-7.5 7.5v12.5h-12.5c-4.143 0-7.5 3.357-7.5 7.5s3.357 7.5 7.5 7.5h12.5v12.5c0 4.143 3.357 7.5 7.5 7.5s7.5-3.357 7.5-7.5v-12.5h12.5c4.143 0 7.5-3.357 7.5-7.5s-3.358-7.5-7.5-7.5z"/></g></g></svg>