<svg id="Capa_1" enable-background="new 0 0 512 512" height="512" viewBox="0 0 512 512" width="512" xmlns="http://www.w3.org/2000/svg"><g><g><path d="m471.137 58.654c7.343-15.206-12.265-29.189-24.099-17.144-7.716 7.853-16.889 13.958-31.149 13.958-39.975 0-39.975-47.968-79.951-47.968-39.973 0-39.973 47.968-79.947 47.968-39.972 0-39.972-47.968-79.945-47.968-39.97 0-39.97 47.968-79.941 47.968-14.254 0-23.425-6.1-31.138-13.949-11.836-12.044-31.442 1.937-24.099 17.143l119.196 246.838h191.871z" fill="#dceefe"/></g><g><g><path d="m224.852 41.519c.054.055.11.107.164.162-14.008-14.172-23.153-34.181-48.97-34.181-39.971 0-39.971 47.968-79.941 47.968-14.254 0-23.425-6.1-31.138-13.949-11.836-12.044-31.442 1.937-24.099 17.143l119.196 246.838h159.886l-119.198-246.838c-7.343-15.206 12.264-29.187 24.1-17.143z" fill="#c4e2fe"/></g></g><g><g><g><ellipse cx="172.155" cy="148.956" fill="#fda0c1" rx="30.938" ry="24.637"/></g><g><ellipse cx="339.848" cy="148.956" fill="#fda0c1" rx="30.938" ry="24.637"/></g><g><ellipse cx="256.002" cy="130.026" fill="#6e6e6e" rx="16.423" ry="18.377"/></g></g><g><path d="m177.327 126.726c-4.143 0-7.5-3.357-7.5-7.5v-12c0-4.143 3.357-7.5 7.5-7.5s7.5 3.357 7.5 7.5v12c0 4.142-3.357 7.5-7.5 7.5z"/></g><g><path d="m256.002 155.902c-13.191 0-23.923-11.608-23.923-25.877s10.731-25.876 23.923-25.876c13.19 0 23.922 11.607 23.922 25.876s-10.732 25.877-23.922 25.877zm0-36.753c-4.92 0-8.923 4.879-8.923 10.876 0 5.998 4.003 10.877 8.923 10.877s8.922-4.879 8.922-10.877c0-5.997-4.002-10.876-8.922-10.876z"/></g><g><path d="m334.676 126.726c-4.143 0-7.5-3.357-7.5-7.5v-12c0-4.143 3.357-7.5 7.5-7.5s7.5 3.357 7.5 7.5v12c0 4.142-3.358 7.5-7.5 7.5z"/></g></g><g><path d="m409.5 504.5h-307c-41.421 0-75-33.579-75-75v-173.5h457v173.5c0 41.421-33.579 75-75 75z" fill="#fff2b4"/></g><g><path d="m127.5 429.5v-173.5h-100v173.5c0 41.421 33.579 75 75 75h100c-41.421 0-75-33.579-75-75z" fill="#ffdf8e"/></g><g><path d="m484.5 276h-457c-11.046 0-20-8.954-20-20 0-11.046 8.954-20 20-20h457c11.046 0 20 8.954 20 20 0 11.046-8.954 20-20 20z" fill="#fdb3cd"/></g><g><path d="m107.5 256c0-11.046 8.954-20 20-20h-100c-11.046 0-20 8.954-20 20s8.954 20 20 20h100c-11.046 0-20-8.954-20-20z" fill="#fda0c1"/></g><g><path d="m102.5 504.5h307c41.421 0 75-33.579 75-75v-99.25c-114.25 0-114.25 100-228.5 100s-114.25-100-228.5-100v99.25c0 41.421 33.579 75 75 75z" fill="#fda0c1"/></g><g><path d="m127.5 429.5v-61.494c-24.504-20.314-52.288-37.756-100-37.756v99.25c0 41.421 33.579 75 75 75h100c-41.421 0-75-33.579-75-75z" fill="#fc90b4"/></g><path d="m512 256c0-15.164-12.336-27.5-27.5-27.5h-87.053l42.73-88.487c1.801-3.73.237-8.214-3.492-10.016-3.734-1.803-8.214-.237-10.016 3.492l-45.88 95.011h-249.579l-83.589-173.1c-2.64-5.464 1.614-8.828 2.493-9.447 1.207-.849 5.456-3.297 9.502.822 7.409 7.539 18.251 16.192 36.488 16.192 23.498 0 35.311-14.176 45.732-26.683 9.518-11.42 17.737-21.284 34.21-21.284s24.692 9.863 34.21 21.285c10.422 12.507 22.235 26.683 45.734 26.683 23.5 0 35.313-14.176 45.735-26.683 9.518-11.421 17.739-21.285 34.213-21.285 16.476 0 24.695 9.864 34.214 21.286 10.423 12.506 22.236 26.682 45.736 26.682 18.244 0 29.09-8.659 36.499-16.202 4.047-4.119 8.294-1.67 9.501-.822.88.619 5.134 3.984 2.495 9.449l-23.227 48.098c-1.801 3.73-.237 8.214 3.492 10.016 3.731 1.801 8.214.237 10.016-3.492l23.227-48.098c4.892-10.131 1.86-21.743-7.371-28.239-9.152-6.442-21.01-5.384-28.833 2.577-8.173 8.32-15.647 11.714-25.799 11.714-16.475 0-24.694-9.864-34.213-21.285-10.423-12.508-22.237-26.684-45.737-26.684s-35.313 14.176-45.735 26.683c-9.518 11.421-17.738 21.285-34.212 21.285s-24.693-9.864-34.211-21.285c-10.423-12.507-22.235-26.683-45.734-26.683-23.498 0-35.311 14.176-45.732 26.683-9.518 11.421-17.736 21.285-34.209 21.285-10.146 0-17.618-3.392-25.789-11.706-7.821-7.959-19.68-9.02-28.834-2.575-9.23 6.496-12.26 18.107-7.368 28.237l80.438 166.576h-87.052c-15.164 0-27.5 12.336-27.5 27.5 0 12.564 8.471 23.178 20 26.452v147.048c0 45.49 37.01 82.5 82.5 82.5h307c45.49 0 82.5-37.01 82.5-82.5v-147.048c11.529-3.274 20-13.888 20-26.452zm-102.5 241h-307c-37.22 0-67.5-30.28-67.5-67.5v-91.581c49.318 2.06 74.858 24.384 101.811 47.974 7.025 6.149 14.289 12.508 21.958 18.447 1.367 1.059 2.983 1.57 4.588 1.57 2.24 0 4.456-.999 5.935-2.907 2.536-3.275 1.938-7.986-1.337-10.522-7.313-5.664-14.405-11.871-21.264-17.875-27.882-24.403-56.691-49.593-111.691-51.701v-39.405h442v39.403c-55.002 2.108-83.809 27.3-111.689 51.703-28.288 24.759-55.005 48.144-109.311 48.144-23.022 0-42.963-4.268-60.959-13.047-3.722-1.815-8.213-.27-10.028 3.452-1.816 3.723-.271 8.213 3.452 10.028 20.091 9.802 42.182 14.566 67.535 14.566 59.943 0 90.063-26.362 119.189-51.856 26.954-23.592 52.491-45.916 101.811-47.974v91.581c0 37.22-30.28 67.5-67.5 67.5zm75-228.5h-457c-6.893 0-12.5-5.607-12.5-12.5s5.607-12.5 12.5-12.5h98.94c.023 0 .047.005.07.005.029 0 .059-.005.088-.005h357.902c6.893 0 12.5 5.607 12.5 12.5s-5.607 12.5-12.5 12.5z"/></g></svg>