<svg id="Capa_1" enable-background="new 0 0 512 512" height="512" viewBox="0 0 512 512" width="512" xmlns="http://www.w3.org/2000/svg"><g><g><path d="m249.535 99.799h245.333v80h-245.333z" fill="#9ccefd" transform="matrix(.707 -.707 .707 .707 10.163 304.132)"/></g><g><path d="m504.5 212.833v-165.333c0-22.091-17.909-40-40-40h-165.333c-22.091 0-40 17.909-40 40 0 22.091 17.909 40 40 40h125.333v125.333c0 22.091 17.909 40 40 40 22.091 0 40-17.908 40-40z" fill="#b0d8fd"/></g><g><g><path d="m197.5 124.5c-104.934 0-190 85.066-190 190s85.066 190 190 190 190-85.066 190-190-85.066-190-190-190zm0 300c-60.654 0-110-49.346-110-110s49.346-110 110-110 110 49.346 110 110-49.346 110-110 110z" fill="#b0d8fd"/></g></g><g><path d="m157.5 464.5c0-22.091 17.909-40 40-40-60.654 0-110-49.346-110-110s49.346-110 110-110c-22.091 0-40-17.909-40-40s17.908-40 40-40c-104.934 0-190 85.066-190 190s85.066 190 190 190c-22.092 0-40-17.909-40-40z" fill="#9ccefd"/></g><g><g><path d="m424.5 19.216c5.533-5.533 12.079-9.43 19.038-11.716h-144.372c-22.091 0-40 17.909-40 40 0 22.091 17.909 40 40 40h125.333c-18.855-18.856-18.855-49.428.001-68.284z" fill="#9ccefd"/></g></g><g><g><g><ellipse cx="131.758" cy="321.325" fill="#fda0c1" rx="24.258" ry="19.318"/></g><g><ellipse cx="263.242" cy="321.325" fill="#fda0c1" rx="24.258" ry="19.318"/></g><g><path d="m217.058 306.483c0-12.087-8.756-13.223-19.558-13.223s-19.558 1.136-19.558 13.223 8.756 21.885 19.558 21.885 19.558-9.798 19.558-21.885z" fill="#6e6e6e"/></g></g><g><path d="m135.813 305.763c-4.143 0-7.5-3.357-7.5-7.5v-9.905c0-4.143 3.357-7.5 7.5-7.5s7.5 3.357 7.5 7.5v9.905c0 4.142-3.358 7.5-7.5 7.5z"/></g><g><path d="m197.5 335.867c-14.92 0-27.058-13.182-27.058-29.385 0-20.722 18.961-20.722 27.058-20.722s27.058 0 27.058 20.722c0 16.204-12.138 29.385-27.058 29.385zm0-35.106c-12.058 0-12.058 1.675-12.058 5.722 0 7.932 5.409 14.385 12.058 14.385s12.058-6.453 12.058-14.385c0-4.047 0-5.722-12.058-5.722z"/></g><g><path d="m259.188 305.763c-4.143 0-7.5-3.357-7.5-7.5v-9.905c0-4.143 3.357-7.5 7.5-7.5s7.5 3.357 7.5 7.5v9.905c0 4.142-3.358 7.5-7.5 7.5z"/></g></g><g><path d="m504.5 95c4.143 0 7.5-3.357 7.5-7.5v-40c0-26.191-21.309-47.5-47.5-47.5h-165.333c-26.191 0-47.5 21.309-47.5 47.5s21.309 47.5 47.5 47.5h50.657l-50.394 50.394c-29.775-18.014-64.662-28.394-101.93-28.394-108.902 0-197.5 88.598-197.5 197.5s88.598 197.5 197.5 197.5 197.5-88.598 197.5-197.5c0-37.268-10.38-72.155-28.394-101.93l50.394-50.394v50.657c0 26.191 21.309 47.5 47.5 47.5s47.5-21.309 47.5-47.5v-95.333c0-4.143-3.357-7.5-7.5-7.5s-7.5 3.357-7.5 7.5v95.333c0 17.921-14.579 32.5-32.5 32.5s-32.5-14.579-32.5-32.5v-125.333c0-4.143-3.357-7.5-7.5-7.5h-125.333c-17.921 0-32.5-14.579-32.5-32.5s14.579-32.5 32.5-32.5h165.333c17.921 0 32.5 14.579 32.5 32.5v40c0 4.143 3.357 7.5 7.5 7.5zm-307 402c-100.631 0-182.5-81.869-182.5-182.5s81.869-182.5 182.5-182.5 182.5 81.869 182.5 182.5-81.869 182.5-182.5 182.5zm219.5-356.039-58.823 58.823c-12.691-17.724-28.237-33.27-45.961-45.961l58.823-58.823h45.961z"/><path d="m197.5 197c-64.79 0-117.5 52.71-117.5 117.5 0 25.842 8.263 50.377 23.895 70.953 2.507 3.298 7.21 3.94 10.509 1.435 3.298-2.506 3.94-7.211 1.435-10.509-13.633-17.944-20.839-39.342-20.839-61.879 0-56.519 45.981-102.5 102.5-102.5s102.5 45.981 102.5 102.5-45.981 102.5-102.5 102.5c-22.538 0-43.937-7.206-61.88-20.839-3.3-2.506-8.003-1.863-10.509 1.435s-1.863 8.003 1.435 10.509c20.575 15.632 45.11 23.895 70.954 23.895 64.79 0 117.5-52.71 117.5-117.5s-52.71-117.5-117.5-117.5z"/></g></g></svg>