<svg id="Capa_1" enable-background="new 0 0 512 512" height="512" viewBox="0 0 512 512" width="512" xmlns="http://www.w3.org/2000/svg"><g><g><path d="m136 206h60v100h-60z" fill="#b0d8fd"/></g><g><path d="m166 504.5c-27.614 0-50-22.386-50-50v-162c0-11.046 8.954-20 20-20h60c11.046 0 20 8.954 20 20v162c0 27.614-22.386 50-50 50z" fill="#9edcae"/></g><g><ellipse cx="166" cy="120" fill="#dceefe" rx="90" ry="112.5"/></g><g><path d="m166 120c0-41.64 18.1-77.994 45-97.446-13.238-9.573-28.606-15.054-45-15.054-49.706 0-90 50.368-90 112.5s40.294 112.5 90 112.5c16.393 0 31.762-5.481 45-15.054-26.9-19.452-45-55.806-45-97.446z" fill="#c4e2fe"/></g><g><g><path d="m116 129.444c-4.142 0-7.5-3.357-7.5-7.5v-9.608c0-4.143 3.358-7.5 7.5-7.5s7.5 3.357 7.5 7.5v9.608c0 4.143-3.358 7.5-7.5 7.5z"/></g><g><path d="m216 129.444c-4.142 0-7.5-3.357-7.5-7.5v-9.608c0-4.143 3.358-7.5 7.5-7.5s7.5 3.357 7.5 7.5v9.608c0 4.143-3.358 7.5-7.5 7.5z"/></g><g><path d="m166 135.164c-7.22 0-14.085-3.127-18.836-8.578-2.721-3.123-2.396-7.86.727-10.582 3.123-2.721 7.86-2.396 10.582.727 1.901 2.183 4.645 3.434 7.528 3.434s5.626-1.251 7.528-3.434c2.722-3.123 7.459-3.447 10.582-.727 3.123 2.722 3.448 7.459.727 10.582-4.753 5.451-11.618 8.578-18.838 8.578z"/></g></g><g><path d="m166 454.5v-162c0-11.046 8.954-20 20-20h-50c-11.046 0-20 8.954-20 20v162c0 27.614 22.386 50 50 50 9.11 0 17.644-2.449 25-6.706-14.941-8.646-25-24.79-25-43.294z" fill="#7fd196"/></g><g><path d="m316 206h60v100h-60z" fill="#b0d8fd"/></g><g><path d="m346 7.5c27.614 0 50 22.386 50 50v162c0 11.046-8.954 20-20 20h-60c-11.046 0-20-8.954-20-20v-162c0-27.614 22.386-50 50-50z" fill="#ffdf8e"/></g><g><path d="m346 57.5v162c0 11.046 8.954 20 20 20h-50c-11.046 0-20-8.954-20-20v-162c0-27.614 22.386-50 50-50 9.11 0 17.644 2.449 25 6.706-14.941 8.646-25 24.79-25 43.294z" fill="#ffcd6e"/></g><g><path d="m346 279.5c-49.706 0-90 50.368-90 112.5v94.5c0 9.941 8.059 18 18 18 9.941 0 18-8.059 18-18v-76.5c0-9.941 8.059-18 18-18 9.941 0 18 8.059 18 18v76.5c0 9.941 8.059 18 18 18 9.941 0 18-8.059 18-18v-76.5c0-9.941 8.059-18 18-18 9.941 0 18 8.059 18 18v76.5c0 9.941 8.059 18 18 18 9.941 0 18-8.059 18-18v-94.5c0-62.132-40.294-112.5-90-112.5z" fill="#dceefe"/></g><g><g><path d="m346 392c0-41.64 18.1-77.994 45-97.446-13.238-9.573-28.607-15.054-45-15.054-49.706 0-90 50.368-90 112.5v94.5c0 9.941 8.059 18 18 18 9.941 0 18-8.059 18-18v-76.5c0-9.941 8.059-18 18-18 9.941 0 18 8.059 18 18v76.5c0 9.941 8.059 18 18 18 9.941 0 18-8.059 18-18v-26.994c-11.301-18.803-18-42.176-18-67.506z" fill="#c4e2fe"/></g></g><g><g><path d="m296 356.835c-4.142 0-7.5-3.357-7.5-7.5v-9.608c0-4.143 3.358-7.5 7.5-7.5s7.5 3.357 7.5 7.5v9.608c0 4.143-3.358 7.5-7.5 7.5z"/></g><g><path d="m396 356.835c-4.142 0-7.5-3.357-7.5-7.5v-9.608c0-4.143 3.358-7.5 7.5-7.5s7.5 3.357 7.5 7.5v9.608c0 4.143-3.358 7.5-7.5 7.5z"/></g><g><path d="m346 362.554c-7.22 0-14.086-3.126-18.836-8.577-2.721-3.123-2.396-7.86.727-10.582 3.123-2.721 7.861-2.396 10.582.727 1.901 2.182 4.645 3.433 7.528 3.433s5.627-1.251 7.528-3.433c2.722-3.123 7.459-3.447 10.582-.727 3.123 2.722 3.448 7.459.727 10.582-4.752 5.451-11.618 8.577-18.838 8.577z"/></g></g><g><path d="m256 127.587c-4.116-.44-7.814 2.541-8.255 6.66-5.532 51.737-40.674 90.753-81.745 90.753-45.491 0-82.5-47.103-82.5-105s37.009-105 82.5-105c41.071 0 76.214 39.016 81.745 90.754.44 4.119 4.134 7.107 8.255 6.66 4.119-.439 7.101-4.136 6.66-8.254-3.03-28.339-14.252-54.479-31.6-73.603-17.874-19.704-40.98-30.557-65.06-30.557-53.762 0-97.5 53.832-97.5 120 0 49.821 24.799 92.644 60 110.764v35.284c-11.528 3.274-20 13.889-20 26.452v162c0 31.706 25.794 57.5 57.5 57.5s57.5-25.794 57.5-57.5v-162c0-12.563-8.472-23.178-20-26.452v-35.24c10.016-5.123 19.342-12.305 27.56-21.365 17.348-19.125 28.57-45.264 31.6-73.603.44-4.117-2.542-7.814-6.66-8.253zm-47.5 164.913v162c0 23.435-19.065 42.5-42.5 42.5s-42.5-19.065-42.5-42.5v-162c0-6.893 5.607-12.5 12.5-12.5h60c6.893 0 12.5 5.607 12.5 12.5zm-20-27.5h-45v-28.231c7.226 2.109 14.758 3.231 22.5 3.231 7.644 0 15.189-1.097 22.5-3.22z"/><path d="m383.5 281.236v-35.284c11.528-3.274 20-13.889 20-26.452v-162c0-31.706-25.794-57.5-57.5-57.5s-57.5 25.794-57.5 57.5v162c0 12.563 8.472 23.178 20 26.452v35.284c-35.201 18.12-60 60.943-60 110.764v94.5c0 14.061 11.439 25.5 25.5 25.5s25.5-11.439 25.5-25.5v-76.5c0-5.79 4.71-10.5 10.5-10.5s10.5 4.71 10.5 10.5v20.828c0 4.143 3.358 7.5 7.5 7.5s7.5-3.357 7.5-7.5v-20.828c0-14.061-11.439-25.5-25.5-25.5s-25.5 11.439-25.5 25.5v76.5c0 5.79-4.71 10.5-10.5 10.5s-10.5-4.71-10.5-10.5v-94.5c0-57.897 37.009-105 82.5-105s82.5 47.103 82.5 105v94.5c0 5.79-4.71 10.5-10.5 10.5s-10.5-4.71-10.5-10.5v-76.5c0-14.061-11.439-25.5-25.5-25.5s-25.5 11.439-25.5 25.5v76.5c0 5.79-4.71 10.5-10.5 10.5s-10.5-4.71-10.5-10.5v-25.667c0-4.143-3.358-7.5-7.5-7.5s-7.5 3.357-7.5 7.5v25.667c0 14.061 11.439 25.5 25.5 25.5s25.5-11.439 25.5-25.5v-76.5c0-5.79 4.71-10.5 10.5-10.5s10.5 4.71 10.5 10.5v76.5c0 14.061 11.439 25.5 25.5 25.5s25.5-11.439 25.5-25.5v-94.5c0-49.821-24.799-92.644-60-110.764zm-80-61.736v-162c0-23.435 19.065-42.5 42.5-42.5s42.5 19.065 42.5 42.5v162c0 6.893-5.607 12.5-12.5 12.5h-60c-6.893 0-12.5-5.607-12.5-12.5zm20 55.731v-28.231h45v28.231c-7.226-2.109-14.758-3.231-22.5-3.231s-15.274 1.122-22.5 3.231z"/></g></g></svg>