<svg id="Capa_1" enable-background="new 0 0 512 512" height="512" viewBox="0 0 512 512" width="512" xmlns="http://www.w3.org/2000/svg"><g><g><path d="m404.5 504.5h-297c-55.228 0-100-44.772-100-100v-297c0-55.228 44.772-100 100-100h297c55.228 0 100 44.772 100 100v297c0 55.228-44.772 100-100 100z" fill="#f7f0eb"/></g><g><path d="m236 484.5c0-11.046 8.954-20 20-20v-417c-11.046 0-20-8.954-20-20s8.954-20 20-20h-148.5c-55.228 0-100 44.771-100 100v297c0 55.229 44.772 100 100 100h148.5c-11.046 0-20-8.954-20-20z" fill="#efe2dd"/></g><g><path d="m107.5 464.5c-33.084 0-60-26.916-60-60v-297c0-33.084 26.916-60 60-60h297c33.084 0 60 26.916 60 60v297c0 33.084-26.916 60-60 60z" fill="#838383"/></g><g><path d="m127.5 404.5v-297c0-33.084 26.916-60 60-60h-80c-33.084 0-60 26.916-60 60v297c0 33.084 26.916 60 60 60h80c-33.084 0-60-26.916-60-60z" fill="#6e6e6e"/></g><g><path d="m385.25 425.25h-70c-22.091 0-40-17.909-40-40v-70c0-22.091 17.909-40 40-40h70c22.091 0 40 17.909 40 40v70c0 22.091-17.909 40-40 40z" fill="#fdb3cd"/></g><g><path d="m325.25 385.25v-70c0-22.091 17.909-40 40-40h-50c-22.091 0-40 17.909-40 40v70c0 22.091 17.909 40 40 40h50c-22.091 0-40-17.909-40-40z" fill="#fda0c1"/></g><g><circle cx="161.75" cy="161.75" fill="#c4e2fe" r="75"/></g><g><path d="m161.75 161.75c0-27.756 15.089-51.972 37.5-64.941-11.034-6.385-23.834-10.059-37.5-10.059-41.421 0-75 33.579-75 75s33.579 75 75 75c13.666 0 26.466-3.673 37.5-10.059-22.411-12.969-37.5-37.185-37.5-64.941z" fill="#b0d8fd"/></g><g><path d="m276.681 212.963 64.909-112.426c3.849-6.667 13.471-6.667 17.32 0l64.909 112.426c3.849 6.667-.962 15-8.66 15h-129.818c-7.698 0-12.509-8.333-8.66-15z" fill="#9edcae"/></g><g><path d="m408.342 186.156c-5.263 1.17-10.727 1.807-16.342 1.807-33.181 0-61.311-21.557-71.197-51.422l-44.122 76.422c-3.849 6.667.962 15 8.66 15h129.818c7.698 0 12.509-8.333 8.66-15z" fill="#7fd196"/></g><g><path d="m170.718 284.005 15.429 31.262c1.457 2.952 4.273 4.998 7.53 5.471l34.499 5.013c8.203 1.192 11.478 11.273 5.543 17.059l-24.964 24.334c-2.357 2.298-3.433 5.608-2.876 8.852l5.893 34.36c1.401 8.17-7.174 14.4-14.511 10.543l-30.857-16.223c-2.914-1.532-6.394-1.532-9.308 0l-30.857 16.223c-7.337 3.857-15.912-2.373-14.511-10.543l5.893-34.36c.556-3.244-.519-6.555-2.876-8.852l-24.964-24.334c-5.936-5.786-2.66-15.867 5.543-17.059l34.499-5.013c3.257-.473 6.073-2.519 7.53-5.471l15.429-31.262c3.668-7.433 14.268-7.433 17.936 0z" fill="#fff2b4"/></g><g><path d="m205.879 375.996c-.162-.945-.17-1.892-.064-2.822-33.993-.232-62.595-23.075-71.551-54.242-1.293.94-2.812 1.57-4.441 1.806l-34.499 5.013c-8.203 1.192-11.478 11.273-5.543 17.059l24.964 24.334c2.357 2.297 3.433 5.608 2.876 8.852l-5.893 34.36c-1.401 8.17 7.174 14.4 14.511 10.543l30.857-16.223c2.914-1.532 6.394-1.532 9.308 0l30.857 16.223c7.337 3.857 15.912-2.373 14.511-10.543z" fill="#ffdf8e"/></g><g><g><path d="m404.5 512h-297c-59.276 0-107.5-48.225-107.5-107.5v-297c0-59.275 48.224-107.5 107.5-107.5h297c59.276 0 107.5 48.225 107.5 107.5v297c0 59.275-48.224 107.5-107.5 107.5zm-297-497c-51.005 0-92.5 41.495-92.5 92.5v297c0 51.005 41.495 92.5 92.5 92.5h297c51.005 0 92.5-41.495 92.5-92.5v-297c0-51.005-41.495-92.5-92.5-92.5z"/></g><g><path d="m404.5 472h-297c-37.22 0-67.5-30.28-67.5-67.5v-297c0-37.22 30.28-67.5 67.5-67.5h88.5c4.142 0 7.5 3.357 7.5 7.5s-3.357 7.5-7.5 7.5h-88.5c-28.949 0-52.5 23.552-52.5 52.5v297c0 28.948 23.551 52.5 52.5 52.5h297c28.949 0 52.5-23.552 52.5-52.5v-297c0-28.948-23.551-52.5-52.5-52.5h-177.75c-4.142 0-7.5-3.357-7.5-7.5s3.358-7.5 7.5-7.5h177.75c37.22 0 67.5 30.28 67.5 67.5v297c0 37.22-30.28 67.5-67.5 67.5z"/></g><g><path d="m385.25 432.75h-70c-26.191 0-47.5-21.309-47.5-47.5v-70c0-26.191 21.309-47.5 47.5-47.5h70c26.191 0 47.5 21.309 47.5 47.5v20.001c0 4.143-3.358 7.5-7.5 7.5s-7.5-3.357-7.5-7.5v-20.001c0-17.921-14.58-32.5-32.5-32.5h-70c-17.92 0-32.5 14.579-32.5 32.5v70c0 17.921 14.58 32.5 32.5 32.5h70c17.92 0 32.5-14.579 32.5-32.5v-20.004c0-4.143 3.358-7.5 7.5-7.5s7.5 3.357 7.5 7.5v20.004c0 26.191-21.309 47.5-47.5 47.5z"/></g><g><path d="m161.75 244.25c-45.491 0-82.5-37.01-82.5-82.5s37.009-82.5 82.5-82.5 82.5 37.01 82.5 82.5-37.009 82.5-82.5 82.5zm0-150c-37.22 0-67.5 30.28-67.5 67.5s30.28 67.5 67.5 67.5 67.5-30.28 67.5-67.5-30.28-67.5-67.5-67.5z"/></g><g><path d="m415.159 235.463h-129.818c-6.327 0-11.992-3.271-15.155-8.75-3.164-5.479-3.164-12.021 0-17.5l64.909-112.426c3.163-5.479 8.829-8.75 15.155-8.75s11.992 3.271 15.155 8.75l64.909 112.426c3.164 5.479 3.164 12.021 0 17.5-3.163 5.479-8.828 8.75-15.155 8.75zm-64.909-132.426c-.539 0-1.537.162-2.165 1.25l-64.909 112.426c-.628 1.088-.27 2.033 0 2.5s.909 1.25 2.165 1.25h129.818c1.256 0 1.896-.783 2.165-1.25s.628-1.412 0-2.5l-64.909-112.426c-.628-1.088-1.626-1.25-2.165-1.25z"/></g><g><path d="m201.917 429.569c-2.84 0-5.581-.684-8.146-2.032l-30.857-16.223c-.714-.375-1.612-.375-2.328 0l-30.856 16.223c-2.565 1.349-5.306 2.032-8.146 2.032-5.164 0-10.054-2.288-13.417-6.277-3.309-3.925-4.705-9.103-3.83-14.204l5.893-34.359c.139-.813-.13-1.64-.719-2.215l-24.963-24.333c-4.806-4.685-6.502-11.559-4.429-17.94 2.074-6.382 7.487-10.946 14.128-11.911l34.5-5.013c.814-.118 1.519-.63 1.883-1.368l15.429-31.262c2.97-6.018 8.983-9.756 15.694-9.756s12.724 3.738 15.694 9.756l15.429 31.262c.364.738 1.068 1.25 1.883 1.368l34.499 5.013c6.641.965 12.054 5.529 14.128 11.911 2.073 6.382.376 13.256-4.429 17.94l-24.963 24.334c-.589.574-.858 1.401-.719 2.214l5.893 34.359c.875 5.102-.521 10.279-3.831 14.204-3.366 3.989-8.257 6.277-13.42 6.277zm-40.167-33.542c2.826 0 5.642.695 8.143 2.01l30.858 16.223c.396.208.777.31 1.166.31.71 0 1.457-.362 1.949-.945.479-.569.647-1.224.514-2.001l-5.893-34.359c-.974-5.678.907-11.469 5.033-15.49l24.964-24.335c.969-.943.813-2.011.633-2.563-.179-.552-.68-1.508-2.019-1.702l-34.5-5.013c-5.702-.829-10.627-4.408-13.177-9.573l-15.429-31.262c-.599-1.214-1.662-1.395-2.243-1.395s-1.644.181-2.243 1.395l-15.429 31.262c-2.549 5.165-7.475 8.744-13.176 9.573l-34.5 5.013c-1.339.194-1.84 1.15-2.019 1.702-.18.553-.336 1.619.633 2.563l24.964 24.334c4.125 4.022 6.007 9.813 5.033 15.491l-5.893 34.359c-.133.778.035 1.433.514 2.001.492.583 1.238.945 1.949.945.388 0 .77-.102 1.166-.31l30.857-16.223c2.503-1.314 5.319-2.01 8.145-2.01z"/></g></g></g></svg>