<svg id="Capa_1" enable-background="new 0 0 512 512" height="512" viewBox="0 0 512 512" width="512" xmlns="http://www.w3.org/2000/svg"><g><g><path d="m421 194.53v60h-165l-85-30.91-80-29.09c0-14.89 3.32-29.4 9.51-42.56s15.25-24.97 26.72-34.46c15.64-12.96 26.42-30.84 30.57-50.72l8.2-39.29h180l8.2 39.29c2.08 9.94 5.81 19.38 10.98 27.95 5.16 8.58 11.77 16.29 19.59 22.77 22.95 18.99 36.23 47.23 36.23 77.02z" fill="#c4e2fe"/></g><g><path d="m246 27.5-8.2 39.29c-2.08 9.94-5.81 19.38-10.98 27.95-5.16 8.58-11.77 16.29-19.59 22.77-22.95 18.99-36.23 47.23-36.23 77.02v29.09l-80-29.09c0-14.89 3.32-29.4 9.51-42.56s15.25-24.97 26.72-34.46c15.64-12.96 26.42-30.84 30.57-50.72l8.2-39.29z" fill="#b0d8fd"/></g><g><path d="m346 47.5h-180c-11.046 0-20-8.954-20-20 0-11.046 8.954-20 20-20h180c11.046 0 20 8.954 20 20 0 11.046-8.954 20-20 20z" fill="#dceefe"/></g><g><path d="m226 27.5c0-11.046 8.954-20 20-20h-80c-11.046 0-20 8.954-20 20 0 11.046 8.954 20 20 20h80c-11.046 0-20-8.954-20-20z" fill="#c4e2fe"/></g><g><path d="m191 504.5h130c55.229 0 100-44.771 100-100v-149.968c-165 0-165-60-330-60v209.968c0 55.229 44.771 100 100 100z" fill="#f7f0eb"/></g><g><path d="m171 404.5v-204.038c-22.042-3.659-47.897-5.931-80-5.931v209.969c0 55.229 44.771 100 100 100h80c-55.229 0-100-44.771-100-100z" fill="#efe2dd"/></g><g><g><g><ellipse cx="176.355" cy="357.785" fill="#fda0c1" rx="29.387" ry="23.403"/></g><g><ellipse cx="335.645" cy="357.785" fill="#fda0c1" rx="29.387" ry="23.403"/></g><g><path d="m279.694 339.803c0-14.643-10.608-16.019-23.693-16.019-13.086 0-23.694 1.376-23.694 16.019s10.608 26.513 23.694 26.513c13.085 0 23.693-11.87 23.693-26.513z" fill="#6e6e6e"/></g></g><g><path d="m181.268 337.345c-4.143 0-7.5-3.357-7.5-7.5v-12c0-4.143 3.357-7.5 7.5-7.5s7.5 3.357 7.5 7.5v12c0 4.142-3.358 7.5-7.5 7.5z"/></g><g><path d="m256 373.816c-17.2 0-31.193-15.258-31.193-34.013 0-23.519 21.859-23.519 31.193-23.519s31.193 0 31.193 23.519c0 18.756-13.993 34.013-31.193 34.013zm0-42.531c-15.538 0-16.193 2.611-16.193 8.519 0 10.483 7.265 19.013 16.193 19.013s16.193-8.529 16.193-19.013c0-5.908-.655-8.519-16.193-8.519z"/></g><g><path d="m330.732 337.345c-4.143 0-7.5-3.357-7.5-7.5v-12c0-4.143 3.357-7.5 7.5-7.5s7.5 3.357 7.5 7.5v12c0 4.142-3.357 7.5-7.5 7.5z"/></g></g><path d="m389.555 111.734c-7.146-5.922-13.185-12.939-17.953-20.868-4.776-7.917-8.161-16.535-10.06-25.608l-2.797-13.401c8.762-4.604 14.755-13.792 14.755-24.357 0-15.163-12.337-27.5-27.5-27.5h-180c-15.163 0-27.5 12.337-27.5 27.5 0 10.565 5.993 19.753 14.755 24.357l-2.797 13.401c-3.786 18.14-13.734 34.646-28.009 46.474-12.102 10.012-22.035 22.822-28.727 37.046-6.687 14.22-10.222 30.04-10.222 45.752v.001 108.31c0 4.143 3.357 7.5 7.5 7.5s7.5-3.357 7.5-7.5v-100.766c76.153.86 114.457 14.785 154.937 29.505 39.923 14.517 81.172 29.513 160.063 30.407v142.513c0 51.005-41.495 92.5-92.5 92.5h-130c-51.005 0-92.5-41.495-92.5-92.5v-71.656c0-4.143-3.357-7.5-7.5-7.5s-7.5 3.357-7.5 7.5v71.656c0 59.275 48.225 107.5 107.5 107.5h130c59.275 0 107.5-48.225 107.5-107.5v-209.97c0-32.137-14.196-62.317-38.945-82.796zm-130.992 105.749c-39.871-14.499-81.063-29.475-159.754-30.404.903-11.023 3.789-21.929 8.486-31.917 5.758-12.238 14.304-23.26 24.72-31.877 16.884-13.991 28.648-33.511 33.126-54.963l2.781-13.322h123.334c4.143 0 7.5-3.357 7.5-7.5s-3.357-7.5-7.5-7.5h-125.256c-6.893 0-12.5-5.607-12.5-12.5s5.607-12.5 12.5-12.5h180c6.893 0 12.5 5.607 12.5 12.5s-5.607 12.5-12.5 12.5h-24.743c-4.143 0-7.5 3.357-7.5 7.5s3.357 7.5 7.5 7.5h22.821l2.781 13.326c2.246 10.732 6.249 20.923 11.894 30.279 5.636 9.373 12.779 17.676 21.235 24.683 21.297 17.622 33.512 43.589 33.512 71.242v52.458c-76.153-.859-114.456-14.785-154.937-29.505z"/></g></svg>