<svg id="Capa_1" enable-background="new 0 0 511.975 511.975" height="512" viewBox="0 0 511.975 511.975" width="512" xmlns="http://www.w3.org/2000/svg"><g><g><circle cx="459.128" cy="188.362" fill="#ffdfcf" r="45.372"/></g><g><path d="m471.748 220.444c-17.719-17.719-17.719-46.446 0-64.165 2.968-2.968 6.25-5.426 9.732-7.4-17.307-9.809-39.682-7.35-54.433 7.4-17.719 17.719-17.719 46.446 0 64.165 14.751 14.751 37.126 17.21 54.433 7.4-3.483-1.973-6.765-4.432-9.732-7.4z" fill="#ffcebf"/></g><g><circle cx="296.137" cy="65.04" fill="#ffdfcf" r="36.297"/></g><g><path d="m306.724 90.706c-14.175-14.175-14.175-37.157 0-51.332 2.305-2.305 4.845-4.228 7.539-5.783-13.879-8.01-31.922-6.087-43.793 5.783-14.175 14.175-14.175 37.157 0 51.332 11.87 11.87 29.914 13.794 43.793 5.783-2.694-1.555-5.234-3.479-7.539-5.783z" fill="#ffcebf"/></g><g><circle cx="385.079" cy="101.479" fill="#ffdfcf" r="36.297"/></g><g><path d="m395.666 127.145c-14.175-14.175-14.175-37.157 0-51.332 2.305-2.305 4.845-4.228 7.539-5.783-13.879-8.01-31.922-6.087-43.793 5.783-14.175 14.175-14.175 37.157 0 51.332 11.87 11.87 29.914 13.794 43.793 5.783-2.694-1.555-5.234-3.478-7.539-5.783z" fill="#ffcebf"/></g><g><circle cx="206.942" cy="65.04" fill="#ffdfcf" r="26.773"/></g><g><path d="m214.751 83.971c-10.455-10.455-10.455-27.407 0-37.862 1.7-1.7 3.574-3.118 5.561-4.266-10.237-5.908-23.546-4.49-32.301 4.266-10.455 10.455-10.455 27.407 0 37.862 8.755 8.756 22.065 10.174 32.301 4.266-1.987-1.148-3.861-2.566-5.561-4.266z" fill="#ffcebf"/></g><g><path d="m326.698 350.518c52.011-52.011 51.542-136.63-1.408-188.053-51.359-49.878-134.035-49.418-184.866.998-16.454 16.32-27.705 35.887-33.757 56.649-7.608 26.099-24.228 48.838-47.454 62.966-7.336 4.463-14.255 9.88-20.578 16.253-41.946 42.278-41.439 111.379 1.098 153.063 42.195 41.35 109.921 41.089 151.794-.784 6.306-6.306 11.667-13.197 16.084-20.5 13.882-22.948 36.199-39.65 61.996-46.986 20.905-5.945 40.631-17.146 57.091-33.606z" fill="#ffdfcf"/></g><g><path d="m263.947 385.909c-23.492-5.311-45.815-17.103-64.104-35.392-51.546-51.546-51.546-135.118 0-186.664 18.042-18.042 40.01-29.76 63.152-35.172-42.721-9.725-89.419 1.9-122.571 34.782-16.454 16.32-27.705 35.887-33.757 56.649-7.608 26.099-24.228 48.838-47.454 62.966-7.336 4.463-14.255 9.88-20.578 16.253-41.946 42.278-41.439 111.379 1.098 153.063 42.195 41.35 109.921 41.089 151.794-.784 6.306-6.306 11.667-13.197 16.084-20.5 12.855-21.251 32.947-37.14 56.336-45.201z" fill="#ffcebf"/></g><g><g><g><ellipse cx="193.168" cy="192.786" fill="#fda0c1" rx="21.733" ry="27.29" transform="matrix(.707 -.707 .707 .707 -79.742 193.058)"/></g><g><ellipse cx="297.765" cy="297.382" fill="#fda0c1" rx="21.733" ry="27.29" transform="matrix(.707 -.707 .707 .707 -123.068 297.651)"/></g></g><g><path d="m219.208 196.739c-1.919 0-3.839-.732-5.303-2.196-2.93-2.929-2.93-7.678-.001-10.606l7.888-7.889c2.93-2.93 7.679-2.929 10.606-.001 2.93 2.929 2.93 7.678.001 10.606l-7.888 7.889c-1.464 1.464-3.384 2.197-5.303 2.197z"/></g><g><path d="m301.312 278.843c-1.919 0-3.839-.732-5.304-2.196-2.929-2.93-2.929-7.678 0-10.607l7.889-7.889c2.93-2.928 7.678-2.928 10.607 0 2.929 2.93 2.929 7.678 0 10.607l-7.889 7.889c-1.465 1.464-3.385 2.196-5.303 2.196z"/></g><g><path d="m269.92 248.427c-7.354 0-14.431-2.908-19.66-8.137-5.681-5.683-8.622-13.545-8.07-21.572.284-4.132 3.855-7.237 7.997-6.968 4.132.284 7.252 3.864 6.968 7.997-.255 3.7 1.099 7.321 3.713 9.937 2.613 2.613 6.225 3.971 9.937 3.713 4.128-.271 7.713 2.836 7.996 6.969s-2.837 7.713-6.969 7.996c-.64.044-1.277.065-1.912.065z"/></g></g><g><g><path d="m459.129 241.233c-14.123 0-27.4-5.499-37.386-15.484-20.615-20.615-20.615-54.158-.001-74.773 9.986-9.985 23.264-15.485 37.387-15.485 14.122 0 27.399 5.5 37.386 15.485 20.614 20.615 20.614 54.158 0 74.773-9.987 9.985-23.264 15.484-37.386 15.484zm0-90.743c-10.116 0-19.627 3.939-26.779 11.093-7.153 7.152-11.093 16.663-11.093 26.779s3.939 19.627 11.093 26.779c7.152 7.153 16.663 11.092 26.779 11.092 10.115 0 19.626-3.938 26.779-11.092 14.766-14.766 14.766-38.793-.001-53.559-7.152-7.153-16.663-11.092-26.778-11.092z"/></g><g><path d="m296.137 108.816c-11.216 0-22.431-4.269-30.97-12.807-3.748-3.749-6.751-8.079-8.924-12.872-1.711-3.772-.04-8.217 3.732-9.928 3.776-1.711 8.219-.039 9.928 3.732 1.427 3.145 3.401 5.991 5.871 8.46 11.227 11.229 29.498 11.229 40.725 0 11.229-11.228 11.229-29.497 0-40.725-11.227-11.229-29.498-11.229-40.725 0-2.469 2.468-4.443 5.313-5.87 8.458-1.71 3.771-6.153 5.445-9.928 3.732-3.772-1.711-5.443-6.155-3.732-9.928 2.174-4.794 5.176-9.124 8.924-12.87 17.076-17.075 44.86-17.076 61.938 0 17.076 17.077 17.076 44.862 0 61.939-8.539 8.54-19.753 12.809-30.969 12.809z"/></g><g><path d="m385.079 145.276c-11.698 0-22.697-4.556-30.97-12.827-8.272-8.272-12.828-19.271-12.828-30.97s4.556-22.697 12.829-30.97c8.271-8.271 19.271-12.827 30.969-12.827 11.699 0 22.697 4.556 30.97 12.827 17.076 17.077 17.076 44.862 0 61.939-8.273 8.272-19.271 12.828-30.97 12.828zm0-72.594c-7.692 0-14.924 2.995-20.362 8.435-5.44 5.438-8.436 12.67-8.436 20.362s2.995 14.924 8.435 20.362c5.439 5.439 12.671 8.435 20.363 8.435s14.924-2.995 20.362-8.435c11.229-11.228 11.229-29.497 0-40.725-5.438-5.439-12.669-8.434-20.362-8.434z"/></g><g><path d="m206.942 99.312c-9.154 0-17.761-3.564-24.234-10.037-13.363-13.364-13.363-35.107-.001-48.47 6.474-6.474 15.081-10.038 24.235-10.038s17.761 3.565 24.234 10.039c6.473 6.473 10.038 15.079 10.038 24.233s-3.564 17.762-10.038 24.235c-6.473 6.474-15.079 10.038-24.234 10.038zm0-53.545c-5.147 0-9.988 2.005-13.628 5.646-7.515 7.514-7.515 19.74 0 27.256 3.64 3.64 8.479 5.644 13.628 5.644 5.147 0 9.987-2.004 13.627-5.645 3.641-3.64 5.646-8.48 5.646-13.628s-2.005-9.987-5.645-13.627c-3.64-3.641-8.48-5.646-13.628-5.646z"/></g><g><path d="m115.26 490.712c-1.064 0-2.127-.015-3.195-.044-29.181-.797-56.733-12.487-77.581-32.918-22.018-21.575-34.263-50.567-34.48-81.635-.218-31.053 11.611-60.198 33.309-82.066 6.628-6.681 14.031-12.528 22.003-17.378 21.206-12.899 36.887-33.731 44.152-58.658 6.569-22.537 18.905-43.241 35.676-59.875 25.988-25.776 60.606-40.083 97.476-40.284 36.861-.183 71.641 13.731 97.897 39.231 27.026 26.247 42.063 61.432 42.338 99.072.276 37.649-14.232 73.043-40.852 99.664-16.781 16.78-37.647 29.062-60.344 35.516-24.317 6.915-44.784 22.419-57.631 43.654-.625 1.035-1.271 2.064-1.934 3.086-2.254 3.474-6.898 4.461-10.374 2.208-3.475-2.255-4.463-6.899-2.208-10.374.575-.887 1.135-1.779 1.68-2.681 14.818-24.495 38.386-42.365 66.363-50.321 20.245-5.757 38.862-16.717 53.84-31.695 23.758-23.757 36.706-55.346 36.46-88.946-.246-33.593-13.667-64.995-37.79-88.423-48.311-46.918-126.53-46.496-174.359.943-14.969 14.848-25.979 33.32-31.838 53.422-8.316 28.532-26.343 52.425-50.757 67.275-6.935 4.219-13.378 9.309-19.15 15.128-18.863 19.012-29.147 44.368-28.957 71.397.189 27.043 10.836 52.268 29.979 71.026 37.175 36.427 96.985 38.189 136.168 4.01 3.12-2.722 7.859-2.398 10.581.723 2.724 3.121 2.4 7.858-.722 10.582-21.042 18.355-47.833 28.36-75.75 28.361z"/></g></g></g></svg>