<svg id="Capa_1" enable-background="new 0 0 512 512" height="512" viewBox="0 0 512 512" width="512" xmlns="http://www.w3.org/2000/svg"><g><g><path d="m270.164 270.129-28.286-28.286-228.513 228.513c-3.751 3.751-5.858 8.838-5.858 14.143 0 11.046 8.955 20.001 20.001 20.001 5.305 0 10.392-2.107 14.143-5.858z" fill="#dceefe"/></g><g><path d="m241.878 241.843-184.953 184.952c3.751-3.751 8.838-5.858 14.143-5.858 11.046 0 20.001 8.955 20.001 20.001 0 5.305-2.107 10.392-5.858 14.143l184.953-184.953z" fill="#c4e2fe"/></g><g><path d="m319.298 82.762h139.889v80.005h-139.889z" fill="#c4e2fe" transform="matrix(.707 -.707 .707 .707 27.199 311.193)"/></g><g><path d="m305.155 88.62h139.889v40.002h-139.889z" fill="#b0d8fd" transform="matrix(.707 -.707 .707 .707 33.057 297.05)"/></g><g><path d="m498.648 133.254c7.811-7.811 7.811-20.475 0-28.286l-91.61-91.61c-7.811-7.811-20.475-7.811-28.286 0-7.811 7.811-7.811 20.475 0 28.286l91.61 91.61c7.811 7.811 20.475 7.811 28.286 0z" fill="#dceefe"/></g><g><path d="m424.558 59.163c7.811-7.811 20.475-7.811 28.286 0l-45.805-45.805c-7.811-7.811-20.475-7.811-28.286 0-7.811 7.811-7.811 20.475 0 28.286l45.805 45.805c-7.811-7.811-7.811-20.475 0-28.286z" fill="#c4e2fe"/></g><g><path d="m410.499 242.937-141.43-141.429-183.858 183.858c-15.622 15.622-15.622 40.95 0 56.572l84.858 84.858c15.622 15.622 40.95 15.622 56.572 0z" fill="#fff2b4"/></g><g><path d="m141.783 341.938 183.858-183.858-56.572-56.572-183.858 183.858c-15.622 15.622-15.622 40.95 0 56.572l56.572 56.572c-15.622-15.622-15.622-40.95 0-56.572z" fill="#ffdf8e"/></g><g><path d="m445.856 278.295c7.811-7.811 7.811-20.475 0-28.286l-183.858-183.859c-7.811-7.811-20.475-7.811-28.286 0-7.811 7.811-7.811 20.475 0 28.286l183.858 183.859c7.811 7.811 20.475 7.811 28.286 0z" fill="#dceefe"/></g><g><path d="m297.355 129.794c7.811-7.811 20.475-7.811 28.286 0l-63.643-63.644c-7.811-7.811-20.475-7.811-28.286 0-7.811 7.811-7.811 20.475 0 28.286l63.643 63.643c-7.811-7.81-7.811-20.474 0-28.285z" fill="#c4e2fe"/></g><g><g><g><ellipse cx="173.392" cy="350.702" fill="#fda0c1" rx="30.94" ry="24.639" transform="matrix(.707 -.707 .707 .707 -197.198 225.325)"/></g><g><ellipse cx="291.976" cy="232.118" fill="#fda0c1" rx="30.94" ry="24.639" transform="matrix(.707 -.707 .707 .707 -78.614 274.444)"/></g><g><ellipse cx="219.298" cy="278.023" fill="#6e6e6e" rx="16.423" ry="18.378" transform="matrix(.707 -.707 .707 .707 -132.362 236.5)"/></g></g><g><path d="m156.026 333.521c-1.919 0-3.839-.732-5.303-2.196l-8.485-8.485c-2.929-2.93-2.929-7.678 0-10.607 2.929-2.928 7.678-2.928 10.606 0l8.485 8.485c2.929 2.93 2.929 7.678 0 10.607-1.464 1.463-3.384 2.196-5.303 2.196z"/></g><g><path d="m221.256 302.952c-6.903-.001-13.783-2.921-18.874-8.012-4.777-4.776-7.608-10.982-7.973-17.474-.382-6.809 1.958-13.109 6.591-17.742 4.275-4.275 10.078-6.63 16.341-6.63 6.903 0 13.782 2.921 18.874 8.012 10.09 10.09 10.71 25.887 1.383 35.215-4.277 4.276-10.08 6.631-16.342 6.631zm-3.915-34.857c-1.596 0-3.886.389-5.734 2.236-1.572 1.572-2.361 3.808-2.221 6.295.157 2.805 1.437 5.542 3.603 7.707 2.299 2.3 5.313 3.619 8.268 3.619 1.596 0 3.886-.389 5.734-2.237 3.479-3.479 2.859-9.76-1.382-14.001-2.301-2.3-5.314-3.619-8.268-3.619z"/></g><g><path d="m267.295 222.251c-1.919 0-3.839-.732-5.303-2.196l-8.486-8.485c-2.929-2.929-2.929-7.678 0-10.606 2.929-2.93 7.678-2.929 10.606-.001l8.486 8.485c2.929 2.929 2.929 7.678 0 10.606-1.464 1.465-3.383 2.197-5.303 2.197z"/></g></g><path d="m503.951 99.664-91.608-91.608c-5.195-5.196-12.102-8.056-19.447-8.056s-14.252 2.86-19.446 8.055-8.055 12.101-8.055 19.446 2.861 14.252 8.055 19.447l12.215 12.215-60.023 60.024-58.34-58.34c-10.722-10.721-28.169-10.721-38.892 0-5.194 5.194-8.055 12.101-8.055 19.446s2.861 14.252 8.055 19.447l15.91 15.91-164.412 164.413c-8.972 8.973-13.914 20.901-13.914 33.59s4.941 24.617 13.914 33.589l22.982 22.982-51.87 51.87c-2.929 2.93-2.929 7.678 0 10.607 1.464 1.464 3.384 2.196 5.303 2.196s3.839-.732 5.303-2.196l51.87-51.87 17.679 17.679-94.829 94.828c-2.361 2.361-5.5 3.662-8.84 3.662-6.893 0-12.501-5.608-12.501-12.501 0-3.34 1.3-6.479 3.662-8.84l21.746-21.745c2.929-2.93 2.929-7.678 0-10.607-2.929-2.928-7.678-2.928-10.606 0l-21.745 21.745c-5.194 5.195-8.055 12.102-8.055 19.447 0 15.164 12.337 27.501 27.501 27.501 7.346 0 14.252-2.86 19.446-8.055l94.829-94.829 22.983 22.983c9.261 9.26 21.425 13.89 33.589 13.89s24.329-4.63 33.589-13.89l164.412-164.412 15.911 15.911c5.361 5.36 12.403 8.041 19.446 8.041s14.085-2.681 19.447-8.042c5.194-5.194 8.055-12.101 8.055-19.446s-2.861-14.252-8.055-19.446l-58.339-58.339 60.023-60.024 12.216 12.216c5.194 5.193 12.101 8.054 19.446 8.054s14.252-2.86 19.446-8.054c10.722-10.723 10.722-28.17-.001-38.894zm-59.736 164.487c0 3.34-1.301 6.479-3.662 8.84-4.875 4.874-12.806 4.875-17.679 0l-51.154-51.154c-2.929-2.928-7.678-2.928-10.606 0-2.929 2.93-2.929 7.678 0 10.607l24.636 24.636-164.413 164.412c-12.672 12.673-33.292 12.674-45.965 0l-84.857-84.858c-6.139-6.139-9.52-14.3-9.52-22.981s3.381-16.844 9.52-22.982l164.412-164.412 84.972 84.972c2.929 2.928 7.678 2.928 10.606 0 2.929-2.93 2.929-7.678 0-10.607l-111.489-111.49c-2.361-2.362-3.662-5.501-3.662-8.841 0-3.339 1.3-6.479 3.662-8.839 4.874-4.875 12.804-4.874 17.679 0l183.858 183.858c2.361 2.361 3.662 5.501 3.662 8.839zm-62.002-88.392-45.965-45.965 60.023-60.024 45.965 45.965zm111.132-47.809c-2.361 2.361-5.5 3.661-8.839 3.661s-6.479-1.3-8.84-3.661l-91.609-91.608c-2.361-2.362-3.662-5.501-3.662-8.841 0-3.339 1.3-6.479 3.662-8.84 2.361-2.361 5.5-3.661 8.839-3.661s6.479 1.3 8.84 3.662l91.609 91.608c4.874 4.876 4.874 12.806 0 17.68z"/></g></svg>