<svg id="Capa_1" enable-background="new 0 0 513 513" height="512" viewBox="0 0 513 513" width="512" xmlns="http://www.w3.org/2000/svg"><g><g><circle cx="385.089" cy="82.5" fill="#d98263" r="75"/></g><g><path d="m332.056 135.533c29.289 29.289 76.777 29.289 106.066 0-5.858 5.858-15.355 5.858-21.213 0s-5.858-15.355 0-21.213l-63.64-63.64c-5.858 5.858-15.355 5.858-21.213 0s-5.858-15.355 0-21.213c-29.289 29.289-29.289 76.777 0 106.066z" fill="#c4715a"/></g><g><circle cx="385.089" cy="82.5" fill="#ffcebf" r="45"/></g><g><circle cx="127.911" cy="82.5" fill="#d98263" r="75"/></g><g><path d="m180.944 135.533c29.289-29.289 29.289-76.777 0-106.066 5.858 5.858 5.858 15.355 0 21.213s-15.355 5.858-21.213 0l-63.64 63.64c5.858 5.858 5.858 15.355 0 21.213s-15.355 5.858-21.213 0c29.289 29.289 76.776 29.289 106.066 0z" fill="#c4715a"/></g><g><circle cx="127.911" cy="82.5" fill="#ffcebf" r="45"/></g><g><g><path d="m298.979 386.484c-2.649-.95-5.335-1.805-8.058-2.575-10.944-3.108-22.49-4.781-34.421-4.781-69.665 0-126.372 56.717-126.372 126.372h252.743c.001-54.299-34.632-101.38-83.892-119.016z" fill="#d98263"/></g></g><g><path d="m281.452 381.628c-8.068-1.628-16.409-2.5-24.952-2.5-69.665 0-126.372 56.717-126.372 126.372h50c0-61.083 43.61-112.212 101.324-123.872z" fill="#c4715a"/></g><g><g><path d="m256.5 82.5c-100.065 0-181.183 81.119-181.183 181.183 0 100.065 81.118 128.704 181.183 128.704s181.183-28.64 181.183-128.704-81.118-181.183-181.183-181.183z" fill="#eb9b81"/></g></g><g><path d="m125.317 263.683c0-91.581 67.951-167.279 156.183-179.458-8.173-1.128-16.516-1.725-25-1.725-100.065 0-181.183 81.119-181.183 181.183 0 100.065 81.118 128.704 181.183 128.704 8.484 0 16.827-.212 25-.649-88.232-4.726-156.183-36.474-156.183-128.055z" fill="#d98263"/></g><g><circle cx="256.5" cy="294" fill="#ffdfcf" r="60"/></g><g><path d="m236.5 294c0-26.122 16.699-48.334 40-56.572-6.257-2.212-12.985-3.428-20-3.428-33.137 0-60 26.863-60 60s26.863 60 60 60c7.015 0 13.743-1.215 20-3.428-23.301-8.238-40-30.45-40-56.572z" fill="#ffcebf"/></g><g><path d="m284 234c0 15.188-12.312 27.5-27.5 27.5s-27.5-12.312-27.5-27.5 12.312-17.5 27.5-17.5 27.5 2.312 27.5 17.5z" fill="#d98263"/></g><g><path d="m256.5 234c0-10.177 5.533-14.569 13.75-16.361-4.046-.883-8.739-1.139-13.75-1.139-15.188 0-27.5 2.312-27.5 17.5s12.312 27.5 27.5 27.5c5.011 0 9.704-1.347 13.75-3.688-8.217-4.756-13.75-13.635-13.75-23.812z" fill="#c4715a"/></g><g><g><g><ellipse cx="176.855" cy="233.202" fill="#fff" rx="29.387" ry="23.403"/></g><g><ellipse cx="336.145" cy="233.202" fill="#fff" rx="29.387" ry="23.403"/></g></g><g><path d="m181.768 212.762c-4.142 0-7.5-3.357-7.5-7.5v-12c0-4.143 3.358-7.5 7.5-7.5s7.5 3.357 7.5 7.5v12c0 4.142-3.358 7.5-7.5 7.5z"/></g><g><path d="m331.232 212.762c-4.142 0-7.5-3.357-7.5-7.5v-12c0-4.143 3.358-7.5 7.5-7.5s7.5 3.357 7.5 7.5v12c0 4.142-3.358 7.5-7.5 7.5z"/></g></g><g><path d="m467.589 82.5c0-45.49-37.009-82.5-82.5-82.5-44.892 0-81.498 36.048-82.455 80.715-14.77-3.726-30.223-5.715-46.134-5.715s-31.364 1.989-46.135 5.715c-.956-44.667-37.562-80.715-82.454-80.715-45.491 0-82.5 37.01-82.5 82.5 0 34.926 21.626 65.442 53.651 77.314-19.734 29.811-31.245 65.518-31.245 103.868 0 49.296 19.08 85.736 56.709 108.309 16.257 9.752 35.729 16.894 58.743 21.512-37.383 24.518-60.64 66.538-60.64 111.996 0 4.143 3.358 7.5 7.5 7.5h252.743c4.142 0 7.5-3.357 7.5-7.5 0-45.436-23.26-87.48-60.631-111.993 24.604-4.935 45.152-12.755 62.021-23.553 3.489-2.233 4.506-6.871 2.273-10.36-2.233-3.488-6.873-4.508-10.36-2.272-28.576 18.292-71.364 27.567-127.175 27.567-116.871 0-173.683-39.646-173.683-121.205 0-95.769 77.914-173.683 173.683-173.683s173.683 77.914 173.683 173.683c0 31.28-8.451 56.689-25.117 75.521-2.745 3.102-2.456 7.842.646 10.587 3.102 2.747 7.843 2.458 10.587-.646 19.166-21.655 28.884-50.409 28.884-85.462 0-38.351-11.512-74.059-31.247-103.871 32.019-11.876 53.653-42.41 53.653-77.312zm-161.971 314.769c40.083 18.259 66.747 57.253 69.515 100.731h-237.266c2.766-43.487 29.421-82.448 69.51-100.728 15.064 1.746 31.411 2.615 49.123 2.615 17.707.001 34.051-.872 49.118-2.618zm-245.207-314.769c0-37.22 30.28-67.5 67.5-67.5s67.5 30.28 67.5 67.5c0 .891-.03 1.785-.065 2.678-5.343 1.835-10.577 3.905-15.692 6.195.5-2.917.757-5.884.757-8.873 0-28.948-23.551-52.5-52.5-52.5-7.949 0-15.594 1.741-22.723 5.176-3.731 1.798-5.299 6.28-3.501 10.012 1.798 3.731 6.279 5.3 10.012 3.502 5.08-2.449 10.535-3.69 16.212-3.69 20.678 0 37.5 16.822 37.5 37.5 0 6.696-1.802 13.233-5.187 18.974-8.829 5.26-17.193 11.219-25.018 17.802-2.389.473-4.838.724-7.295.724-20.678 0-37.5-16.822-37.5-37.5 0-5.626 1.22-11.037 3.627-16.083 1.783-3.738.198-8.215-3.541-9.998-3.741-1.784-8.215-.199-9.999 3.541-3.376 7.078-5.088 14.661-5.088 22.54 0 26.019 19.03 47.667 43.901 51.784-3.869 4.1-7.562 8.368-11.056 12.8-28.356-8.574-47.844-34.59-47.844-64.584zm257.178 0c0-37.22 30.28-67.5 67.5-67.5s67.5 30.28 67.5 67.5c0 29.974-19.494 56.009-47.845 64.585-3.494-4.433-7.187-8.701-11.056-12.801 24.871-4.117 43.901-25.765 43.901-51.784 0-28.948-23.551-52.5-52.5-52.5s-52.5 23.552-52.5 52.5c0 2.988.256 5.955.756 8.872-5.116-2.291-10.352-4.36-15.696-6.196-.035-.892-.06-1.785-.06-2.676zm35.183 18.971c-3.383-5.737-5.182-12.28-5.182-18.971 0-20.678 16.822-37.5 37.5-37.5s37.5 16.822 37.5 37.5-16.822 37.5-37.5 37.5c-2.457 0-4.906-.25-7.292-.722-7.828-6.585-16.195-12.546-25.026-17.807z"/><path d="m189 294c0 37.22 30.28 67.5 67.5 67.5s67.5-30.28 67.5-67.5c0-23.786-12.387-45.564-32.579-57.769.047-.739.079-1.481.079-2.231 0-25-25.428-25-35-25s-35 0-35 25c0 .748.032 1.488.078 2.225-20.205 12.201-32.578 33.941-32.578 57.775zm67.5-70c18.608 0 20 3.959 20 10 0 11.028-8.972 20-20 20s-20-8.972-20-20c0-6.041 1.392-10 20-10zm-30.453 27.22c6.021 10.605 17.411 17.78 30.453 17.78 13.041 0 24.43-7.174 30.451-17.777 13.75 9.778 22.049 25.606 22.049 42.777 0 28.948-23.551 52.5-52.5 52.5s-52.5-23.552-52.5-52.5c0-17.205 8.291-33.007 22.047-42.78z"/></g></g></svg>