<svg id="Capa_1" enable-background="new 0 0 512 512" height="512" viewBox="0 0 512 512" width="512" xmlns="http://www.w3.org/2000/svg"><g><g><path d="m367 70.101c-23.019 0-44.715 5.658-63.775 15.658-29.636 15.549-64.812 15.549-94.448 0-19.061-10-40.756-15.658-63.775-15.658-75.932-.001-137.137 60.897-137.5 136.827-.365 76.248 61.335 138.173 137.498 138.173 23.078 0 44.827-5.687 63.923-15.736 29.514-15.531 64.64-15.531 94.154 0 19.096 10.048 40.845 15.736 63.923 15.736 76.163 0 137.864-61.925 137.498-138.173-.363-75.931-61.567-136.828-137.498-136.827z" fill="#9ccefd"/></g><g><g><path d="m87.502 206.928c.297-61.971 41.123-113.921 97.403-130.931-12.63-3.826-26.024-5.896-39.904-5.896-75.931-.001-137.136 60.897-137.499 136.827-.365 76.248 61.335 138.173 137.498 138.173 13.911 0 27.333-2.08 39.988-5.922-56.625-17.198-97.784-69.937-97.486-132.251z" fill="#72bafd"/></g></g><g><g><path d="m256 191.655c-80.806 0-146.311 65.506-146.311 146.311 0 80.806 65.506 103.933 146.311 103.933s146.311-23.127 146.311-103.933c.001-80.805-65.505-146.311-146.311-146.311zm82.882 194.278c-17.662 10.594-45.547 15.966-82.882 15.966s-65.22-5.372-82.882-15.966c-11.586-6.95-23.43-18.083-23.43-47.966 0-58.621 47.691-106.312 106.312-106.312s106.312 47.691 106.312 106.312c0 29.882-11.844 41.016-23.43 47.966z" fill="#dceefe"/></g></g><g><path d="m236 421.899c0-11.046 8.954-20 20-20-37.334 0-65.22-5.372-82.882-15.966-11.586-6.95-23.43-18.083-23.43-47.966 0-58.621 47.691-106.312 106.312-106.312v-40c-80.806 0-146.311 65.506-146.311 146.311 0 80.806 65.506 103.933 146.311 103.933-11.046 0-20-8.954-20-20z" fill="#c4e2fe"/></g><g><circle cx="256" cy="207.601" fill="#fff2b4" r="75"/></g><g><path d="m256 207.601c0-27.756 15.089-51.972 37.5-64.941-11.034-6.385-23.834-10.059-37.5-10.059-41.421 0-75 33.579-75 75s33.579 75 75 75c13.666 0 26.466-3.673 37.5-10.059-22.411-12.969-37.5-37.185-37.5-64.941z" fill="#ffdf8e"/></g><path d="m511.998 206.892c-.159-33.227-11.154-64.39-31.796-90.12-2.593-3.23-7.312-3.749-10.544-1.157-3.23 2.593-3.749 7.313-1.157 10.544 18.5 23.061 28.354 51.002 28.497 80.806.268 55.864-35.258 105.447-87.39 123.494-1.19-24.396-8.141-48.213-20.322-69.306-12.392-21.458-29.91-39.712-50.8-53.015.001-.18.014-.357.014-.537 0-45.49-37.01-82.5-82.5-82.5-45.491 0-82.5 37.01-82.5 82.5 0 .179.012.355.014.533-20.849 13.277-38.338 31.487-50.727 52.893-12.226 21.124-19.202 44.985-20.394 69.43-52.147-18.046-87.658-67.583-87.391-123.493.342-71.331 58.659-129.363 129.999-129.363 20.989 0 41.837 5.118 60.291 14.801 31.752 16.658 69.666 16.659 101.417-.001 18.454-9.683 39.303-14.8 60.29-14.8 30.036 0 58.198 9.854 81.441 28.498 3.23 2.592 7.951 2.074 10.543-1.158 2.592-3.23 2.073-7.951-1.158-10.543-25.934-20.802-57.341-31.797-90.826-31.797-23.405 0-46.663 5.711-67.259 16.517-27.39 14.371-60.092 14.371-87.479.001-20.595-10.806-43.854-16.518-67.26-16.518-38.721 0-75.079 14.96-102.377 42.124-27.3 27.164-42.437 63.448-42.622 102.167-.307 64.108 41.568 120.705 102.422 139.349 2.026 36.173 17.557 63.208 46.26 80.425 25.501 15.297 60.604 22.733 107.316 22.733s81.815-7.437 107.316-22.733c28.702-17.218 44.234-44.252 46.26-80.426 60.836-18.644 102.729-75.293 102.422-139.348zm-157.2 130.141c-16.934-1.564-33.129-6.361-48.228-14.306-31.665-16.66-69.475-16.659-101.139 0-15.102 7.947-31.295 12.745-48.228 14.308.279-29.321 13.717-57.066 36.369-75.593 15.14 17.53 37.502 28.658 62.429 28.658s47.289-11.128 62.43-28.659c22.649 18.529 36.086 46.275 36.367 75.592zm-98.798-196.932c37.22 0 67.5 30.28 67.5 67.5s-30.28 67.5-67.5 67.5-67.5-30.28-67.5-67.5 30.28-67.5 67.5-67.5zm99.6 273.702c-22.783 13.667-56.293 20.597-99.6 20.597s-76.817-6.93-99.6-20.597c-26.386-15.827-39.212-40.634-39.212-75.837 0-45.483 21.554-86.944 58.168-112.993 1.865 8.667 5.099 16.827 9.459 24.253-26.806 21.553-42.627 54.248-42.627 88.74 0 33.822 14.468 46.838 27.072 54.397 16.277 9.764 40.325 15.39 71.474 16.72.109.005.217.007.325.007 3.995 0 7.316-3.15 7.488-7.18.177-4.139-3.035-7.637-7.173-7.813-28.622-1.223-50.289-6.134-64.397-14.597-8.171-4.9-15.851-11.792-18.658-27.508 18.993-1.717 37.159-7.078 54.098-15.991 27.291-14.359 59.876-14.359 87.169 0 16.936 8.912 35.103 14.271 54.098 15.988-2.807 15.718-10.488 22.61-18.659 27.511-14.098 8.457-35.747 13.367-64.345 14.595-4.139.178-7.35 3.677-7.172 7.814.173 4.029 3.493 7.179 7.487 7.179.108 0 .218-.002.327-.007 31.124-1.336 55.152-6.96 71.418-16.718 12.604-7.56 27.072-20.575 27.072-54.397 0-34.488-15.822-67.186-42.627-88.74 4.36-7.427 7.594-15.586 9.459-24.253 36.61 26.052 58.168 67.529 58.168 112.993 0 35.203-12.826 60.01-39.212 75.837z"/></g></svg>