<svg id="Capa_1" enable-background="new 0 0 512 512" height="512" viewBox="0 0 512 512" width="512" xmlns="http://www.w3.org/2000/svg"><g><g><path d="m214.817 263.683h-100v-256.183h55c24.853 0 45 20.147 45 45z" fill="#b0d8fd"/></g><g><path d="m114.817 263.683v-226.183h55c8.271 0 15 6.729 15 15v211.183z" fill="#fdb3cd"/></g><g><path d="m297.183 263.683h100v-256.183h-55c-24.853 0-45 20.147-45 45z" fill="#b0d8fd"/></g><g><path d="m397.183 263.683v-226.183h-55c-8.284 0-15 6.716-15 15v211.183z" fill="#fdb3cd"/></g><g><g><path d="m298.479 385.484c-2.649-.95-5.335-1.805-8.058-2.575-10.944-3.108-22.49-4.781-34.421-4.781-69.665 0-126.372 56.717-126.372 126.372h252.743c.001-54.299-34.632-101.38-83.892-119.016z" fill="#c4e2fe"/></g></g><g><path d="m280.952 380.628c-8.068-1.628-16.409-2.5-24.952-2.5-69.665 0-126.372 56.717-126.372 126.372h50c0-61.083 43.61-112.212 101.324-123.872z" fill="#b0d8fd"/></g><g><g><path d="m256 81.5c-100.065 0-181.183 81.119-181.183 181.183 0 100.065 81.118 128.704 181.183 128.704s181.183-28.64 181.183-128.704-81.118-181.183-181.183-181.183z" fill="#dceefe"/></g></g><g><path d="m124.817 262.683c0-91.581 67.951-167.279 156.183-179.458-8.173-1.128-16.516-1.725-25-1.725-100.065 0-181.183 81.119-181.183 181.183 0 100.065 81.118 128.704 181.183 128.704 8.484 0 16.827-.212 25-.649-88.232-4.726-156.183-36.474-156.183-128.055z" fill="#c4e2fe"/></g><g><circle cx="256" cy="293" fill="#fff" r="60"/></g><g><path d="m236 293c0-26.122 16.699-48.334 40-56.572-6.257-2.212-12.985-3.428-20-3.428-33.137 0-60 26.863-60 60s26.863 60 60 60c7.015 0 13.743-1.215 20-3.428-23.301-8.238-40-30.45-40-56.572z" fill="#c4e2fe"/></g><g><path d="m283.5 233c0 15.188-12.312 27.5-27.5 27.5s-27.5-12.312-27.5-27.5 12.312-17.5 27.5-17.5 27.5 2.312 27.5 17.5z" fill="#838383"/></g><g><path d="m256 233c0-10.177 5.533-14.569 13.75-16.361-4.046-.883-8.739-1.139-13.75-1.139-15.188 0-27.5 2.312-27.5 17.5s12.312 27.5 27.5 27.5c5.011 0 9.704-1.347 13.75-3.688-8.217-4.756-13.75-13.635-13.75-23.812z" fill="#6e6e6e"/></g><g><g><g><ellipse cx="176.355" cy="232.202" fill="#fda0c1" rx="29.387" ry="23.403"/></g><g><ellipse cx="335.645" cy="232.202" fill="#fda0c1" rx="29.387" ry="23.403"/></g></g><g><path d="m181.268 211.762c-4.143 0-7.5-3.357-7.5-7.5v-12c0-4.143 3.357-7.5 7.5-7.5s7.5 3.357 7.5 7.5v12c0 4.142-3.358 7.5-7.5 7.5z"/></g><g><path d="m330.732 211.762c-4.143 0-7.5-3.357-7.5-7.5v-12c0-4.143 3.357-7.5 7.5-7.5s7.5 3.357 7.5 7.5v12c0 4.142-3.357 7.5-7.5 7.5z"/></g></g><g><path d="m79.817 7.5c-24.853 0-45 20.147-45 45v116.183c0 24.853 20.147 45 45 45 24.853 0 45-20.147 45-45v-116.183c0-24.853 20.147-45 45-45z" fill="#c4e2fe"/></g><g><g><path d="m79.817 133.683c-24.853 0-45-20.147-45-45v80c0 24.853 20.147 45 45 45 24.853 0 45-20.147 45-45v-80c0 24.853-20.147 45-45 45z" fill="#b0d8fd"/></g></g><g><path d="m432.183 7.5c24.853 0 45 20.147 45 45v116.183c0 24.853-20.147 45-45 45-24.853 0-45-20.147-45-45v-116.183c0-24.853-20.147-45-45-45z" fill="#c4e2fe"/></g><g><g><path d="m432.183 133.683c-24.853 0-45-20.147-45-45v80c0 24.853 20.147 45 45 45 24.853 0 45-20.147 45-45v-80c0 24.853-20.147 45-45 45z" fill="#b0d8fd"/></g></g><g><path d="m188.5 293c0 37.22 30.28 67.5 67.5 67.5s67.5-30.28 67.5-67.5c0-23.786-12.388-45.564-32.579-57.769.047-.738.079-1.481.079-2.231 0-25-25.428-25-35-25s-35 0-35 25c0 .748.032 1.488.078 2.225-20.205 12.201-32.578 33.94-32.578 57.775zm67.5-70c18.607 0 20 3.959 20 10 0 11.028-8.972 20-20 20s-20-8.972-20-20c0-6.041 1.393-10 20-10zm-30.453 27.22c6.021 10.605 17.411 17.78 30.453 17.78 13.04 0 24.43-7.174 30.451-17.777 13.75 9.778 22.049 25.607 22.049 42.777 0 28.948-23.552 52.5-52.5 52.5s-52.5-23.552-52.5-52.5c0-17.206 8.291-33.008 22.047-42.78z"/><path d="m432.184 0h-90c-28.948 0-52.5 23.552-52.5 52.5v24.467c-10.995-1.962-22.254-2.967-33.684-2.967-11.431 0-22.69 1.003-33.684 2.964v-24.464c0-28.948-23.552-52.5-52.5-52.5h-90c-28.948 0-52.5 23.552-52.5 52.5v116.184c0 26.311 19.457 48.159 44.737 51.922-3.13 13.744-4.737 27.855-4.737 42.077 0 49.296 19.08 85.736 56.71 108.309 16.257 9.752 35.729 16.894 58.742 21.512-37.383 24.519-60.641 66.538-60.641 111.997 0 4.143 3.357 7.5 7.5 7.5h252.744c4.143 0 7.5-3.357 7.5-7.5 0-45.436-23.26-87.48-60.631-111.993 24.604-4.935 45.152-12.755 62.022-23.553 3.488-2.233 4.506-6.871 2.272-10.36-2.232-3.488-6.871-4.505-10.36-2.272-28.574 18.289-71.362 27.565-127.174 27.565-116.871 0-173.684-39.646-173.684-121.205 0-14.246 1.74-28.371 5.145-42.062 25.337-3.714 44.855-25.586 44.855-51.937v-27.917c32.896-33.397 76.712-51.767 123.684-51.767 46.958 0 90.787 18.374 123.684 51.768v27.916c0 26.351 19.518 48.223 44.854 51.937 3.404 13.692 5.146 27.818 5.146 42.062 0 31.28-8.45 56.689-25.117 75.521-2.745 3.102-2.456 7.842.646 10.587 1.428 1.264 3.201 1.884 4.968 1.884 2.073 0 4.138-.854 5.619-2.529 19.167-21.656 28.885-50.409 28.885-85.462 0-14.219-1.606-28.332-4.736-42.077 25.279-3.765 44.736-25.613 44.736-51.923v-116.184c-.001-28.948-23.553-52.5-52.501-52.5zm-127.066 396.269c40.083 18.259 66.748 57.253 69.515 100.731h-237.267c2.766-43.487 29.421-82.447 69.51-100.728 15.064 1.746 31.411 2.615 49.123 2.615 17.709.001 34.052-.872 49.119-2.618zm-135.302-381.269c20.678 0 37.5 16.822 37.5 37.5v27.789c-5.073 1.342-10.076 2.896-15 4.654v-32.443c0-12.406-10.094-22.5-22.5-22.5h-29.98c6.849-9.102 17.738-15 29.98-15zm-37.5 105.182v-23.68c0-4.143-3.357-7.5-7.5-7.5s-7.5 3.357-7.5 7.5v72.182c0 20.678-16.822 37.5-37.5 37.5s-37.5-16.822-37.5-37.5v-116.184c0-20.678 16.822-37.5 37.5-37.5h53.293c-9.74 9.536-15.793 22.824-15.793 37.5v14c0 4.143 3.357 7.5 7.5 7.5s7.5-3.357 7.5-7.5v-14c0-2.568.261-5.076.755-7.5h36.745c4.136 0 7.5 3.364 7.5 7.5v38.538c-16.177 7.426-31.305 17.203-45 29.144zm172.368-67.682c0-20.678 16.822-37.5 37.5-37.5 12.242 0 23.131 5.898 29.98 15h-29.98c-12.406 0-22.5 10.094-22.5 22.5v32.446c-4.924-1.759-9.927-3.312-15-4.654zm30 38.544v-38.544c0-4.136 3.364-7.5 7.5-7.5h36.745c.494 2.424.755 4.932.755 7.5v67.685c-13.695-11.939-28.824-21.714-45-29.141zm135 77.639c0 20.678-16.822 37.5-37.5 37.501v.935h-.001v-.935c-20.677 0-37.499-16.822-37.499-37.5v-116.184c0-14.676-6.053-27.964-15.793-37.5h53.293c20.678 0 37.5 16.822 37.5 37.5z"/></g></g></svg>