<svg id="Capa_1" enable-background="new 0 0 511.999 511.999" height="512" viewBox="0 0 511.999 511.999" width="512" xmlns="http://www.w3.org/2000/svg"><g><g><path d="m152.763 274.383-140.425 190.576c-3.143 4.265-4.838 9.424-4.838 14.722 0 13.706 11.111 24.818 24.817 24.818 5.298 0 10.457-1.695 14.722-4.838l190.576-140.425z" fill="#dceefe"/></g><g><path d="m152.763 274.383-68.354 92.765c16.776-15.604 43.025-15.25 59.358 1.083s16.688 42.582 1.083 59.358l92.766-68.354z" fill="#c4e2fe"/></g><g><path d="m460.566 263.419c58.156-58.156 58.576-152.185 1.259-210.859-57.25-58.606-151.776-60.283-210.971-3.641-25.509 24.409-40.488 55.537-44.939 87.837-6.451 46.809-27.325 90.44-60.737 123.852l-3.023 3.023 106.066 106.066 3.024-3.024c32.992-32.992 75.843-54.671 122.135-60.509 31.877-4.02 62.709-18.268 87.186-42.745z" fill="#fda0c1"/></g><g><path d="m255.413 186.254c4.451-32.301 19.43-63.428 44.939-87.837 50.073-47.914 125.427-54.092 182.115-19.385-5.754-9.384-12.633-18.274-20.642-26.472-57.251-58.606-151.776-60.283-210.971-3.641-25.509 24.409-40.488 55.537-44.939 87.837-6.45 46.809-27.325 90.44-60.737 123.852l-3.023 3.023 49.497 49.497 3.023-3.023c33.413-33.411 54.287-77.042 60.738-123.851z" fill="#fc90b4"/></g><g><path d="m237.616 387.374-113.138-113.137c-7.81-7.81-7.81-20.474 0-28.284 7.81-7.81 20.474-7.81 28.284 0l113.138 113.137c7.81 7.81 7.81 20.474 0 28.284-7.811 7.811-20.474 7.811-28.284 0z" fill="#fdb3cd"/></g><g><path d="m173.976 295.451c7.81-7.81 20.474-7.81 28.284 0l-49.497-49.497c-7.81-7.81-20.474-7.81-28.284 0s-7.81 20.474 0 28.284l49.497 49.497c-7.81-7.811-7.81-20.474 0-28.284z" fill="#fda0c1"/></g><g><path d="m452.354 278.703-219.204-219.204c-7.81-7.81-7.81-20.474 0-28.284 7.81-7.81 20.474-7.81 28.284 0l219.203 219.203c7.81 7.81 7.81 20.474 0 28.284-7.81 7.811-20.473 7.811-28.283.001z" fill="#fdb3cd"/></g><g><path d="m282.648 80.713c7.81-7.81 20.474-7.81 28.284 0l-49.497-49.497c-7.81-7.81-20.474-7.81-28.284 0s-7.81 20.474 0 28.284l49.497 49.497c-7.811-7.811-7.811-20.474 0-28.284z" fill="#fda0c1"/></g><path d="m485.56 244.734c19.277-28.873 28.509-63.638 26.047-98.532-2.62-37.127-18.395-72.244-44.418-98.883-26.413-27.039-61.801-43.653-99.644-46.779-35.602-2.939-71.038 6.192-100.415 25.763l-.391-.391c-10.723-10.721-28.169-10.72-38.892 0-10.566 10.567-10.712 27.66-.452 38.417-15.377 20.973-25.344 45.532-28.91 71.404-5.241 38.027-20.172 73.277-43.307 102.406-4.746-3.594-10.501-5.542-16.557-5.542-7.346 0-14.252 2.86-19.446 8.054-5.193 5.194-8.054 12.101-8.054 19.446s2.86 14.251 8.054 19.445l11.786 11.786-65.161 88.432c-2.457 3.335-1.745 8.03 1.589 10.487 1.34.986 2.898 1.462 4.443 1.462 2.302 0 4.573-1.056 6.044-3.051l63.813-86.604 68.254 68.254-167.353 123.315c-2.997 2.209-6.549 3.376-10.272 3.376-9.549 0-17.318-7.769-17.318-17.319 0-3.67 1.199-7.317 3.376-10.271l41.501-56.323c2.457-3.335 1.745-8.03-1.589-10.487-3.336-2.455-8.028-1.745-10.487 1.589l-41.501 56.322c-4.121 5.593-6.3 12.223-6.3 19.171 0 17.82 14.497 32.317 32.317 32.317 6.948 0 13.578-2.179 19.171-6.3l169.183-124.661 11.641 11.641c5.194 5.193 12.101 8.054 19.446 8.054s14.251-2.86 19.445-8.054c5.193-5.194 8.055-12.101 8.055-19.446 0-6.076-1.963-11.848-5.579-16.603 29.384-23.57 64.029-38.407 100.64-43.024 26.547-3.348 51.732-13.397 73.208-29.146 5.299 5.053 12.131 7.588 18.969 7.588 7.042 0 14.084-2.681 19.445-8.041 10.722-10.723 10.722-28.169 0-38.892zm-224.964 137.337c-2.36 2.361-5.5 3.661-8.838 3.661-3.339 0-6.479-1.3-8.839-3.661l-113.136-113.138c-2.361-2.36-3.661-5.5-3.661-8.838 0-3.339 1.3-6.479 3.661-8.839 2.36-2.361 5.5-3.661 8.839-3.661 3.338 0 6.478 1.3 8.838 3.661l113.137 113.138c2.361 2.36 3.661 5.5 3.662 8.838-.002 3.339-1.302 6.479-3.663 8.839zm111.846-83.349c-39.82 5.022-77.448 21.27-109.222 47.081l-97.206-97.207c25.323-31.452 41.655-69.625 47.332-110.815 3.119-22.631 11.659-44.142 24.792-62.688l198.623 198.623c-19.005 13.459-41.08 22.076-64.319 25.006zm102.892-25.323c-4.873 4.875-12.804 4.875-17.677 0l-219.203-219.203c-4.874-4.873-4.874-12.804 0-17.677 4.872-4.875 12.803-4.877 17.677 0l149.008 149.008c2.93 2.928 7.678 2.928 10.607 0 2.929-2.93 2.929-7.678 0-10.607l-137.776-137.777c56.139-35.689 131.519-27.424 178.489 20.658 46.624 47.726 53.775 120.58 18.268 176.099l-37.766-37.766c-2.93-2.928-7.678-2.928-10.607 0-2.929 2.93-2.929 7.678 0 10.607l48.98 48.98c4.874 4.874 4.874 12.805 0 17.678z"/></g></svg>